<svg xmlns="http://www.w3.org/2000/svg" style="display: none;">
<symbol id="angular-material" viewBox="0 0 250 250">

<g>
	<polygon points="108,135.4 125,135.4 125,135.4 125,135.4 142,135.4 125,94.5 	"/>
	<path d="M125,30L125,30L125,30L31.9,63.2l14.2,123.1L125,230l0,0l0,0l78.9-43.7l14.2-123.1L125,30z M183.1,182.6h-21.7h0
		l-11.7-29.2H125h0h0h-24.7l-11.7,29.2h0H66.9h0L125,52.1l0,0l0,0l0,0l0,0L183.1,182.6L183.1,182.6z"/>
</g>

</symbol>
<symbol id="angular" viewBox="0 0 250 250">

<style type="text/css">
	.st0{fill:#DD0031;}
	.st1{fill:#C3002F;}
	.st2{fill:#FFFFFF;}
</style>
<g>
	<polygon class="st0" points="125,30 125,30 125,30 31.9,63.2 46.1,186.3 125,230 125,230 125,230 203.9,186.3 218.1,63.2 	"/>
	<polygon class="st1" points="125,30 125,52.2 125,52.1 125,153.4 125,153.4 125,230 125,230 203.9,186.3 218.1,63.2 125,30 	"/>
	<path class="st2" d="M125,52.1L66.8,182.6h0h21.7h0l11.7-29.2h49.4l11.7,29.2h0h21.7h0L125,52.1L125,52.1L125,52.1L125,52.1
		L125,52.1z M142,135.4H108l17-40.9L142,135.4z"/>
</g>

</symbol>
<symbol id="ant-design" viewBox="0 0 200 200">

    <!-- Generator: Sketch 47.1 (45422) - http://www.bohemiancoding.com/sketch -->
    <title>Group 28 Copy 5</title>
    <desc>Created with Sketch.</desc>
    <defs>
        <linearGradient x1="62.1023273%" y1="0%" x2="108.19718%" y2="37.8635764%" id="linearGradient-1">
            <stop stop-color="#4285EB" offset="0%"></stop>
            <stop stop-color="#2EC7FF" offset="100%"></stop>
        </linearGradient>
        <linearGradient x1="69.644116%" y1="0%" x2="54.0428975%" y2="108.456714%" id="linearGradient-2">
            <stop stop-color="#29CDFF" offset="0%"></stop>
            <stop stop-color="#148EFF" offset="37.8600687%"></stop>
            <stop stop-color="#0A60FF" offset="100%"></stop>
        </linearGradient>
        <linearGradient x1="69.6908165%" y1="-12.9743587%" x2="16.7228981%" y2="117.391248%" id="linearGradient-3">
            <stop stop-color="#FA816E" offset="0%"></stop>
            <stop stop-color="#F74A5C" offset="41.472606%"></stop>
            <stop stop-color="#F51D2C" offset="100%"></stop>
        </linearGradient>
        <linearGradient x1="68.1279872%" y1="-35.6905737%" x2="30.4400914%" y2="114.942679%" id="linearGradient-4">
            <stop stop-color="#FA8E7D" offset="0%"></stop>
            <stop stop-color="#F74A5C" offset="51.2635191%"></stop>
            <stop stop-color="#F51D2C" offset="100%"></stop>
        </linearGradient>
    </defs>
    <g id="Page-1" stroke="none" stroke-width="1" fill="none" fill-rule="evenodd">
        <g id="logo" transform="translate(-20.000000, -20.000000)">
            <g id="Group-28-Copy-5" transform="translate(20.000000, 20.000000)">
                <g id="Group-27-Copy-3">
                    <g id="Group-25" fill-rule="nonzero">
                        <g id="2">
                            <path d="M91.5880863,4.17652823 L4.17996544,91.5127728 C-0.519240605,96.2081146 -0.519240605,103.791885 4.17996544,108.487227 L91.5880863,195.823472 C96.2872923,200.518814 103.877304,200.518814 108.57651,195.823472 L145.225487,159.204632 C149.433969,154.999611 149.433969,148.181924 145.225487,143.976903 C141.017005,139.771881 134.193707,139.771881 129.985225,143.976903 L102.20193,171.737352 C101.032305,172.906015 99.2571609,172.906015 98.0875359,171.737352 L28.285908,101.993122 C27.1162831,100.824459 27.1162831,99.050775 28.285908,97.8821118 L98.0875359,28.1378823 C99.2571609,26.9692191 101.032305,26.9692191 102.20193,28.1378823 L129.985225,55.8983314 C134.193707,60.1033528 141.017005,60.1033528 145.225487,55.8983314 C149.433969,51.69331 149.433969,44.8756232 145.225487,40.6706018 L108.58055,4.05574592 C103.862049,-0.537986846 96.2692618,-0.500797906 91.5880863,4.17652823 Z" id="Shape" fill="url(#linearGradient-1)"></path>
                            <path d="M91.5880863,4.17652823 L4.17996544,91.5127728 C-0.519240605,96.2081146 -0.519240605,103.791885 4.17996544,108.487227 L91.5880863,195.823472 C96.2872923,200.518814 103.877304,200.518814 108.57651,195.823472 L145.225487,159.204632 C149.433969,154.999611 149.433969,148.181924 145.225487,143.976903 C141.017005,139.771881 134.193707,139.771881 129.985225,143.976903 L102.20193,171.737352 C101.032305,172.906015 99.2571609,172.906015 98.0875359,171.737352 L28.285908,101.993122 C27.1162831,100.824459 27.1162831,99.050775 28.285908,97.8821118 L98.0875359,28.1378823 C100.999864,25.6271836 105.751642,20.541824 112.729652,19.3524487 C117.915585,18.4685261 123.585219,20.4140239 129.738554,25.1889424 C125.624663,21.0784292 118.571995,14.0340304 108.58055,4.05574592 C103.862049,-0.537986846 96.2692618,-0.500797906 91.5880863,4.17652823 Z" id="Shape" fill="url(#linearGradient-2)"></path>
                        </g>
                        <path d="M153.685633,135.854579 C157.894115,140.0596 164.717412,140.0596 168.925894,135.854579 L195.959977,108.842726 C200.659183,104.147384 200.659183,96.5636133 195.960527,91.8688194 L168.690777,64.7181159 C164.472332,60.5180858 157.646868,60.5241425 153.435895,64.7316526 C149.227413,68.936674 149.227413,75.7543607 153.435895,79.9593821 L171.854035,98.3623765 C173.02366,99.5310396 173.02366,101.304724 171.854035,102.473387 L153.685633,120.626849 C149.47715,124.83187 149.47715,131.649557 153.685633,135.854579 Z" id="Shape" fill="url(#linearGradient-3)"></path>
                    </g>
                    <ellipse id="Combined-Shape" fill="url(#linearGradient-4)" cx="100.519339" cy="100.436681" rx="23.6001926" ry="23.580786"></ellipse>
                </g>
            </g>
        </g>
    </g>

</symbol>
<symbol id="aws" viewBox="0 0 304 182">

<style type="text/css">
	.st0{fill:#252F3E;}
	.st1{fill-rule:evenodd;clip-rule:evenodd;fill:#FF9900;}
</style>
<g>
	<path class="st0" d="M86.4,66.4c0,3.7,0.4,6.7,1.1,8.9c0.8,2.2,1.8,4.6,3.2,7.2c0.5,0.8,0.7,1.6,0.7,2.3c0,1-0.6,2-1.9,3l-6.3,4.2
		c-0.9,0.6-1.8,0.9-2.6,0.9c-1,0-2-0.5-3-1.4C76.2,90,75,88.4,74,86.8c-1-1.7-2-3.6-3.1-5.9c-7.8,9.2-17.6,13.8-29.4,13.8
		c-8.4,0-15.1-2.4-20-7.2c-4.9-4.8-7.4-11.2-7.4-19.2c0-8.5,3-15.4,9.1-20.6c6.1-5.2,14.2-7.8,24.5-7.8c3.4,0,6.9,0.3,10.6,0.8
		c3.7,0.5,7.5,1.3,11.5,2.2v-7.3c0-7.6-1.6-12.9-4.7-16c-3.2-3.1-8.6-4.6-16.3-4.6c-3.5,0-7.1,0.4-10.8,1.3c-3.7,0.9-7.3,2-10.8,3.4
		c-1.6,0.7-2.8,1.1-3.5,1.3c-0.7,0.2-1.2,0.3-1.6,0.3c-1.4,0-2.1-1-2.1-3.1v-4.9c0-1.6,0.2-2.8,0.7-3.5c0.5-0.7,1.4-1.4,2.8-2.1
		c3.5-1.8,7.7-3.3,12.6-4.5c4.9-1.3,10.1-1.9,15.6-1.9c11.9,0,20.6,2.7,26.2,8.1c5.5,5.4,8.3,13.6,8.3,24.6V66.4z M45.8,81.6
		c3.3,0,6.7-0.6,10.3-1.8c3.6-1.2,6.8-3.4,9.5-6.4c1.6-1.9,2.8-4,3.4-6.4c0.6-2.4,1-5.3,1-8.7v-4.2c-2.9-0.7-6-1.3-9.2-1.7
		c-3.2-0.4-6.3-0.6-9.4-0.6c-6.7,0-11.6,1.3-14.9,4c-3.3,2.7-4.9,6.5-4.9,11.5c0,4.7,1.2,8.2,3.7,10.6
		C37.7,80.4,41.2,81.6,45.8,81.6z M126.1,92.4c-1.8,0-3-0.3-3.8-1c-0.8-0.6-1.5-2-2.1-3.9L96.7,10.2c-0.6-2-0.9-3.3-0.9-4
		c0-1.6,0.8-2.5,2.4-2.5h9.8c1.9,0,3.2,0.3,3.9,1c0.8,0.6,1.4,2,2,3.9l16.8,66.2l15.6-66.2c0.5-2,1.1-3.3,1.9-3.9c0.8-0.6,2.2-1,4-1
		h8c1.9,0,3.2,0.3,4,1c0.8,0.6,1.5,2,1.9,3.9l15.8,67l17.3-67c0.6-2,1.3-3.3,2-3.9c0.8-0.6,2.1-1,3.9-1h9.3c1.6,0,2.5,0.8,2.5,2.5
		c0,0.5-0.1,1-0.2,1.6c-0.1,0.6-0.3,1.4-0.7,2.5l-24.1,77.3c-0.6,2-1.3,3.3-2.1,3.9c-0.8,0.6-2.1,1-3.8,1h-8.6c-1.9,0-3.2-0.3-4-1
		c-0.8-0.7-1.5-2-1.9-4L156,23l-15.4,64.4c-0.5,2-1.1,3.3-1.9,4c-0.8,0.7-2.2,1-4,1H126.1z M254.6,95.1c-5.2,0-10.4-0.6-15.4-1.8
		c-5-1.2-8.9-2.5-11.5-4c-1.6-0.9-2.7-1.9-3.1-2.8c-0.4-0.9-0.6-1.9-0.6-2.8v-5.1c0-2.1,0.8-3.1,2.3-3.1c0.6,0,1.2,0.1,1.8,0.3
		c0.6,0.2,1.5,0.6,2.5,1c3.4,1.5,7.1,2.7,11,3.5c4,0.8,7.9,1.2,11.9,1.2c6.3,0,11.2-1.1,14.6-3.3c3.4-2.2,5.2-5.4,5.2-9.5
		c0-2.8-0.9-5.1-2.7-7c-1.8-1.9-5.2-3.6-10.1-5.2L246,52c-7.3-2.3-12.7-5.7-16-10.2c-3.3-4.4-5-9.3-5-14.5c0-4.2,0.9-7.9,2.7-11.1
		c1.8-3.2,4.2-6,7.2-8.2c3-2.3,6.4-4,10.4-5.2c4-1.2,8.2-1.7,12.6-1.7c2.2,0,4.5,0.1,6.7,0.4c2.3,0.3,4.4,0.7,6.5,1.1
		c2,0.5,3.9,1,5.7,1.6c1.8,0.6,3.2,1.2,4.2,1.8c1.4,0.8,2.4,1.6,3,2.5c0.6,0.8,0.9,1.9,0.9,3.3v4.7c0,2.1-0.8,3.2-2.3,3.2
		c-0.8,0-2.1-0.4-3.8-1.2c-5.7-2.6-12.1-3.9-19.2-3.9c-5.7,0-10.2,0.9-13.3,2.8c-3.1,1.9-4.7,4.8-4.7,8.9c0,2.8,1,5.2,3,7.1
		c2,1.9,5.7,3.8,11,5.5l14.2,4.5c7.2,2.3,12.4,5.5,15.5,9.6c3.1,4.1,4.6,8.8,4.6,14c0,4.3-0.9,8.2-2.6,11.6
		c-1.8,3.4-4.2,6.4-7.3,8.8c-3.1,2.5-6.8,4.3-11.1,5.6C264.4,94.4,259.7,95.1,254.6,95.1z"/>
	<g>
		<path class="st1" d="M273.5,143.7c-32.9,24.3-80.7,37.2-121.8,37.2c-57.6,0-109.5-21.3-148.7-56.7c-3.1-2.8-0.3-6.6,3.4-4.4
			c42.4,24.6,94.7,39.5,148.8,39.5c36.5,0,76.6-7.6,113.5-23.2C274.2,133.6,278.9,139.7,273.5,143.7z"/>
		<path class="st1" d="M287.2,128.1c-4.2-5.4-27.8-2.6-38.5-1.3c-3.2,0.4-3.7-2.4-0.8-4.5c18.8-13.2,49.7-9.4,53.3-5
			c3.6,4.5-1,35.4-18.6,50.2c-2.7,2.3-5.3,1.1-4.1-1.9C282.5,155.7,291.4,133.4,287.2,128.1z"/>
	</g>
</g>

</symbol>
<symbol id="azure" viewBox="0 0 96 96">

    <defs>
        <linearGradient id="e399c19f-b68f-429d-b176-18c2117ff73c" x1="-1032.172" x2="-1059.213" y1="145.312" y2="65.426" gradientTransform="matrix(1 0 0 -1 1075 158)" gradientUnits="userSpaceOnUse">
            <stop offset="0" stop-color="#114a8b"/>
            <stop offset="1" stop-color="#0669bc"/>
        </linearGradient>
        <linearGradient id="ac2a6fc2-ca48-4327-9a3c-d4dcc3256e15" x1="-1023.725" x2="-1029.98" y1="108.083" y2="105.968" gradientTransform="matrix(1 0 0 -1 1075 158)" gradientUnits="userSpaceOnUse">
            <stop offset="0" stop-opacity=".3"/>
            <stop offset=".071" stop-opacity=".2"/>
            <stop offset=".321" stop-opacity=".1"/>
            <stop offset=".623" stop-opacity=".05"/>
            <stop offset="1" stop-opacity="0"/>
        </linearGradient>
        <linearGradient id="a7fee970-a784-4bb1-af8d-63d18e5f7db9" x1="-1027.165" x2="-997.482" y1="147.642" y2="68.561" gradientTransform="matrix(1 0 0 -1 1075 158)" gradientUnits="userSpaceOnUse">
            <stop offset="0" stop-color="#3ccbf4"/>
            <stop offset="1" stop-color="#2892df"/>
        </linearGradient>
    </defs>
    <path fill="url(#e399c19f-b68f-429d-b176-18c2117ff73c)" d="M33.338 6.544h26.038l-27.03 80.087a4.152 4.152 0 0 1-3.933 2.824H8.149a4.145 4.145 0 0 1-3.928-5.47L29.404 9.368a4.152 4.152 0 0 1 3.934-2.825z"/>
    <path fill="#0078d4" d="M71.175 60.261h-41.29a1.911 1.911 0 0 0-1.305 3.309l26.532 24.764a4.171 4.171 0 0 0 2.846 1.121h23.38z"/>
    <path fill="url(#ac2a6fc2-ca48-4327-9a3c-d4dcc3256e15)" d="M33.338 6.544a4.118 4.118 0 0 0-3.943 2.879L4.252 83.917a4.14 4.14 0 0 0 3.908 5.538h20.787a4.443 4.443 0 0 0 3.41-2.9l5.014-14.777 17.91 16.705a4.237 4.237 0 0 0 2.666.972H81.24L71.024 60.261l-29.781.007L59.47 6.544z"/>
    <path fill="url(#a7fee970-a784-4bb1-af8d-63d18e5f7db9)" d="M66.595 9.364a4.145 4.145 0 0 0-3.928-2.82H33.648a4.146 4.146 0 0 1 3.928 2.82l25.184 74.62a4.146 4.146 0 0 1-3.928 5.472h29.02a4.146 4.146 0 0 0 3.927-5.472z"/>

</symbol>
<symbol id="docker" viewBox="0 0 32 32">
<defs><clipPath id="A"><path d="M76 2v46H54v23H35.58l-.206 2c-1.15 12.53 1.036 24.088 6.063 33.97l1.688 3.03c1 1.817 2.2 3.523 3.438 5.188s1.686 2.583 2.47 3.688C62.32 133.8 82.13 141 105 141c50.648 0 93.633-22.438 112.656-72.844C231.153 69.54 244.1 66.08 250 54.563c-9.4-5.424-21.478-3.685-28.437-.187L240 2l-72 46h-23V2z"/></clipPath></defs><g transform="matrix(.679423 0 0 .679423 -2.086149 13.781817)"><path d="M30.305-3.553h4.222V.763h2.135a9.26 9.26 0 0 0 2.934-.492c.46-.156.974-.372 1.426-.644-.596-.778-.9-1.76-1-2.73-.122-1.317.144-3.032 1.036-4.063l.444-.513.53.425c1.332 1.07 2.452 2.565 2.65 4.27 1.603-.472 3.486-.36 4.9.456l.58.335-.305.596c-1.187 2.33-3.687 3.053-6.13 2.925-3.656 9.105-11.615 13.416-21.265 13.416-4.986 0-9.56-1.864-12.164-6.287-.153-.275-.283-.562-.422-.844-.88-1.947-1.173-4.08-.975-6.2l.06-.638h3.6V-3.55h4.222v-4.222h8.445v-4.222h5.067v8.445" fill="#394d54"/><g transform="matrix(.184659 0 0 .184659 3.070472 -11.997864)" clip-path="url(#A)"><g id="B"><g id="C" transform="translate(0 -22.866)"><path d="M123.86 3.8h19.818v19.817H123.86z" fill="#00acd3"/><path d="M123.86 26.676h19.818v19.818H123.86z" fill="#20c2ef"/><path id="D" d="M126.292 21.977V5.46m2.972 16.516V5.46m3.002 16.516V5.46m3.003 16.516V5.46m3.003 16.516V5.46m2.97 16.516V5.46" stroke="#394d54" stroke-width="1.56"/><use xlink:href="#D" y="22.866"/></g><use xlink:href="#C" transform="matrix(1 0 0 -1 22.866 4.572651)"/></g><use xlink:href="#B" x="-91.464" y="45.732"/><use xlink:href="#B" x="-45.732" y="45.732"/><use xlink:href="#B" y="45.732"/><path d="M221.57 54.38c1.533-11.915-7.384-21.275-12.914-25.718-6.373 7.368-7.363 26.678 2.635 34.807-5.58 4.956-17.337 9.448-29.376 9.448H34C32.83 85.484 34 146 34 146h217l-.987-91.424c-9.4-5.424-21.484-3.694-28.443-.197" fill="#17b5eb"/><path d="M34 89v57h217V89" fill-opacity=".17"/><path d="M111.237 140.9c-13.54-6.425-20.972-15.16-25.107-24.694L45 118l21 28 45.237-5.1" fill="#d4edf1"/><path d="M222.5 53.938v.03c-20.86 26.9-50.783 50.38-82.906 62.72-28.655 11.008-53.638 11.06-70.875 2.22-1.856-1.048-3.676-2.212-5.5-3.312-12.637-8.832-19.754-23.44-19.156-42.687H34V146h217V50h-25z" fill-opacity=".085"/></g><path d="M11.496 9.613c2.616.143 5.407.17 7.842-.594" fill="none" stroke="#394d54" stroke-width=".628" stroke-linecap="round"/><path d="M21.937 7.753a1.01 1.01 0 0 1-1.009 1.009 1.01 1.01 0 0 1-1.01-1.009 1.01 1.01 0 0 1 1.01-1.01 1.01 1.01 0 0 1 1.009 1.01z" fill="#d4edf1"/><path d="M21.2 7.08c-.088.05-.148.146-.148.256 0 .163.132.295.295.295.112 0 .2-.062.26-.154a.73.73 0 0 1 .055.277c0 .4-.324.723-.723.723s-.723-.324-.723-.723.324-.723.723-.723a.72.72 0 0 1 .262.049zM3.07 4.65h46.964c-1.023-.26-3.235-.6-2.87-1.95-1.86 2.152-6.344 1.5-7.475.448-1.26 1.828-8.597 1.133-9.108-.3-1.58 1.854-6.475 1.854-8.055 0-.512 1.424-7.848 2.12-9.1.3C12.284 4.2 7.8 4.853 5.94 2.7c.365 1.34-1.848 1.7-2.87 1.95" fill="#394d54"/></g>
</symbol>
<symbol id="expressjs" viewBox="0 0 24 24">
<title>Express</title><path d="M24 18.588a1.529 1.529 0 01-1.895-.72l-3.45-4.771-.5-.667-4.003 5.444a1.466 1.466 0 01-1.802.708l5.158-6.92-4.798-6.251a1.595 1.595 0 011.9.666l3.576 4.83 3.596-4.81a1.435 1.435 0 011.788-.668L21.708 7.9l-2.522 3.283a.666.666 0 000 .994l4.804 6.412zM.002 11.576l.42-2.075c1.154-4.103 5.858-5.81 9.094-3.27 1.895 1.489 2.368 3.597 2.275 5.973H1.116C.943 16.447 4.005 19.009 7.92 17.7a4.078 4.078 0 002.582-2.876c.207-.666.548-.78 1.174-.588a5.417 5.417 0 01-2.589 3.957 6.272 6.272 0 01-7.306-.933 6.575 6.575 0 01-1.64-3.858c0-.235-.08-.455-.134-.666A88.33 88.33 0 010 11.577zm1.127-.286h9.654c-.06-3.076-2.001-5.258-4.59-5.278-2.882-.04-4.944 2.094-5.071 5.264z"/>
</symbol>
<symbol id="flutter" viewBox="0 0 24 24">
<title>Flutter</title><path d="M14.314 0L2.3 12 6 15.7 21.684.013h-7.357zm.014 11.072L7.857 17.53l6.47 6.47H21.7l-6.46-6.468 6.46-6.46h-7.37z"/>
</symbol>
<symbol id="git" viewBox="0 0 32 32">
<path d="M31.396 14.575L17.425.604a2.06 2.06 0 0 0-2.914 0l-2.9 2.9 3.68 3.68c.856-.3 1.836-.095 2.518.587a2.45 2.45 0 0 1 .581 2.533l3.547 3.547c.858-.296 1.848-.105 2.533.582a2.45 2.45 0 1 1-3.469 3.468c-.72-.72-.898-1.78-.534-2.667l-3.308-3.308v8.705a2.5 2.5 0 0 1 .65.464 2.45 2.45 0 1 1-3.468 3.468 2.45 2.45 0 0 1 0-3.468c.237-.236.5-.415.803-.535v-8.786c-.292-.12-.566-.297-.803-.535a2.45 2.45 0 0 1-.528-2.681l-3.63-3.628-9.58 9.57a2.06 2.06 0 0 0 0 2.915l13.972 13.97a2.06 2.06 0 0 0 2.914 0L31.396 17.5a2.06 2.06 0 0 0 0-2.915" fill="#f03c2e"/>
</symbol>
<symbol id="grpc" viewBox="0 0 24 24">
<path d="M27.125 36.16v12.46c0 2.593.44 4.847 1.323 6.762s2.044 3.506 3.485 4.773 3.06 2.225 4.853 2.873S40.39 64 42.212 64s3.632-.324 5.426-.972 3.412-1.606 4.853-2.873 2.603-2.858 3.485-4.773 1.323-4.17 1.323-6.762V27.86l-16.126-.025-.02 8.325H48.3v12.46c0 2.18-.603 3.786-1.8 4.818s-2.632 1.547-4.28 1.547-3.073-.516-4.28-1.547-1.8-2.637-1.8-4.818V15.38c0-2.18.603-3.786 1.8-4.818s2.632-1.547 4.28-1.547 3.073.516 4.28 1.547 1.8 2.638 1.8 4.818v3.182h9V15.38c0-2.534-.44-4.773-1.323-6.718s-2.044-3.55-3.485-4.818S49.432 1.62 47.64.97 44.035 0 42.212 0s-3.632.324-5.426.972-3.412 1.606-4.853 2.873-2.603 2.873-3.485 4.818-1.323 4.184-1.323 6.718v12.46h-9.207v-9.28h2.824l-7.02-9.92-7.02 9.92h2.92V32c0 2.298 1.857 4.16 4.15 4.16h13.355z" fill="#2da6b0" fill-rule="evenodd"/>
</symbol>
<symbol id="microservices" viewBox="0 0 24 24">

  <rect x="2" y="2" width="8" height="8" rx="2" ry="2"></rect>
  <rect x="14" y="2" width="8" height="8" rx="2" ry="2"></rect>
  <rect x="2" y="14" width="8" height="8" rx="2" ry="2"></rect>
  <rect x="14" y="14" width="8" height="8" rx="2" ry="2"></rect>
  <line x1="6" y1="10" x2="6" y2="14"></line>
  <line x1="18" y1="10" x2="18" y2="14"></line>
  <line x1="10" y1="6" x2="14" y2="6"></line>
  <line x1="10" y1="18" x2="14" y2="18"></line>

</symbol>
<symbol id="mongodb" viewBox="0 0 24 24">
<title>MongoDB</title><path d="M17.193 9.555c-1.264-5.58-4.252-7.414-4.573-8.115-.28-.394-.53-.954-.735-1.44-.036.495-.055.685-.523 1.184-.723.566-4.438 3.682-4.74 10.02-.282 5.912 4.27 9.435 4.888 9.884l.07.05A73.49 73.49 0 0111.91 24h.481c.114-1.032.284-2.056.51-3.07.417-.296.604-.463.85-.693a11.342 11.342 0 003.639-8.464c.01-.814-.103-1.662-.197-2.218zm-5.336 8.195s0-8.291.275-8.29c.213 0 .49 10.695.49 10.695-.381-.045-.765-1.76-.765-2.405z"/>
</symbol>
<symbol id="mysql" viewBox="0 0 24 24">
<title>MySQL</title><path d="M16.405 5.501c-.115 0-.193.014-.274.033v.013h.014c.054.104.146.18.214.273.054.107.1.214.154.32l.014-.015c.094-.066.14-.172.14-.333-.04-.047-.046-.094-.08-.14-.04-.067-.126-.1-.18-.153zM5.77 18.695h-.927a50.854 50.854 0 00-.27-4.41h-.008l-1.41 4.41H2.45l-1.4-4.41h-.01a72.892 72.892 0 00-.195 4.41H0c.055-1.966.192-3.81.41-5.53h1.15l1.335 4.064h.008l1.347-4.064h1.095c.242 2.015.384 3.86.428 5.53zm4.017-4.08c-.378 2.045-.876 3.533-1.492 4.46-.482.716-1.01 1.073-1.583 1.073-.153 0-.34-.046-.566-.138v-.494c.11.017.24.026.386.026.268 0 .483-.075.647-.222.197-.18.295-.382.295-.605 0-.155-.077-.47-.23-.944L6.23 14.615h.91l.727 2.36c.164.536.233.91.205 1.123.4-1.064.678-2.227.835-3.483zm12.325 4.08h-2.63v-5.53h.885v4.85h1.745zm-3.32.135l-1.016-.5c.09-.076.177-.158.255-.25.433-.506.648-1.258.648-2.253 0-1.83-.718-2.746-2.155-2.746-.704 0-1.254.232-1.65.697-.43.508-.646 1.256-.646 2.245 0 .972.19 1.686.574 2.14.35.41.877.615 1.583.615.264 0 .506-.033.725-.098l1.325.772.36-.622zM15.5 17.588c-.225-.36-.337-.94-.337-1.736 0-1.393.424-2.09 1.27-2.09.443 0 .77.167.977.5.224.362.336.936.336 1.723 0 1.404-.424 2.108-1.27 2.108-.445 0-.77-.167-.978-.5zm-1.658-.425c0 .47-.172.856-.516 1.156-.344.3-.803.45-1.384.45-.543 0-1.064-.172-1.573-.515l.237-.476c.438.22.833.328 1.19.328.332 0 .593-.073.783-.22a.754.754 0 00.3-.615c0-.33-.23-.61-.648-.845-.388-.213-1.163-.657-1.163-.657-.422-.307-.632-.636-.632-1.177 0-.45.157-.81.47-1.085.315-.278.72-.415 1.22-.415.512 0 .98.136 1.4.41l-.213.476a2.726 2.726 0 00-1.064-.23c-.283 0-.502.068-.654.206a.685.685 0 00-.248.524c0 .328.234.61.666.85.393.215 1.187.67 1.187.67.433.305.648.63.648 1.168zm9.382-5.852c-.535-.014-.95.04-1.297.188-.1.04-.26.04-.274.167.055.053.063.14.11.214.08.134.218.313.346.407.14.11.28.216.427.31.26.16.555.255.81.416.145.094.293.213.44.313.073.05.12.14.214.172v-.02c-.046-.06-.06-.147-.105-.214-.067-.067-.134-.127-.2-.193a3.223 3.223 0 00-.695-.675c-.214-.146-.682-.35-.77-.595l-.013-.014c.146-.013.32-.066.46-.106.227-.06.435-.047.67-.106.106-.027.213-.06.32-.094v-.06c-.12-.12-.21-.283-.334-.395a8.867 8.867 0 00-1.104-.823c-.21-.134-.476-.22-.697-.334-.08-.04-.214-.06-.26-.127-.12-.146-.19-.34-.275-.514a17.69 17.69 0 01-.547-1.163c-.12-.262-.193-.523-.34-.763-.69-1.137-1.437-1.826-2.586-2.5-.247-.14-.543-.2-.856-.274-.167-.008-.334-.02-.5-.027-.11-.047-.216-.174-.31-.235-.38-.24-1.364-.76-1.644-.072-.18.434.267.862.422 1.082.115.153.26.328.34.5.047.116.06.235.107.356.106.294.207.622.347.897.073.14.153.287.247.413.054.073.146.107.167.227-.094.136-.1.334-.154.5-.24.757-.146 1.693.194 2.25.107.166.362.534.703.393.3-.12.234-.5.32-.835.02-.08.007-.133.048-.187v.015c.094.188.188.367.274.555.206.328.566.668.867.895.16.12.287.328.487.402v-.02h-.015c-.043-.058-.1-.086-.154-.133a3.445 3.445 0 01-.35-.4 8.76 8.76 0 01-.747-1.218c-.11-.21-.202-.436-.29-.643-.04-.08-.04-.2-.107-.24-.1.146-.247.273-.32.453-.127.288-.14.642-.188 1.01-.027.007-.014 0-.027.014-.214-.052-.287-.274-.367-.46-.2-.475-.233-1.238-.06-1.785.047-.14.247-.582.167-.716-.042-.127-.174-.2-.247-.303a2.478 2.478 0 01-.24-.427c-.16-.374-.24-.788-.414-1.162-.08-.173-.22-.354-.334-.513-.127-.18-.267-.307-.368-.52-.033-.073-.08-.194-.027-.274.014-.054.042-.075.094-.09.088-.072.335.022.422.062.247.1.455.194.662.334.094.066.195.193.315.226h.14c.214.047.455.014.655.073.355.114.675.28.962.46a5.953 5.953 0 012.085 2.286c.08.154.115.295.188.455.14.33.313.663.455.982.14.315.275.636.476.897.1.14.502.213.682.286.133.06.34.115.46.188.23.14.454.3.67.454.11.076.443.243.463.378z"/>
</symbol>
<symbol id="nodejs" viewBox="0 0 24 24">
<title>Node.js</title><path d="M11.998,24c-0.321,0-0.641-0.084-0.922-0.247l-2.936-1.737c-0.438-0.245-0.224-0.332-0.08-0.383 c0.585-0.203,0.703-0.25,1.328-0.604c0.065-0.037,0.151-0.023,0.218,0.017l2.256,1.339c0.082,0.045,0.197,0.045,0.272,0l8.795-5.076 c0.082-0.047,0.134-0.141,0.134-0.238V6.921c0-0.099-0.053-0.192-0.137-0.242l-8.791-5.072c-0.081-0.047-0.189-0.047-0.271,0 L3.075,6.68C2.99,6.729,2.936,6.825,2.936,6.921v10.15c0,0.097,0.054,0.189,0.139,0.235l2.409,1.392 c1.307,0.654,2.108-0.116,2.108-0.89V7.787c0-0.142,0.114-0.253,0.256-0.253h1.115c0.139,0,0.255,0.112,0.255,0.253v10.021 c0,1.745-0.95,2.745-2.604,2.745c-0.508,0-0.909,0-2.026-0.551L2.28,18.675c-0.57-0.329-0.922-0.945-0.922-1.604V6.921 c0-0.659,0.353-1.275,0.922-1.603l8.795-5.082c0.557-0.315,1.296-0.315,1.848,0l8.794,5.082c0.57,0.329,0.924,0.944,0.924,1.603 v10.15c0,0.659-0.354,1.273-0.924,1.604l-8.794,5.078C12.643,23.916,12.324,24,11.998,24z M19.099,13.993 c0-1.9-1.284-2.406-3.987-2.763c-2.731-0.361-3.009-0.548-3.009-1.187c0-0.528,0.235-1.233,2.258-1.233 c1.807,0,2.473,0.389,2.747,1.607c0.024,0.115,0.129,0.199,0.247,0.199h1.141c0.071,0,0.138-0.031,0.186-0.081 c0.048-0.054,0.074-0.123,0.067-0.196c-0.177-2.098-1.571-3.076-4.388-3.076c-2.508,0-4.004,1.058-4.004,2.833 c0,1.925,1.488,2.457,3.895,2.695c2.88,0.282,3.103,0.703,3.103,1.269c0,0.983-0.789,1.402-2.642,1.402 c-2.327,0-2.839-0.584-3.011-1.742c-0.02-0.124-0.126-0.215-0.253-0.215h-1.137c-0.141,0-0.254,0.112-0.254,0.253 c0,1.482,0.806,3.248,4.655,3.248C17.501,17.007,19.099,15.91,19.099,13.993z"/>
</symbol>
<symbol id="oracle" viewBox="0 0 24 24">
<path d='M99.61,19.52h15.24l-8.05-13L92,30H85.27l18-28.17a4.29,4.29,0,0,1,7-.05L128.32,30h-6.73l-3.17-5.25H103l-3.36-5.23m69.93,5.23V0.28h-5.72V27.16a2.76,2.76,0,0,0,.85,2,2.89,2.89,0,0,0,2.08.87h26l3.39-5.25H169.54M75,20.38A10,10,0,0,0,75,.28H50V30h5.71V5.54H74.65a4.81,4.81,0,0,1,0,9.62H58.54L75.6,30h8.29L72.43,20.38H75M14.88,30H32.15a14.86,14.86,0,0,0,0-29.71H14.88a14.86,14.86,0,1,0,0,29.71m16.88-5.23H15.26a9.62,9.62,0,0,1,0-19.23h16.5a9.62,9.62,0,1,1,0,19.23M140.25,30h17.63l3.34-5.23H140.64a9.62,9.62,0,1,1,0-19.23h16.75l3.38-5.25H140.25a14.86,14.86,0,1,0,0,29.71m69.87-5.23a9.62,9.62,0,0,1-9.26-7h24.42l3.36-5.24H200.86a9.61,9.61,0,0,1,9.26-7h16.76l3.35-5.25h-20.5a14.86,14.86,0,0,0,0,29.71h17.63l3.35-5.23h-20.6' transform='translate(-0.02 0)' style='fill:#C74634'/>
</symbol>
<symbol id="postgres" viewBox="0 0 432.071 445.383">

<g id="orginal" style="fill-rule:nonzero;clip-rule:nonzero;stroke:#000000;stroke-miterlimit:4;">
	</g>
<g id="Layer_x0020_3" style="fill-rule:nonzero;clip-rule:nonzero;fill:none;stroke:#FFFFFF;stroke-width:12.4651;stroke-linecap:round;stroke-linejoin:round;stroke-miterlimit:4;">
<path style="fill:#000000;stroke:#000000;stroke-width:37.3953;stroke-linecap:butt;stroke-linejoin:miter;" d="M323.205,324.227c2.833-23.601,1.984-27.062,19.563-23.239l4.463,0.392c13.517,0.615,31.199-2.174,41.587-7c22.362-10.376,35.622-27.7,13.572-23.148c-50.297,10.376-53.755-6.655-53.755-6.655c53.111-78.803,75.313-178.836,56.149-203.322    C352.514-5.534,262.036,26.049,260.522,26.869l-0.482,0.089c-9.938-2.062-21.06-3.294-33.554-3.496c-22.761-0.374-40.032,5.967-53.133,15.904c0,0-161.408-66.498-153.899,83.628c1.597,31.936,45.777,241.655,98.47,178.31    c19.259-23.163,37.871-42.748,37.871-42.748c9.242,6.14,20.307,9.272,31.912,8.147l0.897-0.765c-0.281,2.876-0.157,5.689,0.359,9.019c-13.572,15.167-9.584,17.83-36.723,23.416c-27.457,5.659-11.326,15.734-0.797,18.367c12.768,3.193,42.305,7.716,62.268-20.224    l-0.795,3.188c5.325,4.26,4.965,30.619,5.72,49.452c0.756,18.834,2.017,36.409,5.856,46.771c3.839,10.36,8.369,37.05,44.036,29.406c29.809-6.388,52.6-15.582,54.677-101.107"/>
<path style="fill:#336791;stroke:none;" d="M402.395,271.23c-50.302,10.376-53.76-6.655-53.76-6.655c53.111-78.808,75.313-178.843,56.153-203.326c-52.27-66.785-142.752-35.2-144.262-34.38l-0.486,0.087c-9.938-2.063-21.06-3.292-33.56-3.496c-22.761-0.373-40.026,5.967-53.127,15.902    c0,0-161.411-66.495-153.904,83.63c1.597,31.938,45.776,241.657,98.471,178.312c19.26-23.163,37.869-42.748,37.869-42.748c9.243,6.14,20.308,9.272,31.908,8.147l0.901-0.765c-0.28,2.876-0.152,5.689,0.361,9.019c-13.575,15.167-9.586,17.83-36.723,23.416    c-27.459,5.659-11.328,15.734-0.796,18.367c12.768,3.193,42.307,7.716,62.266-20.224l-0.796,3.188c5.319,4.26,9.054,27.711,8.428,48.969c-0.626,21.259-1.044,35.854,3.147,47.254c4.191,11.4,8.368,37.05,44.042,29.406c29.809-6.388,45.256-22.942,47.405-50.555    c1.525-19.631,4.976-16.729,5.194-34.28l2.768-8.309c3.192-26.611,0.507-35.196,18.872-31.203l4.463,0.392c13.517,0.615,31.208-2.174,41.591-7c22.358-10.376,35.618-27.7,13.573-23.148z"/>
<path d="M215.866,286.484c-1.385,49.516,0.348,99.377,5.193,111.495c4.848,12.118,15.223,35.688,50.9,28.045c29.806-6.39,40.651-18.756,45.357-46.051c3.466-20.082,10.148-75.854,11.005-87.281"/>
<path d="M173.104,38.256c0,0-161.521-66.016-154.012,84.109c1.597,31.938,45.779,241.664,98.473,178.316c19.256-23.166,36.671-41.335,36.671-41.335"/>
<path d="M260.349,26.207c-5.591,1.753,89.848-34.889,144.087,34.417c19.159,24.484-3.043,124.519-56.153,203.329"/>
<path style="stroke-linejoin:bevel;" d="M348.282,263.953c0,0,3.461,17.036,53.764,6.653c22.04-4.552,8.776,12.774-13.577,23.155c-18.345,8.514-59.474,10.696-60.146-1.069c-1.729-30.355,21.647-21.133,19.96-28.739c-1.525-6.85-11.979-13.573-18.894-30.338    c-6.037-14.633-82.796-126.849,21.287-110.183c3.813-0.789-27.146-99.002-124.553-100.599c-97.385-1.597-94.19,119.762-94.19,119.762"/>
<path d="M188.604,274.334c-13.577,15.166-9.584,17.829-36.723,23.417c-27.459,5.66-11.326,15.733-0.797,18.365c12.768,3.195,42.307,7.718,62.266-20.229c6.078-8.509-0.036-22.086-8.385-25.547c-4.034-1.671-9.428-3.765-16.361,3.994z"/>
<path d="M187.715,274.069c-1.368-8.917,2.93-19.528,7.536-31.942c6.922-18.626,22.893-37.255,10.117-96.339c-9.523-44.029-73.396-9.163-73.436-3.193c-0.039,5.968,2.889,30.26-1.067,58.548c-5.162,36.913,23.488,68.132,56.479,64.938"/>
<path style="fill:#FFFFFF;stroke-width:4.155;stroke-linecap:butt;stroke-linejoin:miter;" d="M172.517,141.7c-0.288,2.039,3.733,7.48,8.976,8.207c5.234,0.73,9.714-3.522,9.998-5.559c0.284-2.039-3.732-4.285-8.977-5.015c-5.237-0.731-9.719,0.333-9.996,2.367z"/>
<path style="fill:#FFFFFF;stroke-width:2.0775;stroke-linecap:butt;stroke-linejoin:miter;" d="M331.941,137.543c0.284,2.039-3.732,7.48-8.976,8.207c-5.238,0.73-9.718-3.522-10.005-5.559c-0.277-2.039,3.74-4.285,8.979-5.015c5.239-0.73,9.718,0.333,10.002,2.368z"/>
<path d="M350.676,123.432c0.863,15.994-3.445,26.888-3.988,43.914c-0.804,24.748,11.799,53.074-7.191,81.435"/>
<path style="stroke-width:3;" d="M0,60.232"/>
</g>

</symbol>
<symbol id="primeng" viewBox="0 0 24 24">

    <path fill="#DD0031" d="M12 2L2 7v6c0 5.5 3.8 10.7 10 12 6.2-1.3 10-6.5 10-12V7l-10-5zm0 2l8 4v5c0 4.5-3.1 8.8-8 10-4.9-1.2-8-5.5-8-10V8l8-4z"/>
    <text x="50%" y="50%" dominant-baseline="middle" text-anchor="middle" font-family="Arial" font-size="8" fill="#DD0031">P</text>

</symbol>
<symbol id="react" viewBox="-11.5 -10.23174 23 20.46348">

  <title>React Logo</title>
  <circle cx="0" cy="0" r="2.05" fill="#61dafb"/>
  <g stroke="#61dafb" stroke-width="1" fill="none">
    <ellipse rx="11" ry="4.2"/>
    <ellipse rx="11" ry="4.2" transform="rotate(60)"/>
    <ellipse rx="11" ry="4.2" transform="rotate(120)"/>
  </g>

</symbol>
<symbol id="rest-api" viewBox="0 0 24 24">
<title>Swagger</title><path d="M12 0C5.383 0 0 5.383 0 12s5.383 12 12 12c6.616 0 12-5.383 12-12S18.616 0 12 0zm0 1.144c5.995 0 10.856 4.86 10.856 10.856 0 5.995-4.86 10.856-10.856 10.856-5.996 0-10.856-4.86-10.856-10.856C1.144 6.004 6.004 1.144 12 1.144zM8.37 5.868a6.707 6.707 0 0 0-.423.005c-.983.056-1.573.517-1.735 1.472-.115.665-.096 1.348-.143 2.017-.013.35-.05.697-.115 1.038-.134.609-.397.798-1.016.83a2.65 2.65 0 0 0-.244.042v1.463c1.126.055 1.278.452 1.37 1.629.033.429-.013.858.015 1.287.018.406.073.808.156 1.2.259 1.075 1.307 1.435 2.575 1.218v-1.283c-.203 0-.383.005-.558 0-.43-.013-.591-.12-.632-.535-.056-.535-.042-1.08-.075-1.62-.064-1.001-.175-1.988-1.153-2.625.503-.37.868-.812.983-1.398.083-.41.134-.821.166-1.237.028-.415-.023-.84.014-1.25.06-.665.102-.937.9-.91.12 0 .235-.017.369-.027v-1.31c-.16 0-.31-.004-.454-.006zm7.593.009a4.247 4.247 0 0 0-.813.06v1.274c.245 0 .434 0 .623.005.328.004.577.13.61.494.032.332.031.669.064 1.006.065.669.101 1.347.217 2.007.102.544.475.95.941 1.283-.817.549-1.057 1.333-1.098 2.215-.023.604-.037 1.213-.069 1.822-.028.554-.222.734-.78.748-.157.004-.31.018-.484.028v1.305c.327 0 .627.019.927 0 .932-.055 1.495-.507 1.68-1.412.078-.498.124-1 .138-1.504.032-.461.028-.927.074-1.384.069-.715.397-1.01 1.112-1.057a.972.972 0 0 0 .199-.046v-1.463c-.12-.014-.204-.027-.291-.032-.536-.023-.804-.203-.937-.71a5.146 5.146 0 0 1-.152-.993c-.037-.618-.033-1.241-.074-1.86-.08-1.192-.794-1.753-1.887-1.786zm-6.89 5.28a.844.844 0 0 0-.083 1.684h.055a.83.83 0 0 0 .877-.78v-.046a.845.845 0 0 0-.83-.858zm2.911 0a.808.808 0 0 0-.834.78c0 .027 0 .05.004.078 0 .503.342.826.859.826.507 0 .826-.332.826-.853-.005-.503-.342-.836-.855-.831zm2.963 0a.861.861 0 0 0-.876.835c0 .47.378.849.849.849h.009c.425.074.853-.337.881-.83.023-.457-.392-.854-.863-.854z"/>
</symbol>
<symbol id="semantic-ui" viewBox="0 0 24 24">
<title>Semantic UI React</title><path d="M11.857 23.995C4.52 23.9-.237 17.431.012 11.775-.004 6.167 4.646.066 12.111 0c6.254.027 11.978 5.271 11.885 12.202-.072 6.813-5.84 11.973-12.14 11.793zm.175-4.92c.988.93 3.497 3.166 5.362 1.957 1.434-.93 1.157-3.975.75-5.5 1.597-.365 4.44-1.76 4.37-3.506-.078-2-2.615-3.057-4.408-3.545.347-1.495.913-4.317-.745-5.527-1.637-1.195-4.302.88-5.354 1.969-1.025-.879-3.361-3.096-5.22-2.046-1.46.824-1.513 3.087-.875 5.598-1.441.34-4.459 1.532-4.42 3.546.04 2.183 3.342 3.175 4.397 3.553-.495 1.639-.768 4.596.884 5.55 1.88 1.085 4.39-1.292 5.26-2.048zm-5.244-3.321c.126.039.216.054.362.113.035-.362.268-.685.486-.875-.221-.005-.544-.066-.615-.113.172-.562.439-1.357.657-1.782.25.375.393.674.6 1.1a3.35 3.35 0 0 1 .66-.68c-.645-1.294-1.514-2.837-1.896-4.38.227-.112.426-.116.618-.15.053-.324.162-.638.288-.95-.378-.003-.764.097-1.15.19-.525-1.693-.604-4.156.511-4.624 1.354-.48 3.525 1.331 4.052 2.013l-.337.351c.668-.123 1.305-.107 1.988.013a2.52 2.52 0 0 0-.358-.382c1.172-1.273 3.307-2.653 4.306-1.81.906.852.681 2.98.286 4.456-.466-.083-.72-.138-1.065-.194-.097.51-.163.523-.366.83.317.035.617.065 1.188.234-.19.624-.387 1.202-.662 1.776-.273-.415-.473-.829-.932-1.55l-.565.74c.725 1.284 1.45 2.526 2.143 4.79-.196.114-.309.103-.604.165a4.16 4.16 0 0 1-.333.96c.451-.087.794-.142 1.182-.233.4 1.242.676 3.872-.423 4.554-1.172.677-3.229-.943-4.141-1.918.086-.13.11-.172.26-.274-.594.062-1.29.082-1.779.044.13.108.169.163.207.245-1.43 1.496-3.372 2.559-4.275 1.822-.887-.724-.77-2.846-.293-4.481zm6.072 1.5c2.67-.512 3.576-3.241 2.114-4.976-.405-.48-1.479-1.024-2.257-1.275-1.523-.49-2.556-1.136-1.716-1.962.826-.81 2.851.083 3.182.503l1.155-1.49c-1.161-1.105-2.702-1.52-4.337-1.222C9.54 7.1 8.488 8.336 8.418 9.308c-.155 2.168.875 2.764 2.821 3.598 1.592.682 2.139.913 2.051 1.487-.246 1.618-2.867.959-3.977-.09l-1.361 1.58c1.696 1.405 3.33 1.653 4.908 1.371zM2.404 12.055c-.097-1.216 2.43-2.463 3.731-2.682.318.892.625 1.788 1.031 2.608-.412.86-.737 1.764-1.042 2.679-1.08-.236-3.616-1.31-3.72-2.605zm14.455-.082c.452-1.08.812-2.016 1.013-2.64 1.2.252 3.78 1.37 3.724 2.668-.061 1.442-2.362 2.165-3.703 2.669a29.043 29.043 0 0 0-1.034-2.697z"/>
</symbol>
<symbol id="spring" viewBox="0 0 245.09332 62.986668">
<metadata
     id="metadata35"><rdf:RDF><cc:Work
         rdf:about=""><dc:format>image/svg+xml</dc:format><dc:type
           rdf:resource="http://purl.org/dc/dcmitype/StillImage" /><dc:title></dc:title></cc:Work></rdf:RDF></metadata><defs
     id="defs33" /><sodipodi:namedview
     pagecolor="#ffffff"
     bordercolor="#666666"
     borderopacity="1"
     objecttolerance="10"
     gridtolerance="10"
     guidetolerance="10"
     inkscape:pageopacity="0"
     inkscape:pageshadow="2"
     inkscape:window-width="1853"
     inkscape:window-height="1025"
     id="namedview31"
     showgrid="false"
     inkscape:zoom="6.8626921"
     inkscape:cx="122.54666"
     inkscape:cy="31.493334"
     inkscape:window-x="67"
     inkscape:window-y="27"
     inkscape:window-maximized="1"
     inkscape:current-layer="g37" /><g
     id="g37"
     inkscape:groupmode="layer"
     inkscape:label="ink_ext_XXXXXX"
     transform="matrix(1.3333333,0,0,-1.3333333,0,62.986667)"><g
       id="g39"
       transform="scale(0.1)"><path
         d="m 605.484,143.859 c -5.636,3.043 -9.972,9.559 -9.972,18.243 0,11.707 9.105,21.199 21.289,21.199 4.316,0 8.238,-1.27 11.254,-3.008 22.16,-14.766 45.164,-22.148 65.965,-22.148 22.562,0 35.578,9.558 35.578,24.765 v 0.86 c 0,17.793 -24.285,23.859 -51.211,32.097 -33.828,9.555 -71.582,23.426 -71.582,67.262 v 0.879 c 0,43.402 36.015,69.863 81.582,69.863 24.308,0 49.898,-6.953 72.031,-18.652 7.398,-3.918 12.578,-10.864 12.578,-19.953 0,-12.164 -9.531,-21.297 -21.68,-21.297 -4.363,0 -6.964,0.871 -10.398,2.617 -18.691,9.559 -37.777,15.644 -53.828,15.644 -20.41,0 -32.129,-9.57 -32.129,-22.597 v -0.844 c 0,-16.93 24.734,-23.855 51.648,-32.551 33.414,-10.422 71.168,-25.601 71.168,-66.824 v -0.879 c 0,-48.164 -37.339,-72.004 -85.062,-72.004 -29.055,0 -60.735,9.082 -87.231,27.328"
         style="fill:#5fb832;fill-opacity:1;fill-rule:nonzero;stroke:none"
         id="path41"
         inkscape:connector-curvature="0" /><path
         d="m 981.195,234.973 v 0.879 c 0,44.242 -29.949,73.32 -65.515,73.32 -35.582,0 -66.825,-29.508 -66.825,-73.32 v -0.879 c 0,-43.828 31.243,-73.364 66.825,-73.364 36.015,0 65.515,28.227 65.515,73.364 m -183.558,92.445 c 0,14.727 11.269,26.461 26.054,26.461 14.743,0 26.461,-11.734 26.461,-26.461 v -15.645 c 16.926,23.856 40.786,42.957 78.114,42.957 53.8,0 106.314,-42.507 106.314,-118.878 v -0.879 c 0,-75.95 -52.076,-118.899 -106.314,-118.899 -38.184,0 -62.055,19.114 -78.114,40.332 V 75.3047 c 0,-14.8086 -11.718,-26.0938 -26.461,-26.0938 -14.312,0 -26.054,11.2852 -26.054,26.0938 V 327.418"
         style="fill:#5fb832;fill-opacity:1;fill-rule:nonzero;stroke:none"
         id="path43"
         inkscape:connector-curvature="0" /><path
         d="m 1054.47,327.387 c 0,14.726 11.25,26.461 26.01,26.461 14.79,0 26.49,-11.735 26.49,-26.461 v -12.625 c 2.62,19.664 34.7,39.086 57.71,39.086 16.48,0 26.04,-10.84 26.04,-26.02 0,-13.875 -9.12,-23.004 -20.84,-25.168 -37.32,-6.512 -62.91,-39.168 -62.91,-84.347 v -75.704 c 0,-14.336 -11.7,-26.046 -26.49,-26.046 -14.31,0 -26.01,11.289 -26.01,26.046 v 184.778"
         style="fill:#5fb832;fill-opacity:1;fill-rule:nonzero;stroke:none"
         id="path45"
         inkscape:connector-curvature="0" /><path
         d="m 1210.58,327.281 c 0,14.75 11.32,26.485 26.05,26.485 14.75,0 26.47,-11.735 26.47,-26.485 V 142.566 c 0,-14.734 -11.72,-26.003 -26.47,-26.003 -14.33,0 -26.05,11.269 -26.05,26.003 v 184.715"
         style="fill:#5fb832;fill-opacity:1;fill-rule:nonzero;stroke:none"
         id="path47"
         inkscape:connector-curvature="0" /><path
         d="m 1289.57,327.18 c 0,14.75 11.29,26.457 26.02,26.457 14.77,0 26.48,-11.707 26.48,-26.457 v -10.774 c 14.78,21.27 36.01,37.364 71.59,37.364 51.64,0 81.6,-34.731 81.6,-87.665 V 142.598 c 0,-14.746 -11.3,-26.043 -26.05,-26.043 -14.75,0 -26.46,11.297 -26.46,26.043 v 107.445 c 0,35.566 -17.79,55.977 -49.04,55.977 -30.37,0 -51.64,-21.262 -51.64,-56.872 v -106.55 c 0,-14.746 -11.71,-26.043 -26.48,-26.043 -14.31,0 -26.02,11.297 -26.02,26.043 V 327.18"
         style="fill:#5fb832;fill-opacity:1;fill-rule:nonzero;stroke:none"
         id="path49"
         inkscape:connector-curvature="0" /><path
         d="m 1634.05,162.09 c -36.05,0 -65.53,28.215 -65.53,73.351 v 0.852 c 0,44.254 29.92,73.332 65.53,73.332 35.59,0 66.83,-29.516 66.83,-73.332 v -0.852 c 0,-43.839 -31.24,-73.351 -66.83,-73.351 M 1726,354.332 c -14.73,0 -26.45,-11.742 -26.45,-26.473 v -15.617 c -16.94,23.856 -40.78,42.946 -78.08,42.946 -53.84,0 -106.33,-42.508 -106.33,-118.895 v -0.852 c 0,-75.949 52.06,-118.886 106.33,-118.886 37.96,0 61.77,18.886 77.84,40 -2.63,-41.262 -27.89,-63.0472 -72.2,-63.0472 -26.45,0 -49.46,6.5312 -70.32,18.2692 -2.6,1.27 -5.59,2.129 -9.51,2.129 -12.15,0 -22.16,-9.992 -22.16,-21.6716 0,-9.9883 5.65,-17.3633 14.79,-20.836 27.73,-13.457 56.35,-20.4023 88.48,-20.4023 41.25,0 73.37,9.9727 94.2,30.8125 19.05,19.1094 29.47,47.7144 29.47,86.3554 v 159.695 c 0,14.731 -11.28,26.473 -26.06,26.473"
         style="fill:#5fb832;fill-opacity:1;fill-rule:nonzero;stroke:none"
         id="path51"
         inkscape:connector-curvature="0" /><path
         d="m 1263.31,416.996 c 0,-14.601 -11.86,-26.473 -26.48,-26.473 -14.63,0 -26.46,11.872 -26.46,26.473 0,14.641 11.83,26.461 26.46,26.461 14.62,0 26.48,-11.82 26.48,-26.461"
         style="fill:#5fb832;fill-opacity:1;fill-rule:nonzero;stroke:none"
         id="path53"
         inkscape:connector-curvature="0" /><path
         d="M 429.32,132.246 C 371.109,54.6875 246.762,80.8672 167.039,77.1016 c 0,0 -14.113,-0.7852 -28.328,-3.125 0,0 5.375,2.2929 12.23,4.6562 55.993,19.3633 82.454,23.2542 116.477,40.7302 63.926,32.746 127.547,104.075 140.492,178.172 C 383.578,226.27 309.574,164.934 242.191,140.027 196.07,123.008 112.664,106.445 112.652,106.438 c 0.039,-0.059 -3.324,1.746 -3.371,1.785 -56.7224,27.597 -58.3591,150.449 44.66,190.05 45.168,17.375 88.372,7.832 137.2,19.454 52.078,12.382 112.394,51.418 136.91,102.453 27.484,-81.52 60.5,-209.059 1.269,-287.934 z m 1.012,313.195 c -6.93,-16.464 -15.387,-31.3 -25.137,-44.57 -42.914,44.043 -102.812,71.484 -169.019,71.484 C 105.941,472.355 0,366.402 0,236.191 0,167.93 29.1367,106.367 75.5898,63.2148 l 5.1719,-4.582 c -8.6367,7.043 -9.9648,19.7266 -2.9648,28.3711 7.0429,8.6484 19.7383,9.9883 28.3791,2.9844 8.664,-7.0195 9.984,-19.7344 2.969,-28.3945 -6.989,-8.6641 -19.7075,-9.9727 -28.3598,-2.9805 l 3.5195,-3.1172 C 125.395,20.8984 178.363,0 236.176,0 360.66,0 462.879,96.875 471.629,219.148 c 6.48,59.868 -11.203,135.887 -41.297,226.293"
         style="fill:#5fb832;fill-opacity:1;fill-rule:nonzero;stroke:none"
         id="path55"
         inkscape:connector-curvature="0" /><path
         d="m 1813.55,337.793 h -8.25 v -10.922 h 8.25 c 2.67,0 5.59,2.156 5.59,5.332 0,3.434 -2.92,5.59 -5.59,5.59 z m 5.09,-27.039 -8.01,12.187 h -5.33 v -12.187 h -4.31 v 30.851 h 12.56 c 5.21,0 10.04,-3.691 10.04,-9.402 0,-6.851 -6.11,-9.14 -7.88,-9.14 l 8.26,-12.309 z m -7.37,38.34 c -12.7,0 -22.86,-10.156 -22.86,-22.86 0,-12.562 10.16,-22.851 22.86,-22.851 12.56,0 22.85,10.289 22.85,22.851 0,12.704 -10.29,22.86 -22.85,22.86 z m 0,-49.778 c -14.86,0 -26.92,12.067 -26.92,26.918 0,14.993 12.06,26.926 26.92,26.926 14.98,0 26.92,-11.933 26.92,-26.926 0,-14.851 -11.94,-26.918 -26.92,-26.918"
         style="fill:#5fb832;fill-opacity:1;fill-rule:nonzero;stroke:none"
         id="path57"
         inkscape:connector-curvature="0" /></g></g>
</symbol>
</svg>