<svg xmlns="http://www.w3.org/2000/svg" style="display: none;">
  <symbol id="git" viewBox="0 0 24 24">
    <path fill="currentColor" d="M23.546 10.93L13.067.452c-.6-.6-1.577-.6-2.177 0L.452 10.93c-.6.6-.6 1.577 0 2.177l10.48 10.48c.6.6 1.577.6 2.177 0l10.437-10.48c.6-.6.6-1.577 0-2.177zm-12.426 8.837c-2.203 0-3.99-1.787-3.99-3.99 0-2.203 1.787-3.99 3.99-3.99 2.203 0 3.99 1.787 3.99 3.99 0 2.203-1.787 3.99-3.99 3.99z"/>
  </symbol>
  <symbol id="jenkins" viewBox="0 0 24 24">
    <path fill="currentColor" d="M12 0C5.373 0 0 5.373 0 12s5.373 12 12 12 12-5.373 12-12S18.627 0 12 0zm0 2.25a9.75 9.75 0 1 1 0 19.5 9.75 9.75 0 0 1 0-19.5zm0 3.75a1.5 1.5 0 1 0 0 3 1.5 1.5 0 0 0 0-3zm-3 4.5a1.5 1.5 0 1 0 0 3 1.5 1.5 0 0 0 0-3zm6 0a1.5 1.5 0 1 0 0 3 1.5 1.5 0 0 0 0-3zm-3 4.5a1.5 1.5 0 1 0 0 3 1.5 1.5 0 0 0 0-3z"/>
  </symbol>
  <symbol id="postman" viewBox="0 0 24 24">
    <path fill="currentColor" d="M12 0C5.373 0 0 5.373 0 12s5.373 12 12 12 12-5.373 12-12S18.627 0 12 0zm6.75 12c0 3.728-3.022 6.75-6.75 6.75S5.25 15.728 5.25 12 8.272 5.25 12 5.25 18.75 8.272 18.75 12z"/>
  </symbol>
  <symbol id="docker" viewBox="0 0 24 24">
    <path fill="currentColor" d="M13.983 11.078h2.119a.186.186 0 00.186-.185V9.006a.186.186 0 00-.186-.186h-2.119a.185.185 0 00-.185.185v1.888c0 .102.083.185.185.185m-2.954-5.43h2.119a.186.186 0 00.186-.186V3.574a.186.186 0 00-.186-.185h-2.119a.185.185 0 00-.185.185v1.888c0 .102.083.186.185.186m-2.93 0h2.12a.186.186 0 00.184-.186V3.574a.185.185 0 00-.185-.185H8.1a.185.185 0 00-.185.185v1.888c0 .102.083.186.185.186m-2.964 0h2.119a.186.186 0 00.185-.186V3.574a.185.185 0 00-.186-.185H5.136a.186.186 0 00-.186.185v1.888c0 .102.084.186.186.186m5.893 2.715h2.119a.186.186 0 00.186-.185V6.29a.186.186 0 00-.186-.185h-2.119a.185.185 0 00-.185.185v1.888c0 .102.082.185.185.185m-2.93 0h2.12a.185.185 0 00.184-.185V6.29a.185.185 0 00-.185-.185H8.1a.185.185 0 00-.185.185v1.888c0 .102.083.185.185.185m-2.964 0h2.119a.185.185 0 00.185-.185V6.29a.185.185 0 00-.186-.185H5.136a.186.186 0 00-.186.185v1.888c0 .102.084.185.186.185m-2.929 0h2.12a.185.185 0 00.185-.185V6.29a.185.185 0 00-.185-.185H2.207a.185.185 0 00-.185.185v1.888c0 .102.082.185.185.185M1.107 8.823h2.119a.185.185 0 00.185-.185V6.75a.185.185 0 00-.185-.185H1.107a.185.185 0 00-.185.185v1.888c0 .102.082.185.185.185m0 2.715h2.119a.186.186 0 00.185-.185V9.466a.186.186 0 00-.185-.186H1.107a.185.185 0 00-.185.186v1.888c0 .102.082.185.185.185m4.463-1.37c0-2.275-1.375-4.138-3.17-4.796h-1.3v1.75c0 .102.083.185.185.185h2.12a.185.185 0 00.184-.185V6.29a.185.185 0 00-.185-.185H2.207a.185.185 0 00-.185.185v1.888c0 .102.082.185.185.185h2.119a.185.185 0 00.185-.185V6.75a.185.185 0 00-.185-.185H1.107a.185.185 0 00-.185.185v1.888c0 .102.082.185.185.185h2.119a.186.186 0 00.185-.185V9.466a.186.186 0 00-.185-.186H1.107a.185.185 0 00-.185.186v1.888c0 .102.082.185.185.185h1.55c-.205 1.634-1.293 2.974-2.78 3.58 1.408.575 2.54 1.78 3.053 3.257H24c-.13-5.89-4.882-10.644-10.773-10.773v.002z"/>
  </symbol>
  <symbol id="aws" viewBox="0 0 24 24">
    <path fill="currentColor" d="M18.766 12.688c.633.4 1.217.867 1.734 1.4.517.533.934 1.133 1.234 1.8.3.667.45 1.4.45 2.2 0 1.2-.334 2.267-1 3.2-.667.933-1.567 1.667-2.7 2.2-1.133.533-2.4.8-3.8.8-1.4 0-2.7-.267-3.9-.8-1.2-.533-2.167-1.267-2.9-2.2-.733-.933-1.1-2-1.1-3.2 0-.8.15-1.533.45-2.2.3-.667.717-1.267 1.234-1.8.517-.533 1.1-.967 1.734-1.367.633-.4 1.317-.7 2.05-.9.733-.2 1.483-.3 2.25-.3.767 0 1.517.1 2.25.3.733.2 1.417.5 2.05.9zm-6.734 8.267c.667.333 1.417.5 2.25.5.833 0 1.583-.167 2.25-.5.667-.333 1.217-.8 1.65-1.4.433-.6.65-1.3.65-2.1 0-.8-.217-1.5-.65-2.1-.433-.6-.983-1.067-1.65-1.4-.667-.333-1.417-.5-2.25-.5-.833 0-1.583.167-2.25.5-.667.333-1.217.8-1.65 1.4-.433.6-.65 1.3-.65 2.1 0 .8.217 1.5.65 2.1.433.6.983 1.067 1.65 1.4z"/>
  </symbol>
  <symbol id="aws-lightsail" viewBox="0 0 24 24">
    <path fill="currentColor" d="M12 2L2 7l10 5 10-5-10-5zm0 9l2.5-1.25L12 8.5 9.5 9.75 12 11zm0 2.5l-5-2.5-5 2.5L12 22l10-8.5-5-2.5-5 2.5z"/>
  </symbol>
  <symbol id="iam" viewBox="0 0 24 24">
    <path fill="currentColor" d="M7 14c-1.1 0-2 .9-2 2s.9 2 2 2 2-.9 2-2-.9-2-2-2zm5.6-8H21v2h-2v2h-2v-2h-2v2h-2V6h.4c1.5 0 2.8 1 3.2 2.5.4 1.5-.4 3-1.8 3.5H12c-2.2 0-4 1.8-4 4 0 1.2.5 2.3 1.4 3l-1.4 1.4c-1.3-1.1-2-2.7-2-4.4 0-3.3 2.7-6 6-6h.6z"/>
  </symbol>
  <symbol id="s3" viewBox="0 0 24 24">
    <path fill="currentColor" d="M3 6c0 1.66 4.03 3 9 3s9-1.34 9-3-4.03-3-9-3-9 1.34-9 3zm0 5c0 1.66 4.03 3 9 3s9-1.34 9-3V8.8c-1.96 1.16-5.26 1.9-9 1.9s-7.04-.74-9-1.9V11zm0 5c0 1.66 4.03 3 9 3s9-1.34 9-3v-2.2c-1.96 1.16-5.26 1.9-9 1.9s-7.04-.74-9-1.9V16z"/>
  </symbol>
  <symbol id="azure" viewBox="0 0 24 24">
    <path fill="currentColor" d="M5.4 20.5l-1.1-3 9.2-15.2h5.6l-10.4 18.2h-3.3zm7.6-10.8l-5.8 9.6 8.8-8.1-3-1.5z"/>
  </symbol>
  <symbol id="firebase" viewBox="0 0 24 24">
    <path fill="currentColor" d="M3.89 15.672L6.255 3.06a.562.562 0 011.05-.13l1.627 5.55L11.2 2.56a.562.562 0 011.07.03l6.31 12.07-8.99 5.06a1.688 1.688 0 01-1.61 0l-4.09-2.048z"/>
  </symbol>
  <symbol id="java" viewBox="0 0 24 24">
    <path fill="currentColor" d="M12 2C6.48 2 2 6.48 2 12s4.48 10 10 10 10-4.48 10-10S17.52 2 12 2zm4.64 15.16c-.5.5-1.18.78-1.9.78-1.46 0-2.64-1.18-2.64-2.64 0-.72.28-1.4.78-1.9l-1.4-1.4c-1.26 1.26-1.26 3.32 0 4.58 1.26 1.26 3.32 1.26 4.58 0l-1.4-1.4z"/>
  </symbol>
  <symbol id="spring" viewBox="0 0 24 24">
    <path fill="currentColor" d="M21.3 12.2c-1.1.4-2.2.8-3.3 1.2-1.1.4-2.2.8-3.3 1.2-1.1.4-2.2.8-3.3 1.2-1.1.4-2.2.8-3.3 1.2-1.1.4-2.2.8-3.3 1.2-1.1.4-2.2.8-3.3 1.2v-2.4c1.1-.4 2.2-.8 3.3-1.2 1.1-.4 2.2-.8 3.3-1.2 1.1-.4 2.2-.8 3.3-1.2 1.1-.4 2.2-.8 3.3-1.2 1.1-.4 2.2-.8 3.3-1.2v2.4z"/>
  </symbol>
  <symbol id="redis" viewBox="0 0 24 24">
    <path fill="currentColor" d="M5 3h14a2 2 0 0 1 2 2v14a2 2 0 0 1-2 2H5a2 2 0 0 1-2-2V5a2 2 0 0 1 2-2zm0 2v3h14V5H5zm0 5v9h14v-9H5z"/>
  </symbol>
  <symbol id="postgres" viewBox="0 0 24 24">
    <path fill="currentColor" d="M12 2C6.48 2 2 6.48 2 12s4.48 10 10 10 10-4.48 10-10S17.52 2 12 2zm-1 17.93c-3.95-.49-7-3.85-7-7.93 0-.62.08-1.21.21-1.79L9 15v1c0 1.1.9 2 2 2v1.93zm6.9-2.54c-.26-.81-1-1.39-1.9-1.39h-1v-3c0-.55-.45-1-1-1H8v-2h2c.55 0 1-.45 1-1V7h2c1.1 0 2-.9 2-2v-.41c2.93 1.19 5 4.06 5 7.41 0 2.08-.8 3.97-2.1 5.39z"/>
  </symbol>
  <symbol id="mysql" viewBox="0 0 24 24">
    <path fill="currentColor" d="M4 18h2v-2H4v2zm0-4h2v-2H4v2zm0-4h2V8H4v2zm4 8h2v-2H8v2zm0-4h2v-2H8v2zm0-4h2V8H8v2zm4 8h2v-2h-2v2zm0-4h2v-2h-2v2zm0-4h2V8h-2v2zm4 8h2v-2h-2v2zm0-4h2v-2h-2v2zm0-4h2V8h-2v2z"/>
  </symbol>
  <symbol id="figma" viewBox="0 0 24 24">
    <path fill="currentColor" d="M12 2a4 4 0 0 0-4 4 4 4 0 0 0 4 4 4 4 0 0 0 4-4 4 4 0 0 0-4-4zm0 8a4 4 0 0 0-4 4 4 4 0 0 0 4 4 4 4 0 0 0 4-4 4 4 0 0 0-4-4zm-8 0a4 4 0 0 0 4 4 4 4 0 0 0 4-4 4 4 0 0 0-4-4 4 4 0 0 0-4 4zm0 8a4 4 0 0 0 4 4v-4a4 4 0 0 0-4 4z"/>
  </symbol>
  <symbol id="angular" viewBox="0 0 24 24">
    <path fill="currentColor" d="M12 2.5L2 6l1.5 12L12 22l8.5-4L22 6l-10-3.5zm0 2.8l6.5 2.3-1 8.2-5.5 2.4-5.5-2.4-1-8.2 6.5-2.3z"/>
  </symbol>
  <symbol id="typescript" viewBox="0 0 24 24">
    <path fill="currentColor" d="M2 2h20v20H2V2zm16 14h-2v-4h-2v4h-2v-6h6v6zm-8 0H8v-4H6v4H4v-6h6v6z"/>
  </symbol>
  <symbol id="javascript" viewBox="0 0 24 24">
    <path fill="currentColor" d="M2 2h20v20H2V2zm16 14h-2v-4h-2v4h-2v-6h6v6zm-8 0H8v-4H6v4H4v-6h6v6z"/>
  </symbol>
  <symbol id="html" viewBox="0 0 24 24">
    <path fill="currentColor" d="M12 2L2 6l1.5 12L12 22l8.5-4L22 6l-10-3.5zm0 2.8l6.5 2.3-1 8.2-5.5 2.4-5.5-2.4-1-8.2 6.5-2.3z"/>
  </symbol>
  <symbol id="jsp" viewBox="0 0 24 24">
    <path fill="currentColor" d="M14 2H6c-1.1 0-1.99.9-1.99 2L4 20c0 1.1.89 2 1.99 2H18c1.1 0 2-.9 2-2V8l-6-6zm2 16H8v-2h8v2zm0-4H8v-2h8v2zm-3-5V3.5L18.5 9H13z"/>
  </symbol>
  <symbol id="css" viewBox="0 0 24 24">
    <path fill="currentColor" d="M12 2L2 6l1.5 12L12 22l8.5-4L22 6l-10-3.5zm0 2.8l6.5 2.3-1 8.2-5.5 2.4-5.5-2.4-1-8.2 6.5-2.3z"/>
  </symbol>
  <symbol id="swing" viewBox="0 0 24 24">
    <path fill="currentColor" d="M19 3H5c-1.1 0-2 .9-2 2v14c0 1.1.9 2 2 2h14c1.1 0 2-.9 2-2V5c0-1.1-.9-2-2-2zm0 16H5V5h14v14z"/>
  </symbol>
  <symbol id="kibana" viewBox="0 0 24 24">
    <path fill="currentColor" d="M3 3h18v18H3V3zm2 2v14h14V5H5zm3 3h3v3H8V8zm0 5h3v3H8v-3z"/>
  </symbol>
  <symbol id="devo" viewBox="0 0 24 24">
    <path fill="currentColor" d="M12 2C6.48 2 2 6.48 2 12s4.48 10 10 10 10-4.48 10-10S17.52 2 12 2zm-1 14H9v-4h2v4zm0-6H9V6h2v4zm4 6h-2V6h2v10z"/>
  </symbol>
  <symbol id="new-relic" viewBox="0 0 24 24">
    <path fill="currentColor" d="M12 2C6.48 2 2 6.48 2 12s4.48 10 10 10 10-4.48 10-10S17.52 2 12 2zm4 11h-4v4h-2v-4H6v-2h4V7h2v4h4v2z"/>
  </symbol>
</svg>