<svg xmlns="http://www.w3.org/2000/svg" style="display: none;">
<symbol id="akamai-svgrepo-com" viewBox="0 -151.5 512 512">
	<g>
		<path d="M156.165577,152.930719 L135.306318,152.930719 L153.376906,116.343355 L153.6,116.343355 L156.165577,152.930719 L156.165577,152.930719 Z M157.057952,169.551198 L158.284967,184.052288 L181.263617,184.052288 L173.566885,99.611329 L139.322004,99.611329 L96.1533769,184.052288 L119.578214,184.052288 L126.828758,169.551198 L157.057952,169.551198 L157.057952,169.551198 Z M213.389107,147.018736 L216.847059,147.018736 L233.355991,124.820915 L254.438344,124.820915 L231.682789,153.153813 L245.737691,183.829194 L223.205229,183.829194 L214.058388,159.95817 L210.823529,159.95817 L205.692375,183.829194 L186.171678,183.829194 L204.019172,99.7228758 L223.428322,99.7228758 L213.389107,147.018736 Z M279.31329,159.511983 C285.67146,159.511983 289.91024,159.95817 288.683224,164.866231 C287.233115,171.224401 284.667538,172.116776 276.524619,172.116776 C273.512854,172.116776 268.047059,172.116776 269.497168,165.758606 C270.612636,160.404357 274.628322,159.511983 279.31329,159.511983 L279.31329,159.511983 Z M284.667538,183.829194 L303.853595,183.829194 L311.550327,147.018736 C316.0122,126.605664 307.980828,124.263181 288.348584,124.263181 C274.516776,124.263181 261.131155,124.040087 257.115468,142.556863 L276.301525,142.556863 C277.52854,137.202614 280.763399,136.198693 285.448366,136.198693 C293.925926,136.198693 293.702832,139.768192 292.252723,145.12244 L290.356427,154.492375 L289.464052,154.492375 C288.794771,147.688017 280.317211,147.911111 274.739869,147.911111 C260.684967,147.911111 252.430501,152.372985 249.418736,166.427887 C246.183878,181.48671 253.434423,184.721569 266.820044,184.721569 C273.624401,184.721569 282.548148,183.27146 285.783007,175.351634 L286.452288,175.351634 L284.667538,183.829194 L284.667538,183.829194 Z M343.118083,124.820915 L341.44488,133.298475 L342.114161,133.298475 C345.906754,126.271024 353.603486,124.374728 360.184749,124.374728 C368.662309,124.374728 376.805229,125.824837 375.68976,135.864052 L376.582135,135.864052 C379.370806,127.386492 388.07146,124.374728 395.545098,124.374728 C409.153813,124.374728 414.954248,129.95207 411.942484,143.560784 L403.24183,183.940741 L384.055773,183.940741 L391.306318,149.695861 C392.198693,143.337691 393.202614,138.875817 385.95207,138.875817 C378.701525,138.875817 375.912854,143.783878 374.685839,150.142048 L367.658388,183.717647 L348.472331,183.717647 L355.945969,148.022658 C356.838344,142.66841 357.396078,138.875817 350.591721,138.875817 C342.671895,138.875817 340.217865,143.114597 338.879303,150.142048 L331.851852,183.717647 L312.665795,183.717647 L325.382135,124.597821 L343.22963,124.597821 L343.22963,124.820915 L343.118083,124.820915 Z M442.283224,159.511983 C448.641394,159.511983 452.880174,159.95817 451.653159,164.866231 C450.426144,171.224401 447.637473,172.116776 439.494553,172.116776 C436.705882,172.116776 431.016993,172.116776 432.467102,165.758606 C433.582571,160.404357 437.375163,159.511983 442.283224,159.511983 L442.283224,159.511983 Z M447.414379,183.829194 L466.600436,183.829194 L474.297168,147.018736 C478.759041,126.605664 470.727669,124.263181 451.095425,124.263181 C437.263617,124.263181 423.877996,124.040087 419.862309,142.556863 L439.048366,142.556863 C440.275381,137.202614 443.51024,136.198693 448.195207,136.198693 C456.672767,136.198693 456.449673,139.768192 454.999564,145.12244 L453.103268,154.492375 L452.210893,154.492375 C451.541612,147.688017 443.064052,147.911111 437.48671,147.911111 C423.431808,147.911111 415.177342,152.372985 412.165577,166.427887 C408.930719,181.48671 416.181264,184.721569 429.566885,184.721569 C436.371242,184.721569 445.294989,183.27146 448.529847,175.351634 L449.199129,175.351634 L447.414379,183.829194 L447.414379,183.829194 Z M494.821786,183.829194 L475.63573,183.829194 L488.017429,124.709368 L507.203486,124.709368 L494.821786,183.829194 L494.821786,183.829194 Z M511.665359,108.646623 C511.665359,114.558606 506.757298,119.466667 500.845316,119.466667 C494.933333,119.466667 490.025272,114.558606 490.025272,108.646623 C490.025272,102.511547 494.933333,97.8265795 500.845316,97.8265795 C506.757298,97.8265795 511.665359,102.511547 511.665359,108.646623 L511.665359,108.646623 Z" fill="#F79838">
</path>
		<path d="M106.192593,204.242266 C63.2470588,191.079739 32.1254902,151.48061 32.1254902,104.854031 C32.1254902,57.4466231 64.0278867,17.6244009 107.642702,4.68496732 C112.104575,3.45795207 110.87756,0.446187364 105.523312,0.446187364 C47.6305011,0.446187364 0.446187364,47.0727669 0.446187364,104.51939 C0.446187364,161.966013 47.2958606,208.592593 105.523312,208.592593 C110.87756,208.927233 111.100654,205.915468 106.192593,204.242266 L106.192593,204.242266 Z M52.0923747,128.948148 C51.869281,126.159477 51.6461874,123.370806 51.6461874,120.470588 C51.6461874,74.7363834 88.6797386,37.7028322 134.413943,37.7028322 C177.582571,37.7028322 190.745098,56.8888889 192.08366,55.7734205 C193.756863,54.3233115 176.355556,16.1742919 125.71329,16.1742919 C79.979085,16.1742919 42.9455338,53.2078431 42.9455338,98.9420479 C42.9455338,109.538998 45.0649237,119.578214 48.5228758,128.948148 C49.9729847,132.963834 52.3154684,132.963834 52.0923747,128.948148 Z M86.5603486,69.3821351 C107.865795,60.0122004 135.083224,59.7891068 161.631373,68.9359477 C179.478867,75.2941176 189.741176,83.9947712 190.745098,83.6601307 C192.195207,82.9908497 180.371242,64.4740741 159.065795,56.4427015 C133.298475,46.8496732 105.634858,51.7577342 85.4448802,67.7089325 C83.2139434,69.3821351 83.8832244,70.6091503 86.5603486,69.3821351 L86.5603486,69.3821351 Z" fill="#0098CC">
</path>
	</g>
</symbol>
<symbol id="Amazon_Web_Services_Logo" viewBox="0 0 304 182">
<style type="text/css">
	.st0{fill:#252F3E;}
	.st1{fill-rule:evenodd;clip-rule:evenodd;fill:#FF9900;}
</style>
<g>
	<path class="st0" d="M86.4,66.4c0,3.7,0.4,6.7,1.1,8.9c0.8,2.2,1.8,4.6,3.2,7.2c0.5,0.8,0.7,1.6,0.7,2.3c0,1-0.6,2-1.9,3l-6.3,4.2
		c-0.9,0.6-1.8,0.9-2.6,0.9c-1,0-2-0.5-3-1.4C76.2,90,75,88.4,74,86.8c-1-1.7-2-3.6-3.1-5.9c-7.8,9.2-17.6,13.8-29.4,13.8
		c-8.4,0-15.1-2.4-20-7.2c-4.9-4.8-7.4-11.2-7.4-19.2c0-8.5,3-15.4,9.1-20.6c6.1-5.2,14.2-7.8,24.5-7.8c3.4,0,6.9,0.3,10.6,0.8
		c3.7,0.5,7.5,1.3,11.5,2.2v-7.3c0-7.6-1.6-12.9-4.7-16c-3.2-3.1-8.6-4.6-16.3-4.6c-3.5,0-7.1,0.4-10.8,1.3c-3.7,0.9-7.3,2-10.8,3.4
		c-1.6,0.7-2.8,1.1-3.5,1.3c-0.7,0.2-1.2,0.3-1.6,0.3c-1.4,0-2.1-1-2.1-3.1v-4.9c0-1.6,0.2-2.8,0.7-3.5c0.5-0.7,1.4-1.4,2.8-2.1
		c3.5-1.8,7.7-3.3,12.6-4.5c4.9-1.3,10.1-1.9,15.6-1.9c11.9,0,20.6,2.7,26.2,8.1c5.5,5.4,8.3,13.6,8.3,24.6V66.4z M45.8,81.6
		c3.3,0,6.7-0.6,10.3-1.8c3.6-1.2,6.8-3.4,9.5-6.4c1.6-1.9,2.8-4,3.4-6.4c0.6-2.4,1-5.3,1-8.7v-4.2c-2.9-0.7-6-1.3-9.2-1.7
		c-3.2-0.4-6.3-0.6-9.4-0.6c-6.7,0-11.6,1.3-14.9,4c-3.3,2.7-4.9,6.5-4.9,11.5c0,4.7,1.2,8.2,3.7,10.6
		C37.7,80.4,41.2,81.6,45.8,81.6z M126.1,92.4c-1.8,0-3-0.3-3.8-1c-0.8-0.6-1.5-2-2.1-3.9L96.7,10.2c-0.6-2-0.9-3.3-0.9-4
		c0-1.6,0.8-2.5,2.4-2.5h9.8c1.9,0,3.2,0.3,3.9,1c0.8,0.6,1.4,2,2,3.9l16.8,66.2l15.6-66.2c0.5-2,1.1-3.3,1.9-3.9c0.8-0.6,2.2-1,4-1
		h8c1.9,0,3.2,0.3,4,1c0.8,0.6,1.5,2,1.9,3.9l15.8,67l17.3-67c0.6-2,1.3-3.3,2-3.9c0.8-0.6,2.1-1,3.9-1h9.3c1.6,0,2.5,0.8,2.5,2.5
		c0,0.5-0.1,1-0.2,1.6c-0.1,0.6-0.3,1.4-0.7,2.5l-24.1,77.3c-0.6,2-1.3,3.3-2.1,3.9c-0.8,0.6-2.1,1-3.8,1h-8.6c-1.9,0-3.2-0.3-4-1
		c-0.8-0.7-1.5-2-1.9-4L156,23l-15.4,64.4c-0.5,2-1.1,3.3-1.9,4c-0.8,0.7-2.2,1-4,1H126.1z M254.6,95.1c-5.2,0-10.4-0.6-15.4-1.8
		c-5-1.2-8.9-2.5-11.5-4c-1.6-0.9-2.7-1.9-3.1-2.8c-0.4-0.9-0.6-1.9-0.6-2.8v-5.1c0-2.1,0.8-3.1,2.3-3.1c0.6,0,1.2,0.1,1.8,0.3
		c0.6,0.2,1.5,0.6,2.5,1c3.4,1.5,7.1,2.7,11,3.5c4,0.8,7.9,1.2,11.9,1.2c6.3,0,11.2-1.1,14.6-3.3c3.4-2.2,5.2-5.4,5.2-9.5
		c0-2.8-0.9-5.1-2.7-7c-1.8-1.9-5.2-3.6-10.1-5.2L246,52c-7.3-2.3-12.7-5.7-16-10.2c-3.3-4.4-5-9.3-5-14.5c0-4.2,0.9-7.9,2.7-11.1
		c1.8-3.2,4.2-6,7.2-8.2c3-2.3,6.4-4,10.4-5.2c4-1.2,8.2-1.7,12.6-1.7c2.2,0,4.5,0.1,6.7,0.4c2.3,0.3,4.4,0.7,6.5,1.1
		c2,0.5,3.9,1,5.7,1.6c1.8,0.6,3.2,1.2,4.2,1.8c1.4,0.8,2.4,1.6,3,2.5c0.6,0.8,0.9,1.9,0.9,3.3v4.7c0,2.1-0.8,3.2-2.3,3.2
		c-0.8,0-2.1-0.4-3.8-1.2c-5.7-2.6-12.1-3.9-19.2-3.9c-5.7,0-10.2,0.9-13.3,2.8c-3.1,1.9-4.7,4.8-4.7,8.9c0,2.8,1,5.2,3,7.1
		c2,1.9,5.7,3.8,11,5.5l14.2,4.5c7.2,2.3,12.4,5.5,15.5,9.6c3.1,4.1,4.6,8.8,4.6,14c0,4.3-0.9,8.2-2.6,11.6
		c-1.8,3.4-4.2,6.4-7.3,8.8c-3.1,2.5-6.8,4.3-11.1,5.6C264.4,94.4,259.7,95.1,254.6,95.1z"/>
	<g>
		<path class="st1" d="M273.5,143.7c-32.9,24.3-80.7,37.2-121.8,37.2c-57.6,0-109.5-21.3-148.7-56.7c-3.1-2.8-0.3-6.6,3.4-4.4
			c42.4,24.6,94.7,39.5,148.8,39.5c36.5,0,76.6-7.6,113.5-23.2C274.2,133.6,278.9,139.7,273.5,143.7z"/>
		<path class="st1" d="M287.2,128.1c-4.2-5.4-27.8-2.6-38.5-1.3c-3.2,0.4-3.7-2.4-0.8-4.5c18.8-13.2,49.7-9.4,53.3-5
			c3.6,4.5-1,35.4-18.6,50.2c-2.7,2.3-5.3,1.1-4.1-1.9C282.5,155.7,291.4,133.4,287.2,128.1z"/>
	</g>
</g>
</symbol>
<symbol id="AWS_Simple_Icons_Storage_Amazon_S3" viewBox="0 0 70 70">
    <path d="m63.95 15.786c0 4.006-12.963 7.238-28.949 7.238-15.988 0-28.951-3.232-28.951-7.238l9.65 43.839c0 2.672 8.637 4.826 19.301 4.826 10.662 0 19.299-2.154 19.299-4.826l9.65-43.839z" clip-rule="evenodd" fill="#146EB4" fill-rule="evenodd"/>
    <path d="m63.95 12.786c0-4.004-12.963-7.237-28.949-7.237-15.988 0-28.951 3.233-28.951 7.237 0 4.006 12.963 7.238 28.951 7.238 15.986 0 28.949-3.232 28.949-7.238z" clip-rule="evenodd" fill="#146EB4" fill-rule="evenodd"/>
</symbol>
<symbol id="Docker-svgrepo-com" viewBox="0 0 24 24">
  <path fill="#0DB7ED" fill-rule="evenodd" d="M6.94221099,14.9002344 C6.9980621,14.9002344 7.05128211,14.9107588 7.10043586,14.9297745 C7.04721586,14.9606302 7.01109801,15.018335 7.01109801,15.0842919 C7.01109801,15.1828984 7.09098782,15.2626686 7.18959432,15.2626686 C7.25710599,15.2626686 7.31570779,15.2251754 7.34608506,15.1698027 C7.36743286,15.2214082 7.37939241,15.2780367 7.37939241,15.3374756 C7.37939241,15.578939 7.18361455,15.774657 6.94221099,15.774657 C6.70080744,15.774657 6.50496978,15.578939 6.50496978,15.3374756 C6.50496978,15.0959525 6.70080744,14.9002344 6.94221099,14.9002344 L6.94221099,14.9002344 Z M6.94221099,16.0853662 C6.52978585,16.0853662 6.19420083,15.7499008 6.19420083,15.3374756 C6.19420083,14.9250505 6.52978585,14.5895253 6.94221099,14.5895253 C7.35457634,14.5895253 7.69010156,14.9250505 7.69010156,15.3374756 C7.69010156,15.7499008 7.35457634,16.0853662 6.94221099,16.0853662 L6.94221099,16.0853662 Z M20.3859431,11.1838037 C18.2619865,16.8117894 13.4653093,19.318631 7.81023526,19.318631 C5.13823222,19.318631 3.00656172,18.3995992 1.64323262,16.8672219 L1.65327865,16.8605843 C2.04609012,16.880497 2.39758135,16.8872541 2.75439457,16.8872541 C3.08065114,16.8872541 3.39979178,16.8838457 3.6953721,16.8672219 C3.72108514,16.8657867 3.75325633,16.8621989 3.77878997,16.8605843 C3.77902916,16.8605245 3.86998155,16.8546046 3.82549202,16.853887 C4.57667146,16.8075437 5.15892224,16.7031368 5.70188589,16.5482008 C5.70200548,16.548141 5.70212508,16.548141 5.70224467,16.5480812 C5.80091098,16.5198567 5.89658739,16.4901372 5.98825735,16.4583846 C6.09081051,16.4228049 6.14510687,16.3108635 6.109587,16.2083104 C6.07406714,16.1056974 5.96218553,16.0512815 5.85957258,16.0869807 C5.16992503,16.3259326 4.26010213,16.4574876 3.14505333,16.4821841 L3.14475434,16.4821841 C2.57739321,16.4947416 1.95717085,16.4797922 1.28450587,16.4365584 L1.28444607,16.4365584 C1.14529669,16.2507668 1.01649231,16.0576798 0.89869073,15.8577161 L0.71248051,15.5172277 C0.149903198,14.4112083 -0.0964037696,13.1191582 0.0343141305,11.7160038 L16.3965356,11.7160038 C17.7407294,11.7160038 19.0534696,11.2143604 19.6764427,10.6609919 C18.5601381,9.75332174 18.670764,7.59731356 19.3822377,6.774616 C19.9997093,7.270758 20.9954018,8.31584342 20.824141,9.64622396 C21.6011531,9.255625 22.9506091,9.06259783 24,9.66816973 C23.3411483,10.9541803 21.8929064,11.3383809 20.3859431,11.1838037 L20.3859431,11.1838037 Z M2.25508329,11.3188869 L4.46771995,11.3188869 L4.46771995,9.1061306 L2.25508329,9.1061306 L2.25508329,11.3188869 Z M4.80808879,11.3188869 L7.02096464,11.3188869 L7.02096464,9.1061306 L4.80808879,9.1061306 L4.80808879,11.3188869 Z M4.80808879,8.76576176 L7.02096464,8.76576176 L7.02096464,6.5530653 L4.80808879,6.5530653 L4.80808879,8.76576176 Z M7.36127369,11.3188869 L9.57402994,11.3188869 L9.57402994,9.1061306 L7.36127369,9.1061306 L7.36127369,11.3188869 Z M7.36127369,8.76576176 L9.57402994,8.76576176 L9.57402994,6.5530653 L7.36127369,6.5530653 L7.36127369,8.76576176 Z M9.91433899,11.3188869 L12.1270952,11.3188869 L12.1270952,9.1061306 L9.91433899,9.1061306 L9.91433899,11.3188869 Z M9.91433899,8.76576176 L12.1270952,8.76576176 L12.1270952,6.5530653 L9.91433899,6.5530653 L9.91433899,8.76576176 Z M9.91433899,6.21275626 L12.1270952,6.21275626 L12.1270952,4 L9.91433899,4 L9.91433899,6.21275626 Z M12.4674043,11.3188869 L14.6801605,11.3188869 L14.6801605,9.1061306 L12.4674043,9.1061306 L12.4674043,11.3188869 Z"/>
</symbol>
<symbol id="Firebase_icon" viewBox="0 0 140 140">
  <defs>
    <linearGradient id="Firebase_icon-a" x1="-3.49%" x2="100.83%" y1="17.02%" y2="92.9%">
      <stop offset="0%" stop-color="#fff" stop-opacity=".1"/>
      <stop offset="14%" stop-color="#fff" stop-opacity=".08"/>
      <stop offset="61%" stop-color="#fff" stop-opacity=".02"/>
      <stop offset="100%" stop-color="#fff" stop-opacity="0"/>
    </linearGradient>
    <path id="Firebase_icon-b" d="M106.687 35.2742c-.186-1.0977-.967-2-2.0244-2.338s-2.2148-.057-3.0002.73L86.2473 49.166l-12.12-23.1455c-.5133-.9786-1.525-1.5914-2.6273-1.5914s-2.114.6128-2.6273 1.5914l-6.6277 12.656L45.62 7.5726c-.603-1.1297-1.8588-1.746-3.118-1.5297s-2.2394 1.216-2.4335 2.4827L24 111.701l42.9727 24.1654c2.6985 1.5113 5.985 1.5113 8.6836 0L119 111.701l-12.313-76.427z"/>
  </defs>
  <path fill="#ffa000" d="M23.8333 111.7187L39.9655 8.4906c.1972-1.266 1.1818-2.264 2.445-2.4786s2.522.4028 3.126 1.5327L62.22 38.662l6.65-12.6615c.515-.979 1.5303-1.592 2.6366-1.592s2.1215.613 2.6366 1.592l45.0227 85.718H23.8333z"/>
  <path fill="#f57c00" d="M79.566 71.5074L62.2124 38.6472l-38.379 73.0715L79.566 71.5074z"/>
  <path fill="#ffca28" d="M119.1666 111.7187l-12.356-76.4603c-.1867-1.098-.9703-2-2.0315-2.34s-2.2226-.057-3.0107.7302l-77.935 78.069 43.1234 24.1834c2.708 1.512 6.006 1.512 8.714 0l43.4958-24.1834z"/>
  <path fill="#fff" fill-opacity=".2" d="M106.8105 35.2584c-.1867-1.098-.9703-2-2.0315-2.34s-2.2226-.057-3.0107.7302L86.3 49.1562 74.1365 26c-.515-.979-1.5303-1.592-2.6366-1.592s-2.1215.613-2.6366 1.592l-6.65 12.6615L45.529 7.5447c-.605-1.1302-1.8653-1.7466-3.13-1.5304S40.153 7.231 39.958 8.498L23.8333 111.7187h-.052l.052.0596.4245.2085 77.488-77.5775c.7877-.7915 1.952-1.076 3.016-.737s1.849 1.2445 2.0338 2.3457l12.2518 75.775.1192-.0745-12.356-76.4603zm-82.8357 76.3188L39.9655 9.228c.1948-1.267 1.1784-2.2675 2.442-2.4837s2.524.4 3.13 1.5304L62.22 39.392l6.65-12.6615c.515-.979 1.5303-1.592 2.6366-1.592s2.1215.613 2.6366 1.592l11.9167 22.664-62.0858 62.1827z"/>
  <path fill="#a52714" opacity=".2" d="M75.6708 135.1722c-2.708 1.512-6.006 1.512-8.714 0L23.9376 111.056l-.1043.663 43.1234 24.176c2.708 1.512 6.006 1.512 8.714 0l43.4958-24.176-.1117-.6852-43.384 24.1387z"/>
  <use fill="url(#Firebase_icon-a)" xlink:href="#Firebase_icon-b"/>
</symbol>
<symbol id="Html-1" viewBox="0 0 124 141.53199999999998"><path d="M10.383 126.894L0 0l124 .255-10.979 126.639-50.553 14.638z" fill="#e34f26"/><path d="M62.468 129.277V12.085l51.064.17-9.106 104.851z" fill="#ef652a"/><path d="M99.49 41.362l1.446-15.49H22.383l4.34 47.49h54.213L78.81 93.617l-17.362 4.68-17.617-5.106-.936-12.085H27.319l2.128 24.681 32 8.936 32.255-8.936 4.34-48.17H41.107L39.49 41.362z" fill="#fff"/></symbol>
<symbol id="java-4-logo-svgrepo-com" viewBox="-118.513 4.399 540.906 540.906"><path d="M285.104 430.945h-2.037v-1.14h5.486v1.14h-2.025v5.688h-1.424v-5.688zm10.942.297h-.032l-2.02 5.393h-.924l-2.006-5.393h-.024v5.393h-1.343v-6.828h1.976l1.86 4.835 1.854-4.835h1.969v6.828h-1.311l.001-5.393z" fill="#e76f00"/><path d="M102.681 291.324s-14.178 8.245 10.09 11.035c29.4 3.354 44.426 2.873 76.825-3.259 0 0 8.518 5.341 20.414 9.967-72.63 31.128-164.376-1.803-107.329-17.743M93.806 250.704s-15.902 11.771 8.384 14.283c31.406 3.24 56.208 3.505 99.125-4.759 0 0 5.937 6.018 15.271 9.309-87.815 25.678-185.624 2.025-122.78-18.833" fill="#5382a1"/><path d="M168.625 181.799c17.896 20.604-4.701 39.146-4.701 39.146s45.439-23.458 24.571-52.833c-19.491-27.395-34.438-41.005 46.479-87.934.001-.001-127.013 31.721-66.349 101.621" fill="#e76f00"/><path d="M264.684 321.369s10.492 8.646-11.555 15.333c-41.923 12.7-174.488 16.535-211.314.507-13.238-5.76 11.587-13.752 19.396-15.429 8.144-1.766 12.798-1.437 12.798-1.437-14.722-10.371-95.157 20.363-40.857 29.166 148.084 24.015 269.944-10.814 231.532-28.14M109.499 208.617s-67.431 16.016-23.879 21.832c18.389 2.462 55.047 1.905 89.192-.956 27.906-2.354 55.928-7.358 55.928-7.358s-9.84 4.214-16.959 9.074c-68.475 18.01-200.756 9.631-162.674-8.79 32.206-15.568 58.392-13.802 58.392-13.802M230.462 276.231c69.608-36.171 37.425-70.932 14.96-66.248-5.506 1.146-7.961 2.139-7.961 2.139s2.045-3.202 5.947-4.588c44.441-15.624 78.619 46.081-14.346 70.521 0 0 1.079-.962 1.4-1.824" fill="#5382a1"/><path d="M188.495 4.399s38.55 38.562-36.563 97.862c-60.233 47.567-13.735 74.689-.025 105.678-35.158-31.723-60.96-59.647-43.65-85.637 25.406-38.151 95.792-56.648 80.238-117.903" fill="#e76f00"/><path d="M116.339 374.246c66.815 4.277 169.417-2.373 171.846-33.987 0 0-4.67 11.984-55.219 21.503-57.027 10.731-127.364 9.479-169.081 2.601.002-.002 8.541 7.067 52.454 9.883" fill="#5382a1"/><path d="M105.389 495.049c-6.303 5.467-12.96 8.536-18.934 8.536-8.527 0-13.134-5.113-13.134-13.314 0-8.871 4.937-15.357 24.739-15.357h7.328l.001 20.135m17.392 19.623V453.93c0-15.518-8.85-25.756-30.188-25.756-12.457 0-23.369 3.076-32.238 6.999l2.56 10.752c6.983-2.563 16.022-4.949 24.894-4.949 12.292 0 17.58 4.949 17.58 15.181v7.678h-6.135c-29.865 0-43.337 11.593-43.337 28.993 0 15.018 8.878 23.554 25.594 23.554 10.745 0 18.766-4.437 26.264-10.929l1.361 9.221 13.645-.002zM180.824 514.672h-21.691l-26.106-84.96h18.944l16.198 52.199 3.601 15.699c8.195-22.698 13.992-45.726 16.891-67.898h18.427c-4.938 27.976-13.822 58.684-26.264 84.96M264.038 495.049c-6.315 5.467-12.983 8.536-18.958 8.536-8.512 0-13.131-5.113-13.131-13.314 0-8.871 4.947-15.357 24.748-15.357h7.341v20.135m17.39 19.623V453.93c0-15.518-8.871-25.756-30.186-25.756-12.465 0-23.381 3.076-32.246 6.999l2.557 10.752c6.985-2.563 16.041-4.949 24.906-4.949 12.283 0 17.579 4.949 17.579 15.181v7.678h-6.146c-29.873 0-43.34 11.593-43.34 28.993 0 15.018 8.871 23.554 25.584 23.554 10.752 0 18.77-4.437 26.28-10.929l1.366 9.221 13.646-.002zM36.847 529.099c-4.958 7.239-12.966 12.966-21.733 16.206L6.527 535.2c6.673-3.424 12.396-8.954 15.055-14.104 2.3-4.581 3.252-10.485 3.252-24.604v-96.995h18.478v95.666c-.001 18.875-1.51 26.5-6.465 33.936" fill="#e76f00"/></symbol>
<symbol id="jenkins-svgrepo-com" viewBox="-80.5 0 417 417">
	<g>
		<path d="M250.741085,169.277519 C250.741085,238.734884 195.671318,295.094574 127.702326,295.094574 C59.7333333,295.094574 4.66356589,238.734884 4.66356589,169.277519 C4.66356589,99.820155 59.7333333,43.4604651 127.702326,43.4604651 C195.671318,43.4604651 250.741085,99.820155 250.741085,169.277519" fill="#D33833">
</path>
		<path d="M9.72403101,200.434109 C9.72403101,200.434109 0.79379845,69.2589147 121.748837,65.4883721 L113.314729,51.3984496 L47.7271318,73.4263566 L28.9736434,94.9581395 L12.6015504,126.313178 L3.2744186,162.827907 L6.05271318,187.237209" fill="#EF3D3A">
</path>
		<path d="M43.4604651,83.448062 C21.9286822,105.575194 8.53333333,136.037209 8.53333333,169.773643 L8.53333333,169.773643 C8.53333333,203.510078 21.9286822,233.972093 43.4604651,256.099225 L43.4604651,256.099225 C65.0914729,278.226357 94.7596899,291.820155 127.702326,291.820155 L127.702326,291.820155 C160.644961,291.820155 190.313178,278.226357 211.944186,256.099225 L211.944186,256.099225 C233.475969,233.972093 246.871318,203.510078 246.871318,169.773643 L246.871318,169.773643 C246.871318,136.037209 233.475969,105.575194 211.944186,83.448062 L211.944186,83.448062 C190.313178,61.420155 160.644961,47.7271318 127.702326,47.7271318 L127.702326,47.7271318 C94.8589147,47.7271318 65.0914729,61.3209302 43.4604651,83.448062 L43.4604651,83.448062 L43.4604651,83.448062 Z M38.0031008,261.35814 C15.0821705,237.941085 0.893023256,205.494574 0.893023256,169.773643 L0.893023256,169.773643 C0.893023256,134.052713 15.0821705,101.606202 38.0031008,78.0899225 L38.0031008,78.0899225 C60.924031,54.6728682 92.675969,40.0868217 127.702326,40.0868217 L127.702326,40.0868217 C162.728682,40.0868217 194.48062,54.6728682 217.40155,78.0899225 L217.40155,78.0899225 C240.322481,101.506977 254.511628,133.953488 254.511628,169.773643 L254.511628,169.773643 C254.511628,205.494574 240.322481,237.941085 217.40155,261.35814 L217.40155,261.35814 C194.48062,284.874419 162.728682,299.36124 127.702326,299.36124 L127.702326,299.36124 C92.675969,299.36124 60.924031,284.874419 38.0031008,261.35814 L38.0031008,261.35814 L38.0031008,261.35814 Z" fill="#231F20">
</path>
		<path d="M179.497674,169.972093 L160.744186,172.750388 L135.44186,175.627907 L119.069767,176.024806 L103.094574,175.528682 L90.8899225,171.75814 L80.0744186,160.049612 L71.6403101,136.136434 L69.7550388,130.976744 L58.5426357,127.206202 L51.9937984,116.390698 L47.3302326,100.911628 L52.4899225,87.3178295 L64.6945736,83.0511628 L74.5178295,87.7147287 L79.1813953,98.0341085 L84.8372093,97.1410853 L86.7224806,94.7596899 L84.8372093,83.944186 L84.3410853,70.3503876 L87.1193798,51.5968992 L87.020155,40.8806202 L95.5534884,27.1875969 L110.536434,16.372093 L136.731783,5.15968992 L165.804651,9.42635659 L191.106977,27.6837209 L202.815504,46.4372093 L210.356589,60.0310078 L212.24186,93.7674419 L206.586047,122.84031 L196.266667,148.63876 L186.542636,162.431008" fill="#F0D6B7">
</path>
		<path d="M163.621705,251.03876 L96.6449612,253.817054 L96.6449612,265.029457 L102.300775,304.421705 L99.5224806,307.696124 L52.6883721,291.72093 L49.4139535,286.065116 L44.7503876,233.07907 L33.7364341,201.327132 L31.3550388,193.786047 L68.8620155,167.987597 L80.5705426,163.324031 L90.8899225,176.024806 L99.820155,183.962791 L110.139535,187.237209 L114.803101,188.626357 L120.458915,213.035659 L124.725581,218.195349 L135.541085,214.424806 L128,229.010853 L168.682171,248.260465 L163.621705,251.03876" fill="#335061">
</path>
		<path d="M52.4899225,87.5162791 L64.6945736,83.2496124 L74.5178295,87.9131783 L79.1813953,98.2325581 L84.8372093,97.3395349 L86.2263566,91.6837209 L83.448062,80.8682171 L86.2263566,55.0697674 L83.8449612,40.979845 L92.2790698,31.1565891 L110.536434,16.6697674 L105.376744,9.6248062 L79.5782946,22.3255814 L68.7627907,30.7596899 L62.7100775,43.8573643 L53.3829457,56.5581395 L50.6046512,71.5410853 L52.4899225,87.5162791" fill="#6D6B6D">
</path>
		<path d="M71.7395349,43.4604651 C71.7395349,43.4604651 78.7844961,26.096124 106.865116,17.6620155 C134.945736,9.22790698 108.254264,11.6093023 108.254264,11.6093023 L77.7922481,23.3178295 L66.0837209,35.0263566 L60.924031,44.3534884 L71.7395349,43.4604651" fill="#DCD9D8">
</path>
		<path d="M57.6496124,84.2418605 C57.6496124,84.2418605 47.8263566,51.3984496 85.3333333,46.7348837 L83.944186,41.0790698 L58.1457364,47.1317829 L50.6046512,71.5410853 L52.4899225,87.5162791 L57.6496124,84.2418605" fill="#DCD9D8">
</path>
		<path d="M72.6325581,127.80155 L78.7844961,121.848062 C78.7844961,121.848062 81.5627907,122.145736 82.0589147,125.420155 C82.5550388,128.694574 83.944186,158.263566 104.086822,174.139535 C105.972093,175.627907 89.103876,171.75814 89.103876,171.75814 L74.1209302,148.341085" fill="#F7E4CD">
</path>
		<path d="M158.858915,118.871318 C158.858915,118.871318 159.950388,104.682171 163.820155,105.773643 C167.689922,106.865116 167.689922,110.734884 167.689922,110.734884 C167.689922,110.734884 158.362791,116.688372 158.858915,118.871318" fill="#F7E4CD">
</path>
		<path d="M197.755039,66.8775194 C197.755039,66.8775194 190.015504,68.4651163 189.32093,75.3116279 C188.626357,82.1581395 197.755039,76.7007752 199.144186,76.2046512" fill="#F7E4CD">
</path>
		<path d="M141.097674,67.3736434 C141.097674,67.3736434 130.778295,68.7627907 130.778295,75.3116279 C130.778295,81.8604651 142.486822,81.3643411 145.76124,78.5860465" fill="#F7E4CD">
</path>
		<path d="M77.3953488,97.8356589 C77.3953488,97.8356589 59.6341085,87.020155 57.7488372,97.3395349 C55.8635659,107.658915 51.696124,115.100775 60.5271318,125.916279 L54.4744186,124.031008 L48.8186047,109.544186 L46.9333333,95.4542636 L57.7488372,84.2418605 L69.9534884,85.1348837 L76.9984496,90.7906977 L77.3953488,97.8356589" fill="#F7E4CD">
</path>
		<path d="M85.8294574,68.2666667 C85.8294574,68.2666667 93.7674419,26.9891473 134.052713,19.0511628 C167.193798,12.5023256 184.657364,20.4403101 191.206202,27.9813953 C191.206202,27.9813953 161.637209,-7.14418605 133.556589,3.57209302 C105.475969,14.3875969 84.8372093,34.0341085 85.3333333,46.6356589 C86.1271318,68.2666667 85.8294574,68.2666667 85.8294574,68.2666667" fill="#F7E4CD">
</path>
		<path d="M194.48062,32.6449612 C194.48062,32.6449612 180.886822,32.1488372 180.390698,44.3534884 C180.390698,44.3534884 180.390698,46.2387597 181.283721,48.124031 C181.283721,48.124031 192.099225,35.9193798 198.648062,42.4682171" fill="#F7E4CD">
</path>
		<path d="M135.044961,49.4139535 C135.044961,49.4139535 132.663566,30.7596899 116.787597,41.5751938 C106.468217,48.620155 107.460465,58.4434109 109.246512,60.3286822 C111.131783,62.2139535 110.635659,65.9844961 112.024806,63.4046512 C113.413953,60.8248062 113.017054,52.3906977 118.176744,50.0093023 C123.237209,47.627907 131.770543,45.048062 135.044961,49.4139535" fill="#F7E4CD">
</path>
		<path d="M90.9891473,176.024806 L46.9333333,195.671318 C46.9333333,195.671318 65.1906977,268.303876 55.8635659,290.827907 L49.3147287,288.446512 L48.8186047,260.762791 L36.6139535,208.372093 L31.4542636,193.885271 L77.3953488,162.927132 L90.9891473,176.024806" fill="#49728B">
</path>
		<path d="M95.4542636,216.210853 L101.705426,223.851163 L101.705426,251.931783 L94.2635659,251.931783 C94.2635659,251.931783 93.3705426,232.285271 93.3705426,229.903876 C93.3705426,227.522481 94.2635659,219.088372 94.2635659,219.088372" fill="#49728B">
</path>
		<path d="M95.6527132,256.19845 L74.5178295,257.091473 L80.5705426,261.35814 L95.5534884,263.739535" fill="#49728B">
</path>
		<path d="M167.789147,251.534884 L185.153488,251.03876 L189.420155,294.102326 L171.658915,296.483721 L167.789147,251.534884" fill="#335061">
</path>
		<path d="M172.452713,251.534884 L198.648062,250.145736 C198.648062,250.145736 209.463566,222.95814 209.463566,221.568992 C209.463566,220.179845 218.790698,182.176744 218.790698,182.176744 L197.655814,160.148837 L193.389147,156.378295 L182.176744,167.590698 L182.176744,211.150388 L172.452713,251.534884" fill="#335061">
</path>
		<path d="M184.16124,248.260465 L167.789147,251.534884 L170.170543,264.632558 C176.223256,267.410853 186.542636,259.968992 186.542636,259.968992" fill="#49728B">
</path>
		<path d="M184.657364,166.20155 L217.500775,190.610853 L218.393798,179.39845 L193.587597,156.477519 L184.657364,166.20155" fill="#49728B">
</path>
		<path d="M111.925581,343.813953 L102.20155,304.421705 L97.3395349,275.348837 L96.5457364,253.817054 L140.502326,251.435659 L167.789147,251.435659 L165.308527,300.651163 L169.575194,338.654264 L169.07907,345.699225 L133.457364,348.477519 L111.925581,343.813953" fill="#FFFFFF">
</path>
		<path d="M161.736434,251.03876 C161.736434,251.03876 159.355039,299.75814 166.4,334.486822 C166.4,334.486822 152.310078,343.417054 131.770543,345.699225 L171.162791,344.310078 L175.826357,341.531783 L170.170543,264.731783 L168.682171,248.260465" fill="#DCD9D8">
</path>
		<path d="M190.114729,290.431008 L208.372093,285.271318 L243.00155,283.386047 L248.16124,267.410853 L238.834109,239.727132 L228.018605,238.337984 L213.035659,243.00155 L198.747287,250.046512 L191.106977,248.657364 L185.153488,251.03876" fill="#FFFFFF">
</path>
		<path d="M189.817054,281.004651 C189.817054,281.004651 202.021705,275.348837 203.906977,275.844961 L198.747287,250.046512 L204.8,247.665116 C204.8,247.665116 209.066667,272.074419 209.066667,274.852713 C209.066667,274.852713 235.262016,276.24186 237.643411,276.24186 C237.643411,276.24186 243.299225,265.426357 241.910078,254.213953 L247.069767,269.196899 L247.565891,277.631008 L240.024806,288.843411 L231.590698,290.728682 L217.500775,290.232558 L212.837209,284.179845 L196.465116,286.56124 L191.305426,288.446512" fill="#DCD9D8">
</path>
		<path d="M171.36124,247.764341 L161.04186,221.568992 L150.226357,206.089922 C150.226357,206.089922 152.607752,199.541085 155.882171,199.541085 L166.697674,199.541085 L177.017054,203.311628 L176.124031,220.675969 L171.36124,247.764341" fill="#FFFFFF">
</path>
		<path d="M173.444961,238.834109 C173.444961,238.834109 160.347287,213.531783 160.347287,209.76124 C160.347287,209.76124 162.728682,204.105426 166.003101,205.494574 C169.277519,206.883721 176.322481,210.654264 176.322481,210.654264 L176.322481,201.724031 L160.347287,198.449612 L149.531783,199.83876 L167.789147,243.100775 L171.55969,243.596899" fill="#DCD9D8">
</path>
		<path d="M116.093023,177.017054 L103.094574,175.627907 L90.8899225,171.857364 L90.8899225,176.124031 L96.8434109,182.672868 L115.596899,191.106977" fill="#FFFFFF">
</path>
		<path d="M95.1565891,178.406202 C95.1565891,178.406202 109.643411,184.458915 114.406202,183.069767 L114.902326,188.725581 L101.804651,185.947287 L93.8666667,180.291473 L95.1565891,178.406202" fill="#DCD9D8">
</path>
		<path d="M190.114729,201.128682 C182.176744,200.930233 174.933333,199.937984 168.682171,198.151938 C169.07907,195.572093 168.285271,193.091473 168.979845,191.206202 C170.765891,189.916279 173.643411,189.916279 176.322481,189.618605 C174.04031,188.527132 170.765891,188.031008 168.186047,188.725581 C168.086822,186.939535 167.293023,185.848062 166.796899,184.458915 C171.262016,182.871318 181.779845,172.452713 187.733333,175.826357 C190.610853,177.513178 191.80155,186.84031 192,191.503876 C192.19845,195.274419 191.603101,199.044961 190.114729,201.128682" fill="#D33833">
</path>
		<path d="M190.114729,201.128682 C182.176744,200.930233 174.933333,199.937984 168.682171,198.151938 C169.07907,195.572093 168.285271,193.091473 168.979845,191.206202 C170.765891,189.916279 173.643411,189.916279 176.322481,189.618605 C174.04031,188.527132 170.765891,188.031008 168.186047,188.725581 C168.086822,186.939535 167.293023,185.848062 166.796899,184.458915 C171.262016,182.871318 181.779845,172.452713 187.733333,175.826357 C190.610853,177.513178 191.80155,186.84031 192,191.503876 C192.19845,195.274419 191.603101,199.044961 190.114729,201.128682 L190.114729,201.128682 Z" stroke="#D33833" stroke-width="2">
</path>
		<path d="M152.111628,188.130233 C152.111628,188.725581 152.111628,189.32093 152.012403,189.916279 C149.531783,191.503876 145.562791,191.503876 142.784496,192.893023 C146.753488,193.091473 149.928682,194.083721 152.706977,195.373643 C152.607752,196.862016 152.607752,198.449612 152.508527,199.937984 C147.944186,203.013953 143.776744,207.677519 138.418605,210.654264 C135.83876,212.043411 127.007752,215.615504 124.328682,214.92093 C122.84031,214.524031 122.64186,212.63876 122.046512,210.852713 C120.756589,207.082171 117.779845,200.930233 117.482171,195.175194 C117.184496,187.931783 116.390698,175.727132 124.229457,177.215504 C130.579845,178.406202 137.922481,181.283721 142.784496,183.962791 C145.860465,185.748837 147.547287,187.733333 152.111628,188.130233" fill="#D33833">
</path>
		<path d="M152.111628,188.130233 C152.111628,188.725581 152.111628,189.32093 152.012403,189.916279 C149.531783,191.503876 145.562791,191.503876 142.784496,192.893023 C146.753488,193.091473 149.928682,194.083721 152.706977,195.373643 C152.607752,196.862016 152.607752,198.449612 152.508527,199.937984 C147.944186,203.013953 143.776744,207.677519 138.418605,210.654264 C135.83876,212.043411 127.007752,215.615504 124.328682,214.92093 C122.84031,214.524031 122.64186,212.63876 122.046512,210.852713 C120.756589,207.082171 117.779845,200.930233 117.482171,195.175194 C117.184496,187.931783 116.390698,175.727132 124.229457,177.215504 C130.579845,178.406202 137.922481,181.283721 142.784496,183.962791 C145.860465,185.748837 147.547287,187.733333 152.111628,188.130233 L152.111628,188.130233 Z" stroke="#D33833" stroke-width="2">
</path>
		<path d="M156.576744,196.762791 C155.882171,192.793798 155.088372,191.702326 155.386047,188.229457 C166.003101,181.184496 167.888372,200.334884 156.576744,196.762791" fill="#D33833">
</path>
		<path d="M156.576744,196.762791 C155.882171,192.793798 155.088372,191.702326 155.386047,188.229457 C166.003101,181.184496 167.888372,200.334884 156.576744,196.762791 L156.576744,196.762791 Z" stroke="#D33833" stroke-width="2">
</path>
		<path d="M171.857364,199.937984 C171.857364,199.937984 168.582946,195.274419 170.964341,193.885271 C173.345736,192.496124 175.627907,193.885271 177.017054,191.503876 C178.406202,189.122481 177.017054,187.733333 177.513178,184.955039 C178.009302,182.176744 180.291473,181.68062 182.672868,181.184496 C185.054264,180.688372 191.603101,179.795349 192.496124,182.077519 L189.717829,173.643411 L184.062016,171.75814 L166.300775,182.077519 L165.407752,187.237209 L165.407752,197.556589" fill="#EF3D3A">
</path>
		<path d="M122.64186,215.417054 C122.046512,208.074419 121.451163,200.831008 120.855814,193.488372 C119.863566,182.573643 123.435659,184.458915 132.96124,184.458915 C134.449612,184.458915 141.891473,186.145736 142.387597,187.237209 C144.967442,192.496124 138.12093,191.305426 145.364341,195.274419 C151.417054,198.548837 162.232558,193.289922 159.751938,185.848062 C158.362791,184.16124 152.607752,185.351938 150.524031,184.260465 C146.852713,182.375194 143.181395,180.489922 139.510078,178.604651 C134.846512,176.223256 124.130233,172.651163 119.168992,176.024806 C106.567442,184.55814 119.962791,205.990698 124.427907,214.92093" fill="#EF3D3A">
</path>
		<path d="M135.044961,49.4139535 C122.244961,46.4372093 115.894574,54.772093 112.024806,63.4046512 C108.551938,62.6108527 109.941085,57.848062 110.834109,55.4666667 C113.116279,49.2155039 122.344186,40.7813953 129.885271,41.972093 C133.060465,42.3689922 137.426357,45.3457364 135.044961,49.4139535" fill="#231F20">
</path>
		<path d="M197.258915,63.9007752 L197.854264,63.9007752 C200.731783,69.8542636 203.212403,76.2046512 206.883721,81.5627907 C204.403101,87.3178295 188.427907,92.2790698 188.626357,82.1581395 C192.099225,80.6697674 198.052713,81.8604651 201.128682,79.875969 C199.342636,75.0139535 196.862016,70.8465116 197.258915,63.9007752" fill="#231F20">
</path>
		<path d="M141.494574,64.0992248 C144.272868,69.1596899 145.165891,74.4186047 149.035659,78.1891473 C150.821705,79.875969 154.195349,81.9596899 152.508527,86.7224806 C152.111628,87.8139535 149.234109,90.2945736 147.547287,90.7906977 C141.494574,92.5767442 127.305426,91.1875969 132.068217,83.5472868 C137.128682,83.7457364 143.875969,86.8217054 147.646512,83.1503876 C144.768992,78.5860465 139.609302,69.4573643 141.494574,64.0992248" fill="#231F20">
</path>
		<path d="M194.976744,115.100775 C185.848062,120.955039 175.627907,127.404651 160.545736,125.916279 C157.370543,123.137984 156.08062,116.886822 159.255814,112.818605 C160.843411,115.596899 159.851163,120.756589 164.415504,121.550388 C172.948837,123.03876 182.871318,116.291473 189.023256,114.009302 C192.793798,107.55969 188.725581,105.277519 185.252713,101.110078 C178.207752,92.675969 168.88062,82.1581395 169.178295,69.5565891 C172.055814,67.4728682 172.254264,72.7317829 172.651163,73.6248062 C176.322481,82.1581395 185.550388,93.172093 192.19845,100.514729 C193.885271,102.300775 196.564341,104.086822 196.862016,105.277519 C197.755039,108.651163 194.579845,112.818605 194.976744,115.100775" fill="#231F20">
</path>
		<path d="M74.1209302,108.948837 C71.2434109,107.262016 70.5488372,100.117829 67.1751938,99.9193798 C62.3131783,99.6217054 63.2062016,109.246512 63.2062016,114.902326 C59.9317829,111.925581 59.3364341,102.59845 61.7178295,97.8356589 C58.9395349,96.4465116 57.7488372,99.324031 56.1612403,100.316279 C58.2449612,85.9286822 77.296124,93.6682171 74.1209302,108.948837" fill="#231F20">
</path>
		<path d="M200.731783,121.153488 C196.465116,129.289922 190.412403,138.220155 177.910078,138.517829 C177.612403,135.937984 177.413953,131.869767 177.910078,130.282171 C187.534884,129.289922 193.488372,124.427907 200.731783,121.153488" fill="#231F20">
</path>
		<path d="M140.8,126.412403 C148.737984,130.579845 163.423256,131.075969 174.337984,130.778295 C174.933333,133.15969 174.933333,136.136434 174.933333,139.013953 C160.942636,139.609302 144.471318,136.136434 140.8,126.412403" fill="#231F20">
</path>
		<path d="M139.311628,134.151938 C144.868217,148.043411 163.820155,146.455814 179.795349,146.058915 C179.100775,147.844961 177.612403,150.027907 175.627907,150.722481 C170.468217,152.806202 156.378295,154.393798 149.234109,150.623256 C144.768992,148.24186 141.792248,142.784496 139.311628,139.609302 C138.220155,138.12093 132.266667,134.251163 139.311628,134.151938" fill="#231F20">
</path>
		<path d="M194.282171,210.654264 C187.832558,221.767442 181.581395,233.178295 173.941085,242.902326 C177.116279,233.475969 178.505426,217.6 179.00155,205.494574 C185.748837,202.31938 191.503876,206.189147 194.282171,210.654264" fill="#81B0C4">
</path>
		<path d="M229.110078,250.542636 C221.866667,252.031008 216.806202,259.075969 209.662016,258.579845 C213.631008,253.122481 220.378295,250.741085 229.110078,250.542636" fill="#231F20">
</path>
		<path d="M232.285271,261.854264 C226.331783,262.449612 219.386047,263.44186 213.432558,262.945736 C216.310078,258.579845 227.224806,260.167442 232.285271,261.854264" fill="#231F20">
</path>
		<path d="M234.368992,271.677519 C227.72093,271.776744 219.485271,271.677519 213.134884,271.181395 C216.905426,267.113178 230.102326,269.693023 234.368992,271.677519" fill="#231F20">
</path>
		<path d="M181.779845,298.468217 C182.772093,306.803101 186.046512,315.237209 185.649612,324.365891 C181.978295,325.556589 179.894574,326.648062 174.933333,326.648062 C174.635659,318.908527 173.544186,307.00155 173.84186,299.55969 C176.223256,299.75814 179.795349,297.872868 181.779845,298.468217" fill="#DCD9D8">
</path>
		<path d="M171.063566,175.429457 C167.689922,177.612403 164.911628,180.291473 161.637209,182.672868 C154.493023,183.069767 150.623256,182.176744 145.463566,178.108527 C145.562791,177.810853 146.058915,177.910078 146.058915,177.513178 C153.699225,180.886822 163.423256,176.124031 171.063566,175.429457" fill="#F0D6B7">
</path>
		<path d="M131.175194,227.324031 C133.258915,218.294574 141.494574,213.531783 148.936434,208.570543 C156.576744,218.294574 161.24031,230.796899 166.4,242.902326 C154.195349,239.231008 141.792248,233.376744 131.175194,227.324031" fill="#81B0C4">
</path>
		<path d="M173.84186,299.658915 C173.544186,307.100775 174.536434,318.908527 174.933333,326.747287 C179.894574,326.747287 181.978295,325.655814 185.649612,324.465116 C186.046512,315.336434 182.772093,306.902326 181.779845,298.567442 C179.795349,297.872868 176.223256,299.75814 173.84186,299.658915 L173.84186,299.658915 Z M97.2403101,257.587597 C100.514729,287.454264 105.178295,312.458915 113.810853,338.951938 C132.96124,344.806202 155.981395,345.302326 172.948837,340.043411 C169.872868,325.15969 171.162791,307.00155 169.376744,291.026357 C167.987597,279.020155 168.682171,267.013953 166.796899,254.809302 C146.257364,250.542636 117.283721,253.817054 97.2403101,257.587597 L97.2403101,257.587597 Z M171.658915,255.007752 C171.460465,267.807752 172.254264,280.508527 173.246512,293.308527 C178.207752,292.613953 181.482171,292.117829 186.046512,291.026357 C184.55814,278.722481 184.756589,264.731783 181.68062,253.817054 C178.207752,253.916279 175.131783,253.817054 171.658915,255.007752 L171.658915,255.007752 Z M196.564341,252.924031 C194.182946,252.427907 191.503876,252.924031 189.32093,252.924031 C190.412403,263.342636 192.893023,274.852713 193.786047,285.866667 C197.258915,285.965891 199.144186,284.27907 202.021705,283.782946 C202.220155,274.15814 201.227907,260.862016 196.564341,252.924031 L196.564341,252.924031 L196.564341,252.924031 Z M234.368992,287.454264 C241.711628,285.668217 246.275969,276.737984 244.192248,267.510078 C242.803101,261.35814 240.421705,249.649612 237.742636,245.68062 C235.857364,242.803101 230.59845,238.933333 226.331783,241.612403 C219.485271,245.978295 207.47907,247.268217 202.517829,252.527132 C204.99845,260.862016 205.792248,272.173643 206.784496,282.691473 C215.317829,283.187597 225.736434,280.310078 232.88062,283.386047 C227.91938,284.973643 221.568992,284.973643 217.302326,287.355039 C220.874419,289.04186 229.010853,288.744186 234.368992,287.454264 L234.368992,287.454264 L234.368992,287.454264 Z M166.300775,242.902326 C161.141085,230.796899 156.477519,218.294574 148.837209,208.570543 C141.395349,213.531783 133.258915,218.294574 131.075969,227.324031 C141.792248,233.376744 154.195349,239.231008 166.300775,242.902326 L166.300775,242.902326 Z M179.00155,205.494574 C178.505426,217.6 177.116279,233.475969 173.941085,242.902326 C181.581395,233.07907 187.832558,221.767442 194.282171,210.654264 C191.503876,206.189147 185.748837,202.31938 179.00155,205.494574 L179.00155,205.494574 Z M164.613953,200.434109 C161.736434,200.136434 159.255814,203.807752 155.485271,202.220155 C154.592248,203.212403 153.79845,204.204651 152.905426,205.196899 C161.24031,215.317829 165.110078,229.606202 171.55969,241.413953 C175.032558,230.003101 174.635659,217.6 175.429457,205.196899 C170.666667,205.395349 167.987597,200.731783 164.613953,200.434109 L164.613953,200.434109 Z M155.386047,188.229457 C155.088372,191.702326 155.882171,192.793798 156.576744,196.762791 C167.888372,200.334884 166.003101,181.184496 155.386047,188.229457 L155.386047,188.229457 Z M142.784496,184.062016 C137.922481,181.382946 130.579845,178.505426 124.229457,177.314729 C116.390698,175.826357 117.184496,188.031008 117.482171,195.274419 C117.779845,201.029457 120.756589,207.082171 122.046512,210.951938 C122.64186,212.737984 122.84031,214.623256 124.328682,215.020155 C127.007752,215.615504 135.937984,212.142636 138.418605,210.753488 C143.776744,207.875969 147.944186,203.212403 152.508527,200.037209 C152.607752,198.548837 152.607752,196.96124 152.706977,195.472868 C149.928682,194.083721 146.852713,193.190698 142.784496,192.992248 C145.463566,191.603101 149.531783,191.603101 152.012403,190.015504 C152.012403,189.420155 152.012403,188.824806 152.111628,188.229457 C147.547287,187.733333 145.860465,185.748837 142.784496,184.062016 L142.784496,184.062016 Z M96.1488372,175.627907 C92.0806202,179.795349 107.55969,185.351938 112.421705,185.649612 C112.421705,183.069767 113.910078,180.589147 113.612403,178.703876 C107.75814,177.711628 100.117829,178.406202 96.1488372,175.627907 L96.1488372,175.627907 Z M146.15814,177.513178 C146.15814,177.910078 145.662016,177.810853 145.562791,178.108527 C150.821705,182.176744 154.691473,183.069767 161.736434,182.672868 C164.911628,180.390698 167.789147,177.612403 171.162791,175.429457 C163.423256,176.124031 153.699225,180.886822 146.15814,177.513178 L146.15814,177.513178 Z M192,191.404651 C191.80155,186.84031 190.610853,177.413953 187.733333,175.727132 C181.779845,172.254264 171.262016,182.772093 166.796899,184.35969 C167.293023,185.748837 168.086822,186.84031 168.186047,188.626357 C170.865116,187.931783 174.04031,188.427907 176.322481,189.51938 C173.643411,189.817054 170.765891,189.817054 168.979845,191.106977 C168.384496,192.992248 169.178295,195.472868 168.682171,198.052713 C174.933333,199.83876 182.176744,200.731783 190.114729,201.029457 C191.603101,199.044961 192.19845,195.274419 192,191.404651 L192,191.404651 Z M89.3023256,179.596899 C88.0124031,178.703876 79.379845,167.491473 78.1891473,167.987597 C62.6108527,174.139535 48.0248062,184.756589 35.0263566,194.877519 C47.4294574,221.568992 52.4899225,254.213953 53.3829457,285.668217 C67.572093,292.316279 80.0744186,301.941085 99.4232558,302.933333 C97.1410853,287.156589 95.1565891,272.967442 93.8666667,258.083721 C89.0046512,256 82.0589147,258.182946 77.4945736,257.488372 C77.4945736,252.031008 84.4403101,255.106977 85.0356589,251.435659 C85.4325581,248.657364 81.1658915,248.458915 82.5550388,244.093023 C86.1271318,245.382946 88.0124031,248.260465 91.7829457,249.351938 C95.255814,241.810853 91.7829457,228.415504 92.2790698,222.065116 C92.3782946,220.874419 92.8744186,215.516279 95.5534884,216.409302 C97.9348837,217.203101 95.4542636,230.796899 95.6527132,236.750388 C95.8511628,242.306977 94.9581395,247.565891 97.2403101,251.03876 C115.894574,248.458915 134.846512,246.871318 155.088372,246.275969 C150.623256,244.390698 145.364341,242.604651 139.609302,239.330233 C136.434109,237.544186 126.610853,233.872868 125.717829,230.896124 C124.229457,226.133333 129.488372,223.652713 130.381395,219.584496 C120.955039,224.744186 119.168992,214.623256 116.886822,207.578295 C114.902326,201.128682 113.711628,196.266667 113.215504,192.595349 C104.979845,188.427907 96.248062,184.55814 89.3023256,179.596899 L89.3023256,179.596899 L89.3023256,179.596899 Z M183.764341,169.277519 C196.762791,163.026357 199.144186,192.793798 193.984496,202.418605 C194.778295,205.296124 197.457364,206.387597 198.548837,208.967442 C191.305426,221.965891 183.268217,234.071318 175.826357,246.871318 C181.283721,243.39845 189.221705,246.275969 195.671318,243.696124 C198.052713,242.803101 199.739535,237.345736 201.525581,232.979845 C206.486822,221.072868 211.646512,205.990698 213.928682,194.67907 C214.424806,192.099225 215.913178,186.443411 215.516279,184.16124 C214.92093,179.993798 209.364341,176.917829 206.486822,174.437209 C201.227907,169.674419 197.953488,165.606202 192.396899,161.141085 C190.313178,164.415504 185.550388,166.59845 183.764341,169.277519 L183.764341,169.277519 L183.764341,169.277519 Z M59.6341085,54.0775194 C53.4821705,60.924031 54.772093,73.6248062 55.4666667,82.7534884 C66.6790698,75.7085271 81.4635659,83.3488372 81.3643411,95.255814 C86.7224806,95.1565891 83.3488372,88.6077519 82.3565891,84.3410853 C79.1813953,70.5488372 87.7147287,55.6651163 82.7534884,43.0635659 C73.1286822,43.8573643 65.2899225,47.7271318 59.6341085,54.0775194 L59.6341085,54.0775194 L59.6341085,54.0775194 Z M103.888372,14.4868217 C89.8976744,18.455814 71.9379845,28.675969 66.1829457,41.2775194 C70.648062,40.5829457 73.724031,38.4 78.0899225,38.1023256 C79.7767442,38.0031008 81.9596899,38.7968992 83.8449612,38.3007752 C87.6155039,37.3085271 90.8899225,28.7751938 93.7674419,25.6 C96.5457364,22.524031 99.9193798,21.1348837 102.20155,18.3565891 C103.689922,17.6620155 105.872868,17.6620155 105.972093,15.4790698 C105.376744,14.7844961 104.682171,14.2883721 103.888372,14.4868217 L103.888372,14.4868217 Z M176.818605,18.2573643 C162.232558,10.0217054 137.624806,3.86976744 122.145736,11.6093023 C109.643411,17.8604651 92.7751938,28.179845 87.020155,41.1782946 C92.3782946,53.779845 85.4325581,65.2899225 84.9364341,78.0899225 C84.7379845,84.9364341 88.1116279,90.7906977 88.4093023,98.2325581 C86.524031,101.308527 80.9674419,101.606202 77.0976744,101.407752 C75.8077519,94.8589147 73.5255814,87.5162791 66.7782946,86.7224806 C57.2527132,85.6310078 50.2077519,93.5689922 49.8108527,101.804651 C49.3147287,111.528682 57.2527132,127.603101 68.5643411,126.511628 C72.9302326,126.114729 74.0217054,121.748837 78.7844961,121.748837 C81.3643411,126.908527 74.8155039,128.496124 74.1209302,132.167442 C73.9224806,133.15969 74.6170543,136.831008 75.1131783,138.617054 C77.1968992,147.051163 81.7612403,158.065116 86.2263566,164.514729 C91.9813953,172.750388 103.193798,173.941085 115.299225,174.734884 C117.482171,170.071318 125.420155,170.468217 130.579845,171.658915 C124.328682,169.178295 118.573643,163.224806 113.810853,157.965891 C108.353488,151.913178 102.796899,145.463566 102.499225,137.525581 C112.917829,151.913178 121.451163,164.514729 140.303876,170.865116 C154.592248,175.627907 171.262016,168.682171 182.275969,160.942636 C186.84031,157.767442 189.51938,152.607752 192.793798,148.043411 C204.899225,130.579845 210.555039,105.773643 209.364341,81.6620155 C208.868217,71.7395349 208.868217,61.8170543 205.494574,55.1689922 C202.021705,48.2232558 190.213953,41.8728682 183.268217,48.2232558 C181.978295,41.3767442 189.023256,37.2093023 197.258915,39.6899225 C191.404651,32.0496124 185.252713,23.020155 176.818605,18.2573643 L176.818605,18.2573643 L176.818605,18.2573643 Z M204.006202,242.604651 C215.417054,236.948837 236.651163,227.423256 243.696124,242.604651 C246.375194,248.260465 249.451163,257.686822 250.741085,263.541085 C252.626357,271.677519 248.657364,288.942636 240.223256,291.621705 C232.781395,294.003101 224.148837,293.903876 215.218605,292.117829 C214.127132,291.224806 213.035659,289.736434 212.142636,288.148837 C205.792248,287.950388 199.739535,288.446512 194.778295,291.125581 C195.274419,295.888372 192.099225,296.582946 189.023256,297.575194 C186.84031,306.406202 193.488372,317.916279 191.900775,325.854264 C190.809302,331.609302 183.764341,332.502326 178.604651,333.494574 C178.406202,336.669767 178.803101,339.348837 179.2,342.027907 C178.009302,346.393798 172.750388,348.874419 167.689922,349.469767 C151.11938,351.454264 126.015504,352.347287 110.139535,346.592248 C105.674419,335.677519 102.20155,322.48062 98.5302326,310.077519 C83.0511628,311.764341 70.4496124,303.429457 58.6418605,297.872868 C54.5736434,295.987597 48.9178295,294.896124 47.3302326,291.621705 C45.8418605,288.446512 46.4372093,282.393798 46.0403101,276.737984 C45.1472868,262.151938 44.2542636,248.062016 40.4837209,233.178295 C38.7968992,226.431008 35.7209302,220.576744 33.6372093,214.127132 C31.6527132,208.173643 28.2790698,200.731783 27.3860465,194.778295 C26.096124,185.947287 34.4310078,185.451163 39.6899225,181.581395 C47.9255814,175.627907 54.3751938,172.353488 63.3054264,166.995349 C65.9844961,165.407752 73.9224806,161.43876 74.8155039,159.553488 C76.6015504,155.882171 71.7395349,150.722481 70.4496124,147.844961 C68.3658915,143.28062 67.2744186,139.410853 66.9767442,134.945736 C59.5348837,133.755039 53.779845,129.289922 50.4062016,124.328682 C44.7503876,115.993798 40.7813953,100.613953 45.7426357,89.0046512 C46.1395349,88.1116279 48.0248062,86.2263566 48.3224806,84.8372093 C48.9178295,82.0589147 47.2310078,78.3875969 47.1317829,75.4108527 C46.6356589,60.2294574 49.7116279,47.1317829 59.9317829,42.5674419 C64.0992248,25.9968992 78.9829457,20.5395349 92.9736434,12.303876 C98.2325581,9.22790698 103.987597,7.24341085 109.941085,5.06046512 C131.274419,-2.77829457 164.117829,-1.28992248 181.87907,12.1054264 C189.420155,17.7612403 201.426357,29.7674419 205.693023,38.4992248 C217.103876,61.420155 216.210853,99.820155 208.272868,127.80155 C207.181395,131.572093 205.693023,137.029457 203.510078,141.593798 C202.021705,144.768992 197.35814,151.020155 197.854264,153.79845 C198.449612,156.675969 208.570543,164.316279 210.753488,166.4 C214.623256,170.170543 222.065116,175.131783 222.660465,179.894574 C223.355039,184.955039 220.477519,191.900775 218.989147,196.762791 C214.226357,213.035659 209.463566,228.018605 204.006202,242.604651 L204.006202,242.604651 Z" fill="#231F20">
</path>
		<path d="M128.099225,129.885271 C128.694574,129.091473 132.068217,127.80155 136.831008,130.083721 C136.831008,130.083721 131.175194,130.976744 131.671318,140.403101 L129.289922,139.906977 C129.389147,140.006202 126.908527,131.472868 128.099225,129.885271" fill="#F7E4CD">
</path>
		<path d="M169.178295,210.455814 C169.178295,211.844961 167.987597,213.035659 166.59845,213.035659 C165.209302,213.035659 164.018605,211.844961 164.018605,210.455814 C164.018605,209.066667 165.209302,207.875969 166.59845,207.875969 C168.086822,207.875969 169.178295,209.066667 169.178295,210.455814" fill="#1D1919">
</path>
		<path d="M171.75814,222.462016 C171.75814,223.851163 170.567442,225.04186 169.178295,225.04186 C167.789147,225.04186 166.59845,223.851163 166.59845,222.462016 C166.59845,221.072868 167.789147,219.882171 169.178295,219.882171 C170.666667,219.882171 171.75814,220.973643 171.75814,222.462016" fill="#1D1919">
</path>
		<g transform="translate(0.992248, 367.131783)" fill="#231F20">
			<path d="M35.6217054,7.14418605 C34.827907,7.24341085 34.1333333,7.34263566 33.5379845,7.44186047 C32.9426357,7.54108527 32.3472868,7.64031008 31.5534884,7.83875969 C30.6604651,8.0372093 30.1643411,8.43410853 29.9658915,9.02945736 C29.7674419,9.6248062 29.5689922,10.220155 29.5689922,11.0139535 L29.5689922,35.2248062 C29.5689922,37.4077519 29.0728682,39.4914729 28.179845,41.3767442 C27.2868217,43.2620155 26.096124,44.7503876 24.5085271,46.0403101 C22.9209302,47.2310078 21.1348837,48.2232558 19.1503876,48.8186047 C17.1658915,49.4139535 15.0821705,49.8108527 12.8992248,49.8108527 C9.02945736,49.8108527 5.95348837,48.9178295 3.57209302,47.0325581 C1.19069767,45.1472868 0,42.6666667 0,39.3922481 C0,37.5069767 0.496124031,35.9193798 1.5875969,34.6294574 C2.67906977,33.3395349 4.16744186,32.744186 6.05271318,32.744186 C7.83875969,32.744186 9.22790698,33.2403101 10.3193798,34.3317829 C11.4108527,35.4232558 11.9069767,36.7131783 11.9069767,38.2015504 C11.9069767,39.4914729 11.4108527,40.7813953 10.5178295,41.8728682 C9.6248062,42.9643411 8.53333333,44.055814 7.34263566,44.9488372 L7.34263566,45.3457364 C7.54108527,45.7426357 7.9379845,46.1395349 8.53333333,46.4372093 C9.12868217,46.7348837 9.82325581,46.8341085 10.4186047,46.8341085 C12.8992248,46.8341085 14.8837209,45.9410853 16.2728682,44.1550388 C17.6620155,42.3689922 18.3565891,39.6899225 18.3565891,36.1178295 L18.3565891,11.3116279 C18.3565891,10.6170543 18.2573643,9.92248062 18.0589147,9.42635659 C17.8604651,8.93023256 17.2651163,8.53333333 16.372093,8.13643411 C15.7767442,7.83875969 14.9829457,7.64031008 14.0899225,7.44186047 C13.1968992,7.24341085 12.5023256,7.14418605 11.9069767,7.04496124 L11.9069767,4.66356589 L35.324031,4.66356589 L35.324031,7.14418605 L35.6217054,7.14418605 Z">
</path>
			<path d="M72.3348837,41.2775194 C71.6403101,42.4682171 70.7472868,43.5596899 69.7550388,44.6511628 C68.7627907,45.7426357 67.572093,46.5364341 66.2821705,47.3302326 C64.8930233,48.124031 63.503876,48.7193798 62.1147287,49.1162791 C60.7255814,49.5131783 59.0387597,49.7116279 57.2527132,49.7116279 C54.1767442,49.7116279 51.5968992,49.3147287 49.3147287,48.4217054 C47.1317829,47.5286822 45.2465116,46.4372093 43.8573643,44.9488372 C42.3689922,43.4604651 41.3767442,41.7736434 40.5829457,39.7891473 C39.8883721,37.8046512 39.4914729,35.6217054 39.4914729,33.3395349 C39.4914729,31.255814 39.8883721,29.172093 40.6821705,27.2868217 C41.475969,25.4015504 42.5674419,23.6155039 43.9565891,22.1271318 C45.3457364,20.6387597 47.1317829,19.448062 49.3147287,18.5550388 C51.4976744,17.6620155 53.8790698,17.1658915 56.4589147,17.1658915 C59.3364341,17.1658915 61.7178295,17.5627907 63.6031008,18.2573643 C65.4883721,18.951938 66.9767442,19.944186 68.1674419,21.1348837 C69.3581395,22.3255814 70.151938,23.7147287 70.7472868,25.3023256 C71.2434109,26.8899225 71.5410853,28.5767442 71.5410853,30.3627907 L71.5410853,32.3472868 L50.6046512,32.3472868 C50.6046512,36.6139535 51.3984496,39.7891473 53.0852713,41.972093 C54.6728682,44.1550388 57.351938,45.2465116 60.8248062,45.2465116 C62.8093023,45.2465116 64.496124,44.7503876 66.0837209,43.6589147 C67.6713178,42.5674419 68.9612403,41.2775194 70.0527132,39.5906977 L72.3348837,41.2775194 L72.3348837,41.2775194 Z M60.5271318,29.4697674 C60.5271318,28.2790698 60.427907,26.9891473 60.3286822,25.6992248 C60.2294574,24.4093023 60.0310078,23.3178295 59.6341085,22.524031 C59.2372093,21.5317829 58.8403101,20.8372093 58.1457364,20.3410853 C57.5503876,19.8449612 56.7565891,19.6465116 55.8635659,19.6465116 C54.275969,19.6465116 52.9860465,20.4403101 52.0930233,22.027907 C51.1007752,23.6155039 50.6046512,26.1953488 50.5054264,29.6682171 L60.5271318,29.4697674 L60.5271318,29.4697674 Z">
</path>
			<path d="M116.093023,48.620155 L97.4387597,48.620155 L97.4387597,46.3379845 C97.8356589,46.3379845 98.3317829,46.2387597 98.827907,46.1395349 C99.4232558,46.0403101 99.820155,45.9410853 100.117829,45.8418605 C100.514729,45.6434109 100.812403,45.2465116 101.010853,44.8496124 C101.209302,44.4527132 101.308527,43.7581395 101.308527,42.9643411 L101.308527,28.4775194 C101.308527,26.3937984 100.911628,24.8062016 100.117829,23.7147287 C99.324031,22.6232558 98.2325581,22.1271318 96.6449612,22.1271318 C95.8511628,22.1271318 95.0573643,22.2263566 94.3627907,22.524031 C93.6682171,22.7224806 92.9736434,23.1193798 92.2790698,23.6155039 C91.6837209,24.0124031 91.1875969,24.4093023 90.7906977,24.9054264 C90.3937984,25.3023256 90.096124,25.6992248 89.8976744,26.096124 L89.8976744,42.6666667 C89.8976744,43.3612403 89.9968992,43.9565891 90.1953488,44.4527132 C90.3937984,44.9488372 90.7906977,45.3457364 91.1875969,45.544186 C91.4852713,45.7426357 91.8821705,45.9410853 92.3782946,46.0403101 C92.8744186,46.1395349 93.3705426,46.2387597 93.8666667,46.3379845 L93.8666667,48.620155 L75.0139535,48.620155 L75.0139535,46.3379845 C75.5100775,46.3379845 76.0062016,46.2387597 76.6015504,46.1395349 C77.0976744,46.0403101 77.5937984,45.9410853 77.9906977,45.8418605 C78.6852713,45.6434109 79.0821705,45.2465116 79.379845,44.7503876 C79.5782946,44.2542636 79.7767442,43.6589147 79.7767442,42.8651163 L79.7767442,24.8062016 C79.7767442,24.2108527 79.5782946,23.5162791 79.2806202,22.9209302 C78.9829457,22.3255814 78.4868217,21.8294574 77.9906977,21.4325581 C77.5937984,21.2341085 77.1968992,20.9364341 76.6015504,20.8372093 C76.0062016,20.6387597 75.4108527,20.5395349 74.7162791,20.5395349 L74.7162791,18.2573643 L89.5007752,17.4635659 L89.9968992,17.9596899 L89.9968992,22.4248062 L90.096124,22.4248062 C90.6914729,21.9286822 91.3860465,21.3333333 92.179845,20.5395349 C92.9736434,19.8449612 93.7674419,19.2496124 94.4620155,18.7534884 C95.255814,18.2573643 96.248062,17.8604651 97.4387597,17.4635659 C98.6294574,17.0666667 100.018605,16.9674419 101.407752,16.9674419 C104.781395,16.9674419 107.262016,17.9596899 108.948837,19.8449612 C110.635659,21.7302326 111.429457,24.3100775 111.429457,27.4852713 L111.429457,42.6666667 C111.429457,43.4604651 111.528682,44.055814 111.727132,44.4527132 C111.925581,44.9488372 112.421705,45.2465116 113.017054,45.544186 C113.314729,45.6434109 113.711628,45.8418605 114.207752,45.9410853 C114.703876,46.0403101 115.2,46.1395349 115.894574,46.2387597 L115.894574,48.620155 L116.093023,48.620155 Z">
</path>
			<path d="M158.75969,48.620155 L144.173643,48.620155 C142.387597,45.4449612 140.700775,42.7658915 139.212403,40.5829457 C137.724031,38.4 136.334884,36.3162791 135.044961,34.5302326 L133.258915,36.1178295 L133.258915,42.8651163 C133.258915,43.5596899 133.35814,44.2542636 133.556589,44.6511628 C133.755039,45.1472868 134.151938,45.4449612 134.846512,45.7426357 C135.243411,45.9410853 135.64031,46.0403101 136.136434,46.1395349 C136.632558,46.2387597 137.128682,46.3379845 137.624806,46.3379845 L137.624806,48.620155 L118.375194,48.620155 L118.375194,46.3379845 C118.871318,46.3379845 119.367442,46.2387597 119.962791,46.1395349 C120.458915,46.0403101 120.955039,45.9410853 121.351938,45.8418605 C122.046512,45.6434109 122.443411,45.2465116 122.741085,44.7503876 C122.939535,44.2542636 123.137984,43.6589147 123.137984,42.8651163 L123.137984,8.33488372 C123.137984,7.64031008 122.939535,6.94573643 122.64186,6.25116279 C122.344186,5.55658915 121.947287,4.96124031 121.351938,4.56434109 C120.955039,4.36589147 120.35969,4.06821705 119.565891,3.96899225 C118.772093,3.77054264 118.077519,3.67131783 117.382946,3.67131783 L117.382946,1.38914729 L132.762791,0.595348837 L133.258915,1.09147287 L133.258915,33.0418605 C134.747287,31.6527132 136.533333,30.0651163 138.418605,28.2790698 C140.303876,26.4930233 141.891473,25.0046512 142.982946,23.8139535 C143.677519,23.1193798 144.074419,22.6232558 144.074419,22.2263566 C144.173643,21.8294574 144.173643,21.6310078 144.173643,21.5317829 C144.173643,21.1348837 143.875969,20.8372093 143.181395,20.6387597 C142.486822,20.4403101 141.593798,20.1426357 140.204651,19.944186 L140.204651,17.7612403 L155.882171,17.7612403 L155.882171,19.944186 C153.79845,20.5395349 152.210853,21.0356589 151.11938,21.5317829 C150.027907,22.027907 148.837209,22.7224806 147.547287,23.5162791 C146.654264,24.1116279 145.860465,24.7069767 145.066667,25.3023256 C144.272868,25.8976744 143.379845,26.6914729 142.288372,27.5844961 C144.272868,30.5612403 146.15814,33.2403101 147.844961,35.7209302 C149.531783,38.2015504 151.317829,40.8806202 153.203101,43.6589147 C153.79845,44.6511628 154.592248,45.2465116 155.584496,45.6434109 C156.576744,45.9410853 157.469767,46.1395349 158.462016,46.2387597 L158.462016,48.620155 L158.75969,48.620155 Z">
</path>
			<path d="M178.604651,48.620155 L159.057364,48.620155 L159.057364,46.3379845 C159.553488,46.3379845 160.148837,46.2387597 160.644961,46.1395349 C161.141085,46.0403101 161.637209,45.9410853 161.934884,45.8418605 C162.629457,45.6434109 163.026357,45.2465116 163.324031,44.7503876 C163.621705,44.2542636 163.72093,43.6589147 163.72093,42.8651163 L163.72093,24.8062016 C163.72093,24.1116279 163.522481,23.4170543 163.224806,22.9209302 C162.927132,22.3255814 162.530233,21.9286822 162.034109,21.6310078 C161.637209,21.4325581 161.141085,21.1348837 160.347287,20.9364341 C159.553488,20.7379845 158.858915,20.5395349 158.263566,20.5395349 L158.263566,18.2573643 L173.444961,17.4635659 L173.941085,17.9596899 L173.941085,42.5674419 C173.941085,43.2620155 174.139535,43.8573643 174.437209,44.4527132 C174.734884,44.9488372 175.231008,45.3457364 175.727132,45.544186 C176.124031,45.7426357 176.620155,45.9410853 177.116279,46.0403101 C177.612403,46.1395349 178.108527,46.2387597 178.703876,46.3379845 L178.703876,48.620155 L178.604651,48.620155 Z M174.139535,6.4496124 C174.139535,8.0372093 173.544186,9.32713178 172.353488,10.4186047 C171.162791,11.5100775 169.674419,12.1054264 168.086822,12.1054264 C166.4,12.1054264 165.010853,11.5100775 163.72093,10.4186047 C162.530233,9.32713178 161.934884,7.9379845 161.934884,6.4496124 C161.934884,4.8620155 162.530233,3.57209302 163.72093,2.38139535 C164.911628,1.28992248 166.4,0.694573643 168.086822,0.694573643 C169.773643,0.694573643 171.162791,1.28992248 172.353488,2.38139535 C173.544186,3.47286822 174.139535,4.8620155 174.139535,6.4496124 L174.139535,6.4496124 Z">
</path>
			<path d="M222.362791,48.620155 L203.708527,48.620155 L203.708527,46.3379845 C204.105426,46.3379845 204.60155,46.2387597 205.097674,46.1395349 C205.693023,46.0403101 206.089922,45.9410853 206.387597,45.8418605 C206.784496,45.6434109 207.082171,45.2465116 207.28062,44.8496124 C207.47907,44.4527132 207.578295,43.7581395 207.578295,42.9643411 L207.578295,28.4775194 C207.578295,26.3937984 207.181395,24.8062016 206.387597,23.7147287 C205.593798,22.6232558 204.502326,22.1271318 202.914729,22.1271318 C202.12093,22.1271318 201.327132,22.2263566 200.632558,22.524031 C199.937984,22.8217054 199.243411,23.1193798 198.548837,23.6155039 C197.953488,24.0124031 197.457364,24.4093023 197.060465,24.9054264 C196.663566,25.3023256 196.365891,25.6992248 196.167442,26.096124 L196.167442,42.6666667 C196.167442,43.3612403 196.266667,43.9565891 196.465116,44.4527132 C196.663566,44.9488372 197.060465,45.3457364 197.457364,45.544186 C197.755039,45.7426357 198.151938,45.9410853 198.648062,46.0403101 C199.144186,46.1395349 199.64031,46.2387597 200.136434,46.3379845 L200.136434,48.620155 L181.283721,48.620155 L181.283721,46.3379845 C181.779845,46.3379845 182.275969,46.2387597 182.871318,46.1395349 C183.367442,46.0403101 183.863566,45.9410853 184.260465,45.8418605 C184.955039,45.6434109 185.351938,45.2465116 185.649612,44.7503876 C185.848062,44.2542636 186.046512,43.6589147 186.046512,42.8651163 L186.046512,24.8062016 C186.046512,24.2108527 185.848062,23.5162791 185.550388,22.9209302 C185.252713,22.3255814 184.756589,21.8294574 184.260465,21.4325581 C183.863566,21.2341085 183.466667,20.9364341 182.871318,20.8372093 C182.275969,20.6387597 181.68062,20.5395349 180.986047,20.5395349 L180.986047,18.2573643 L195.770543,17.4635659 L196.266667,17.9596899 L196.266667,22.4248062 L196.365891,22.4248062 C196.96124,21.9286822 197.655814,21.3333333 198.449612,20.5395349 C199.243411,19.8449612 200.037209,19.2496124 200.731783,18.7534884 C201.525581,18.2573643 202.517829,17.8604651 203.708527,17.4635659 C204.899225,17.0666667 206.288372,16.9674419 207.677519,16.9674419 C211.051163,16.9674419 213.531783,17.9596899 215.218605,19.8449612 C216.905426,21.7302326 217.699225,24.3100775 217.699225,27.4852713 L217.699225,42.6666667 C217.699225,43.4604651 217.79845,44.055814 217.996899,44.4527132 C218.195349,44.9488372 218.691473,45.2465116 219.286822,45.544186 C219.584496,45.6434109 219.981395,45.8418605 220.477519,45.9410853 C220.973643,46.0403101 221.469767,46.1395349 222.164341,46.2387597 L222.164341,48.620155 L222.362791,48.620155 Z">
</path>
			<path d="M239.528682,49.7116279 C237.544186,49.7116279 235.55969,49.4139535 233.674419,48.8186047 C231.789147,48.2232558 230.300775,47.627907 229.209302,46.9333333 L228.316279,49.0170543 L225.934884,49.0170543 L225.537984,37.5069767 L227.820155,37.5069767 C228.117829,38.4 228.613953,39.4914729 229.407752,40.6821705 C230.102326,41.8728682 230.995349,42.8651163 231.888372,43.8573643 C232.88062,44.7503876 233.972093,45.544186 235.262016,46.2387597 C236.551938,46.8341085 237.84186,47.2310078 239.231008,47.2310078 C241.116279,47.2310078 242.505426,46.8341085 243.39845,46.1395349 C244.291473,45.4449612 244.787597,44.2542636 244.787597,42.7658915 C244.787597,41.972093 244.589147,41.2775194 244.192248,40.6821705 C243.795349,40.1860465 243.2,39.6899225 242.505426,39.2930233 C241.711628,38.896124 240.818605,38.4992248 239.826357,38.2015504 C238.834109,37.903876 237.643411,37.6062016 236.254264,37.1100775 C234.865116,36.7131783 233.674419,36.3162791 232.682171,35.820155 C231.689922,35.4232558 230.59845,34.7286822 229.606202,33.8356589 C228.713178,33.0418605 227.91938,32.0496124 227.423256,30.9581395 C226.827907,29.8666667 226.629457,28.4775194 226.629457,26.8899225 C226.629457,24.0124031 227.820155,21.6310078 230.300775,19.8449612 C232.781395,18.0589147 235.956589,17.1658915 239.925581,17.1658915 C241.810853,17.1658915 243.497674,17.3643411 245.085271,17.7612403 C246.672868,18.1581395 247.962791,18.5550388 249.054264,19.0511628 L249.748837,17.2651163 L252.130233,17.2651163 L252.626357,27.7829457 L250.443411,27.7829457 C249.748837,25.6 248.458915,23.8139535 246.772093,22.2263566 C244.986047,20.6387597 243.100775,19.8449612 241.116279,19.8449612 C239.528682,19.8449612 238.23876,20.1426357 237.345736,20.8372093 C236.452713,21.5317829 235.956589,22.4248062 235.956589,23.6155039 C235.956589,25.2031008 236.651163,26.2945736 237.941085,26.9891473 C239.231008,27.6837209 241.116279,28.3782946 243.497674,28.9736434 C247.168992,29.9658915 249.848062,31.255814 251.634109,32.8434109 C253.32093,34.5302326 254.213953,36.6139535 254.213953,39.0945736 C254.213953,42.4682171 252.924031,45.1472868 250.244961,46.9333333 C247.268217,48.7193798 243.795349,49.7116279 239.528682,49.7116279 L239.528682,49.7116279 Z">
</path>
		</g>
	</g>
</symbol>
<symbol id="jsp-file-format-symbol-svgrepo-com" viewBox="0 0 550.801 550.801">
<g>
	<g>
		<g>
			<path d="M373.392,417.304c-5.664,0-9.508,0.543-11.507,1.091v36.355c2.368,0.559,5.289,0.738,9.312,0.738
				c14.798,0,23.941-7.499,23.941-20.092C395.134,424.069,387.276,417.304,373.392,417.304z"/>
			<path d="M475.095,132c-0.031-2.529-0.833-5.023-2.568-6.995L366.319,3.694c-0.021-0.031-0.053-0.042-0.089-0.074
				c-0.628-0.709-1.361-1.292-2.136-1.803c-0.232-0.153-0.465-0.288-0.707-0.422c-0.686-0.369-1.393-0.67-2.136-0.892
				c-0.2-0.061-0.374-0.14-0.575-0.195C359.87,0.119,359.037,0,358.198,0H97.2c-11.907,0-21.6,9.695-21.6,21.601v507.6
				c0,11.913,9.692,21.601,21.6,21.601h356.4c11.918,0,21.6-9.688,21.6-21.601V133.21C475.2,132.804,475.137,132.398,475.095,132z
				 M212.441,475.042c0,35.079-16.809,47.324-43.854,47.324c-6.392,0-14.795-1.097-20.282-2.922l3.111-22.47
				c3.839,1.271,8.765,2.188,14.249,2.188c11.696,0,19.008-5.295,19.008-24.479v-77.478h27.772v77.836H212.441z M265.776,522.182
				c-14.067,0-27.949-3.654-34.889-7.494l5.667-23.023c7.488,3.839,18.995,7.678,30.871,7.678c12.793,0,19.556-5.3,19.556-13.347
				c0-7.673-5.843-12.05-20.643-17.354c-20.472-7.119-33.803-18.452-33.803-36.355c0-21.015,17.54-37.094,46.596-37.094
				c13.878,0,24.103,2.922,31.417,6.213l-6.207,22.47c-4.936-2.368-13.7-5.843-25.766-5.843c-12.053,0-17.896,5.479-17.896,11.87
				c0,7.857,6.939,11.338,22.837,17.355c21.731,8.042,31.978,19.38,31.978,36.739C315.483,504.637,299.595,522.182,265.776,522.182z
				 M411.402,463.895c-9.519,8.954-23.572,12.973-40.015,12.973c-3.66,0-6.95-0.18-9.503-0.554v44.033h-27.591v-121.5
				c8.575-1.461,20.651-2.558,37.632-2.558c17.181,0,29.426,3.279,37.642,9.861c7.868,6.206,13.162,16.442,13.162,28.497
				C422.729,446.703,418.711,456.949,411.402,463.895z M97.2,366.758V21.605h250.204v110.519c0,5.961,4.83,10.8,10.8,10.8h95.396
				l0.011,223.834H97.2z"/>
		</g>
		<path d="M257.278,204.473c0,0-14.521-27.968-13.988-48.395c0.39-14.597,33.309-29.03,46.248-49.984
			c12.878-20.967-1.629-41.378-1.629-41.378s3.232,15.048-5.368,30.634c-8.594,15.585-40.34,24.737-52.69,51.598
			C217.517,173.821,257.278,204.473,257.278,204.473z"/>
		<path d="M311.587,119.547c0,0-49.455,18.808-49.455,40.299c0,21.507,13.434,28.493,15.591,35.474
			c2.148,6.998-3.755,18.818-3.755,18.818s19.351-13.429,16.103-29.035c-3.228-15.591-18.278-20.424-9.672-36.007
			C286.147,138.657,311.587,119.547,311.587,119.547z"/>
		<path d="M251.92,232.87c51.018-1.825,57.019-11.43,62.345-16.047c-29.553,8.05-108.023,7.533-108.591,1.613
			c-0.52-5.914,24.187-10.758,24.187-10.758s-38.686,0-41.916,9.677C184.708,227.046,206.252,234.471,251.92,232.87z"/>
		<path d="M321.78,208.771c0,0,22.043,0,24.189,13.434c2.136,13.431-27.938,33.315-27.938,33.315s47.371-9.542,42.968-33.837
			C355.631,192.122,321.78,208.771,321.78,208.771z"/>
		<path d="M268.002,247.467c-22.383,2.519-49.431,0.53-51.598-3.246c-2.109-3.763,3.787-5.901,3.787-5.901
			c-26.903,6.462-12.203,17.721,19.311,19.899c27.01,1.84,57.193-8.074,57.193-8.074l9.308-7.517
			C306.008,242.629,284.713,245.587,268.002,247.467z"/>
		<path d="M226.65,266.114c0,0-12.195,0.34-12.902,6.797c-0.72,6.413,3.784,9.672,33.94,8.96
			c35.896-0.854,41.882-5.126,45.578-8.234l8.743-6.59c-23.456,3.041-25.27,3.868-38.569,4.245
			c-13.376,0.388-36.798,1.237-37.866-1.241C224.488,267.535,226.65,266.114,226.65,266.114z"/>
		<path d="M343.818,295.145c4.65-5.031-1.445-8.971-1.445-8.971s2.146,2.516-0.696,5.374c-2.868,2.858-29.035,10.02-70.975,12.165
			c-41.913,2.168-87.431-3.928-88.878-9.307c-1.382-5.379,23.316-9.661,23.316-9.661c-2.855,0.358-37.27,1.075-38.367,10.399
			c-1.042,9.312,15.05,16.822,79.576,16.822C310.859,311.967,339.178,300.133,343.818,295.145z"/>
		<path d="M318.737,316.264c-28.318,5.743-114.278,2.126-114.278,2.126s55.87,13.252,119.657,2.151
			c30.486-5.305,32.263-20.07,32.263-20.07S347.045,310.521,318.737,316.264z"/>
	</g>
</g>
</symbol>
<symbol id="kibana-svgrepo-com" viewBox="-43 0 342 342">
    <g>
				<path d="M0,306.929431 L0,340.94153 L15.9856864,340.94153 L156.319606,172.717689 C146.588635,166.392997 136.454031,160.712166 125.980814,155.71164 L0,306.929431 Z" fill="#009B90">
</path>
				<path d="M156.32414,172.717689 L15.9221957,341.009554 L255.571444,341.009554 C255.571444,272.441163 216.661603,211.491482 156.32414,172.717689 Z" fill="#40BEB0">
</path>
				<polygon fill="#EF5098" points="-5.24025268e-14 0 -1.27897692e-13 307.445368 256 0">
</polygon>
				<path d="M0.0681886504,307.339209 L126.243164,155.845133 C86.6932342,137.371934 43.6510777,127.804446 0,128.003058 L0.0681886504,307.339209 Z" fill="#353535">
</path>
		</g>
</symbol>
<symbol id="Microsoft_Azure" viewBox="0 0 96 96">
    <defs>
        <linearGradient id="Microsoft_Azure-e399c19f-b68f-429d-b176-18c2117ff73c" x1="-1032.172" x2="-1059.213" y1="145.312" y2="65.426" gradientTransform="matrix(1 0 0 -1 1075 158)" gradientUnits="userSpaceOnUse">
            <stop offset="0" stop-color="#114a8b"/>
            <stop offset="1" stop-color="#0669bc"/>
        </linearGradient>
        <linearGradient id="Microsoft_Azure-ac2a6fc2-ca48-4327-9a3c-d4dcc3256e15" x1="-1023.725" x2="-1029.98" y1="108.083" y2="105.968" gradientTransform="matrix(1 0 0 -1 1075 158)" gradientUnits="userSpaceOnUse">
            <stop offset="0" stop-opacity=".3"/>
            <stop offset=".071" stop-opacity=".2"/>
            <stop offset=".321" stop-opacity=".1"/>
            <stop offset=".623" stop-opacity=".05"/>
            <stop offset="1" stop-opacity="0"/>
        </linearGradient>
        <linearGradient id="Microsoft_Azure-a7fee970-a784-4bb1-af8d-63d18e5f7db9" x1="-1027.165" x2="-997.482" y1="147.642" y2="68.561" gradientTransform="matrix(1 0 0 -1 1075 158)" gradientUnits="userSpaceOnUse">
            <stop offset="0" stop-color="#3ccbf4"/>
            <stop offset="1" stop-color="#2892df"/>
        </linearGradient>
    </defs>
    <path fill="url(#Microsoft_Azure-e399c19f-b68f-429d-b176-18c2117ff73c)" d="M33.338 6.544h26.038l-27.03 80.087a4.152 4.152 0 0 1-3.933 2.824H8.149a4.145 4.145 0 0 1-3.928-5.47L29.404 9.368a4.152 4.152 0 0 1 3.934-2.825z"/>
    <path fill="#0078d4" d="M71.175 60.261h-41.29a1.911 1.911 0 0 0-1.305 3.309l26.532 24.764a4.171 4.171 0 0 0 2.846 1.121h23.38z"/>
    <path fill="url(#Microsoft_Azure-ac2a6fc2-ca48-4327-9a3c-d4dcc3256e15)" d="M33.338 6.544a4.118 4.118 0 0 0-3.943 2.879L4.252 83.917a4.14 4.14 0 0 0 3.908 5.538h20.787a4.443 4.443 0 0 0 3.41-2.9l5.014-14.777 17.91 16.705a4.237 4.237 0 0 0 2.666.972H81.24L71.024 60.261l-29.781.007L59.47 6.544z"/>
    <path fill="url(#Microsoft_Azure-a7fee970-a784-4bb1-af8d-63d18e5f7db9)" d="M66.595 9.364a4.145 4.145 0 0 0-3.928-2.82H33.648a4.146 4.146 0 0 1 3.928 2.82l25.184 74.62a4.146 4.146 0 0 1-3.928 5.472h29.02a4.146 4.146 0 0 0 3.927-5.472z"/>
</symbol>
<symbol id="MySQL_textlogo" viewBox="-7.93 -7.93 388 115">
<title>MySQL textlogo</title>
 <path d="m150 16.9c-6.1 33.2-14.1 57.3-24.1 72.3-7.78 11.6-16.3 17.4-25.6 17.4-2.47 0-5.52-0.747-9.14-2.23v-8c1.77 0.26 3.84 0.398 6.23 0.398 4.33 0 7.82-1.2 10.5-3.59 3.18-2.92 4.77-6.2 4.77-9.83 0-2.48-1.24-7.58-3.71-15.3l-16.4-51.2h14.7l11.8 38.3c2.65 8.69 3.76 14.8 3.31 18.2 6.45-17.3 11-36.1 13.5-56.5h14.2m-65 66.2h-15c-0.527-25.3-1.99-49.2-4.37-71.5h-0.132l-22.8 71.5h-11.4l-22.7-71.5h-0.134c-1.68 21.4-2.74 45.3-3.18 71.5h-13.7c0.882-31.9 3.09-61.8 6.62-89.7h18.6l21.6 65.9h0.133l21.7-65.9h17.8c3.89 32.7 6.19 62.6 6.89 89.7" style="fill:#00758f"/>
 <path d="m350 83.1h-42.5v-89.7h14.3v78.7h28.2v11m-107-17.9c-3.62-5.85-5.44-15.2-5.44-28.2 0-22.6 6.85-33.9 20.5-33.9 7.16 0 12.4 2.7 15.8 8.1 3.62 5.85 5.44 15.2 5.44 27.9 0 22.8-6.85 34.2-20.5 34.2-7.16 0-12.4-2.7-15.8-8.11m53.3 20.1-16.4-8.13c1.46-1.2 2.86-2.5 4.11-4.01 6.98-8.23 10.5-20.4 10.5-36.5 0-29.7-11.6-44.5-34.9-44.5-11.4 0-20.3 3.76-26.6 11.3-6.99 8.24-10.5 20.4-10.5 36.4 0 15.8 3.09 27.3 9.28 34.7 5.64 6.64 14.2 9.97 25.6 9.97 4.26 0 8.16-0.526 11.7-1.58l21.4 12.5 5.84-10.1m-80-27c0 7.61-2.79 13.9-8.35 18.7-5.56 4.87-13 7.3-22.4 7.3-8.75 0-17.2-2.81-25.5-8.38l3.84-7.71c7.07 3.54 13.5 5.31 19.2 5.31 5.39 0 9.61-1.2 12.7-3.58 3.04-2.39 4.87-5.73 4.87-9.96 0-5.33-3.71-9.88-10.5-13.7-6.28-3.45-18.8-10.7-18.8-10.7-6.8-4.97-10.2-10.3-10.2-19.1 0-7.27 2.54-13.1 7.62-17.6 5.09-4.48 11.6-6.72 19.7-6.72 8.31 0 15.9 2.22 22.7 6.65l-3.46 7.7c-5.82-2.47-11.6-3.72-17.2-3.72-4.59 0-8.13 1.11-10.6 3.33-2.48 2.2-4.01 5.04-4.01 8.5 0 5.31 3.79 9.92 10.8 13.8 6.35 3.46 19.2 10.8 19.2 10.8 6.99 4.96 10.5 10.3 10.5 19" style="fill:#f29111"/>
 <path d="m358 83.1h2.37v-9.13h3.1v-1.86h-8.7v1.86h3.22zm18.1 0h2.24v-11h-3.36l-2.74 7.49-2.98-7.49h-3.24v11h2.12v-8.37h0.12l3.12 8.37h1.61l3.12-8.37v8.37" style="fill:#f29111"/>
</symbol>
<symbol id="new-relic-svgrepo-com" viewBox="0 -24 256 256">
	<g transform="translate(-1.000000, 0.000000)">
		<path d="M124.325988,172.739047 C85.4544168,172.739047 53.9547161,141.230702 53.9547161,102.360258 C53.9547161,63.499588 85.4544168,31.9965041 124.325988,31.9965041 C163.187033,31.9965041 194.693877,63.499588 194.693877,102.360258 C194.693877,141.230702 163.187033,172.739047 124.325988,172.739047 L124.325988,172.739047 L124.325988,172.739047 Z M255.117202,76.4115445 C243.111176,21.212921 176.917711,-11.2584937 107.26329,3.88746539 C37.6092444,19.0319209 -9.12851212,76.0593217 2.87601003,131.255314 C14.877525,186.453561 81.0739973,218.923848 150.728419,203.778641 C220.382088,188.632682 267.116837,131.605282 255.117202,76.4115445 L255.117202,76.4115445 L255.117202,76.4115445 Z" fill="#37808C">
</path>
		<path d="M123.997816,171.401982 C85.7819775,171.401982 54.814171,140.425536 54.814171,102.2112 C54.814171,64.0062536 85.7819775,33.034691 123.997816,33.034691 C162.203139,33.034691 193.178082,64.0062536 193.178082,102.2112 C193.178082,140.425536 162.203139,171.401982 123.997816,171.401982 L123.997816,171.401982 L123.997816,171.401982 Z M141.526508,15.0665422 C91.8269498,15.0665422 51.5276351,55.3621009 51.5276351,105.063162 C51.5276351,154.766852 91.8269498,195.06241 141.526508,195.06241 C191.225315,195.06241 231.527635,154.766852 231.527635,105.063162 C231.527635,55.3621009 191.225315,15.0665422 141.526508,15.0665422 L141.526508,15.0665422 L141.526508,15.0665422 Z" fill="#9BD3CD">
</path>
		<g transform="translate(78.000000, 61.000000)" fill="#1B1A19">
			<path d="M21.0163143,33.9485676 L13.4682739,18.1226223 C11.6667948,14.3730929 9.816334,10.136738 9.1829373,8.1400799 L9.0371139,8.2862772 C9.2805267,11.1107631 9.3295084,14.6651135 9.3781162,17.6357967 L9.5725473,33.9485676 L4.0705205,33.9485676 L4.0705205,0.2517851 L10.4003752,0.2517851 L18.5814384,16.7107532 C20.1395047,19.8272597 21.6003555,23.819828 22.038573,25.3782682 L22.184771,25.2320709 C22.038573,23.5278074 21.6979449,18.7070373 21.6979449,15.6391386 L21.6003555,0.2517851 L26.908325,0.2517851 L26.908325,33.9485676 L21.0163143,33.9485676">
</path>
			<path d="M41.661908,12.7660449 C38.642617,12.7660449 36.987335,15.152313 36.987335,19.1452552 L46.093068,19.1452552 C46.093068,15.152313 44.340197,12.7660449 41.661908,12.7660449 L41.661908,12.7660449 L41.661908,12.7660449 Z M36.938353,23.0895896 L36.938353,23.4791996 C36.938353,26.8877267 38.204773,30.4914327 43.025169,30.4914327 C45.313848,30.4914327 47.310506,29.6636048 49.160967,28.0565568 L51.25484,31.3192606 C48.674141,33.5103497 45.703458,34.5815904 42.39252,34.5815904 C35.428895,34.5815904 31.046343,29.5660154 31.046343,21.6773466 C31.046343,17.3437761 31.97176,14.4703085 34.114241,12.0358065 C36.110526,9.7471279 38.545401,8.724495 41.661908,8.724495 C44.09641,8.724495 46.336855,9.3575179 48.430354,11.2565864 C50.57321,13.2046367 51.64445,16.2235537 51.64445,21.9697411 L51.64445,23.0895896 L36.938353,23.0895896 L36.938353,23.0895896 Z">
</path>
			<path d="M80.129357,34.0457831 L75.113408,34.0457831 L72.094491,22.6999795 C71.315271,19.778278 70.487443,15.9801409 70.487443,15.9801409 L70.390228,15.9801409 C70.390228,15.9801409 70.000617,18.4150168 68.78318,22.9437662 L65.812496,34.0457831 L60.796921,34.0457831 L54.077457,9.6495384 L59.385052,8.9193 L62.063341,20.8498926 C62.744972,23.9174174 63.329387,27.3259445 63.329387,27.3259445 L63.475584,27.3259445 C63.475584,27.3259445 63.962409,24.1122225 64.887453,20.7033215 L68.052941,9.3089101 L73.311929,9.3089101 L76.087433,20.4113009 C77.110066,24.404243 77.645873,27.423534 77.645873,27.423534 L77.792071,27.423534 C77.792071,27.423534 78.376112,23.6740046 79.009135,20.8009109 L81.541226,9.3089101 L87.092608,9.3089101 L80.129357,34.0457831">
</path>
			<path d="M8.9948625,48.153256 L5.9269638,48.153256 L5.9269638,58.817803 L8.8004314,58.817803 C11.721759,58.817803 13.2801992,58.427819 14.3028321,57.40556 C15.2278755,56.480143 15.8122906,55.068274 15.8122906,53.315029 C15.8122906,49.906128 13.9622037,48.153256 8.9948625,48.153256 L8.9948625,48.153256 L8.9948625,48.153256 Z M16.7859418,77.321663 L13.8646143,72.111283 C11.5273279,67.972144 9.9688877,65.634858 8.1188008,63.784397 C7.485404,63.151374 6.9985784,62.810746 5.9269638,62.762138 L5.9269638,77.321663 L0.424937,77.321663 L0.424937,43.624881 L10.6995,43.624881 C18.2471665,43.624881 21.6556936,48.007433 21.6556936,53.266047 C21.6556936,58.087191 18.5391871,62.518351 13.2801992,62.518351 C14.4976371,63.151374 16.737334,66.414078 18.4905793,69.23819 L23.457547,77.321663 L16.7859418,77.321663 L16.7859418,77.321663 Z">
</path>
			<path d="M35.532467,56.139141 C32.51355,56.139141 30.857894,58.525783 30.857894,62.518351 L39.964001,62.518351 C39.964001,58.525783 38.210756,56.139141 35.532467,56.139141 L35.532467,56.139141 L35.532467,56.139141 Z M30.808912,66.462685 L30.808912,66.852295 C30.808912,70.260823 32.075332,73.864529 36.896102,73.864529 C39.184781,73.864529 41.181439,73.036327 43.031899,71.429653 L45.125399,74.691983 C42.5447,76.883446 39.574391,77.95506 36.263079,77.95506 C29.299454,77.95506 24.916902,72.939485 24.916902,65.050816 C24.916902,60.716498 25.842319,57.843404 27.985174,55.408902 C29.981085,53.120224 32.41596,52.097591 35.532467,52.097591 C37.967343,52.097591 40.207414,52.730988 42.301287,54.629682 C44.443769,56.577733 45.515009,59.59665 45.515009,65.342837 L45.515009,66.462685 L30.808912,66.462685 L30.808912,66.462685 Z">
</path>
			<path d="M55.545038,77.857471 C50.139853,77.857471 50.139853,72.987719 50.139853,70.893845 L50.139853,49.906128 C50.139853,46.546582 49.993655,44.744355 49.652653,42.699464 L55.155428,41.482026 C55.545038,42.991484 55.593272,45.03675 55.593272,48.250472 L55.593272,69.140974 C55.593272,72.452286 55.739469,72.987719 56.129079,73.572508 C56.421099,74.010726 57.248927,74.253765 57.882324,73.961744 L58.758386,77.272682 C57.784735,77.662666 56.762102,77.857471 55.545038,77.857471">
</path>
			<path d="M62.166539,77.321663 L62.166539,53.071616 L67.571724,52.097591 L67.571724,77.321663 L62.166539,77.321663 L62.166539,77.321663 Z M64.844828,49.029692 C62.896777,49.029692 61.387319,47.423018 61.387319,45.474968 C61.387319,43.478684 62.945385,41.871636 64.941669,41.871636 C66.840738,41.871636 68.447786,43.430076 68.447786,45.474968 C68.447786,47.423018 66.840738,49.029692 64.844828,49.029692 L64.844828,49.029692 L64.844828,49.029692 Z">
</path>
			<path d="M82.909722,77.95506 C76.189883,77.95506 72.440354,73.231506 72.440354,65.293855 C72.440354,56.333946 77.796931,52.048609 83.299332,52.048609 C85.977621,52.048609 87.925297,52.682006 90.116386,54.727272 L87.438472,58.281622 C85.977621,56.967343 84.711575,56.382927 83.299332,56.382927 C81.595069,56.382927 80.182826,57.259363 79.403606,58.866411 C78.673367,60.37587 78.381347,62.664548 78.381347,65.732073 C78.381347,69.091992 78.91678,71.234848 80.036628,72.452286 C80.815848,73.328721 81.984305,73.864529 83.299332,73.864529 C85.00397,73.864529 86.659251,73.036327 88.266299,71.429653 L90.798391,74.691983 C88.558694,76.932053 86.221407,77.95506 82.909722,77.95506">
</path>
			<path d="M95.649073,72.902842 C95.561579,72.873678 95.386591,72.844513 95.19216,72.844513 L94.90014,72.844513 L94.90014,73.943049 L95.172717,73.943049 C95.522693,73.943049 95.678238,73.904163 95.785175,73.806947 C95.882391,73.709731 95.94072,73.563534 95.94072,73.398642 C95.94072,73.145881 95.843504,72.980615 95.649073,72.902842 L95.649073,72.902842 L95.649073,72.902842 Z M96.076822,76.247058 C95.921277,75.975228 95.853226,75.867917 95.697681,75.57627 C95.299097,74.847154 95.172717,74.643001 95.026894,74.584671 C94.988008,74.565228 94.949121,74.555507 94.90014,74.555507 L94.90014,76.247058 L94.103346,76.247058 L94.103346,72.192795 L95.610187,72.192795 C96.329582,72.192795 96.805938,72.669525 96.805938,73.378825 C96.805938,73.991657 96.397633,74.487456 95.901834,74.497177 C95.979606,74.565228 96.018492,74.604115 96.067474,74.672166 C96.300418,74.963812 97.039256,76.247058 97.039256,76.247058 L96.076822,76.247058 L96.076822,76.247058 Z M95.366774,71.347393 C93.831142,71.347393 92.596131,72.630265 92.596131,74.244417 C92.596131,75.858195 93.831142,77.161258 95.366774,77.161258 C96.903154,77.161258 98.147513,75.858195 98.147513,74.244417 C98.147513,72.630265 96.903154,71.347393 95.366774,71.347393 L95.366774,71.347393 L95.366774,71.347393 Z M95.366774,77.860836 C93.393672,77.860836 91.769799,76.266501 91.769799,74.244417 C91.769799,72.232055 93.393672,70.627998 95.366774,70.627998 C97.340624,70.627998 98.964498,72.232055 98.964498,74.244417 C98.964498,76.266501 97.340624,77.860836 95.366774,77.860836 L95.366774,77.860836 L95.366774,77.860836 Z">
</path>
		</g>
	</g>
</symbol>
<symbol id="Official_CSS_Logo" viewBox="0 0 1000 1000">
  <title id="Official_CSS_Logo-css-logo-title">CSS Logo</title>
  <desc id="Official_CSS_Logo-css-logo-description">A purple square with rounded corners and the letters CSS inside in white</desc>
  <path id="Official_CSS_Logo-bg" fill="#639" d="M0 0H840A160 160 0 0 1 1000 160V840A160 160 0 0 1 840 1000H160A160 160 0 0 1 0 840V0Z" />
  <path id="Official_CSS_Logo-fg" fill="#fff" d="m358.1,920c-64.23-.06-103.86-36.23-103.1-102.79,0,0,0-168.39,0-168.39,0-33.74,9.88-59.4,29.64-76.96,35.49-34.19,117.83-36.27,152.59.52,21.42,18.89,29.5,57.48,27.58,93.49h-73.72c.56-14.15-.19-35.58-8.51-43.65-10.81-14.63-39.36-12.91-46.91,2.32-4.64,8.26-6.96,20.49-6.96,36.67v146.18c0,30.65,10.65,46.15,31.96,46.49,9.96,0,17.53-3.62,22.68-10.85,7.19-8.58,8.31-27.58,7.73-41.32h73.72c5.04,70.07-36.32,119.16-106.71,118.29Zm234.04,0c-71.17.98-103.01-49.66-101.04-118.29h69.59c-1.93,29.92,8.35,57.17,32.99,55.27,10.99,0,18.73-3.44,23.2-10.33,8.5-12.59,10.09-48.95-2.06-63.02-8.49-13.55-39.03-25.51-55.16-33.57-23.03-11.02-39.61-24.1-49.75-39.26-22.87-33.64-20.75-107.48,11.34-137.4,31.18-36.92,112.61-38.62,143.82-.77,19.25,19.51,27.66,57.9,26.03,93.23h-67.02c.57-14.52-.8-37.95-6.44-46.49-3.95-7.23-11.43-10.85-22.42-10.85-19.59,0-29.38,11.71-29.38,35.12.21,24.86,9.9,35.06,32.48,45.45,29.24,11.36,66.42,30.76,79.9,54.24,40.2,71.54,12.62,180.82-86.09,176.65Zm224.76,0c-71.17.98-103.01-49.66-101.04-118.29h69.59c-1.93,29.92,8.35,57.17,32.99,55.27,10.99,0,18.73-3.44,23.2-10.33,8.5-12.59,10.09-48.95-2.06-63.02-8.49-13.55-39.03-25.51-55.16-33.57-23.03-11.02-39.61-24.1-49.75-39.26-22.87-33.64-20.75-107.48,11.34-137.4,31.18-36.92,112.61-38.62,143.82-.77,19.25,19.51,27.66,57.9,26.03,93.23h-67.02c.57-14.52-.8-37.95-6.44-46.49-3.95-7.23-11.43-10.85-22.42-10.85-19.59,0-29.38,11.71-29.38,35.12.21,24.86,9.9,35.06,32.48,45.45,29.24,11.36,66.42,30.76,79.9,54.24,40.2,71.54,12.62,180.82-86.09,176.65Z" />
</symbol>
<symbol id="Postgresql_elephant" viewBox="0 0 432.071 445.383">
<g id="Postgresql_elephant-orginal" style="fill-rule:nonzero;clip-rule:nonzero;stroke:#000000;stroke-miterlimit:4;">
	</g>
<g id="Postgresql_elephant-Layer_x0020_3" style="fill-rule:nonzero;clip-rule:nonzero;fill:none;stroke:#FFFFFF;stroke-width:12.4651;stroke-linecap:round;stroke-linejoin:round;stroke-miterlimit:4;">
<path style="fill:#000000;stroke:#000000;stroke-width:37.3953;stroke-linecap:butt;stroke-linejoin:miter;" d="M323.205,324.227c2.833-23.601,1.984-27.062,19.563-23.239l4.463,0.392c13.517,0.615,31.199-2.174,41.587-7c22.362-10.376,35.622-27.7,13.572-23.148c-50.297,10.376-53.755-6.655-53.755-6.655c53.111-78.803,75.313-178.836,56.149-203.322    C352.514-5.534,262.036,26.049,260.522,26.869l-0.482,0.089c-9.938-2.062-21.06-3.294-33.554-3.496c-22.761-0.374-40.032,5.967-53.133,15.904c0,0-161.408-66.498-153.899,83.628c1.597,31.936,45.777,241.655,98.47,178.31    c19.259-23.163,37.871-42.748,37.871-42.748c9.242,6.14,20.307,9.272,31.912,8.147l0.897-0.765c-0.281,2.876-0.157,5.689,0.359,9.019c-13.572,15.167-9.584,17.83-36.723,23.416c-27.457,5.659-11.326,15.734-0.797,18.367c12.768,3.193,42.305,7.716,62.268-20.224    l-0.795,3.188c5.325,4.26,4.965,30.619,5.72,49.452c0.756,18.834,2.017,36.409,5.856,46.771c3.839,10.36,8.369,37.05,44.036,29.406c29.809-6.388,52.6-15.582,54.677-101.107"/>
<path style="fill:#336791;stroke:none;" d="M402.395,271.23c-50.302,10.376-53.76-6.655-53.76-6.655c53.111-78.808,75.313-178.843,56.153-203.326c-52.27-66.785-142.752-35.2-144.262-34.38l-0.486,0.087c-9.938-2.063-21.06-3.292-33.56-3.496c-22.761-0.373-40.026,5.967-53.127,15.902    c0,0-161.411-66.495-153.904,83.63c1.597,31.938,45.776,241.657,98.471,178.312c19.26-23.163,37.869-42.748,37.869-42.748c9.243,6.14,20.308,9.272,31.908,8.147l0.901-0.765c-0.28,2.876-0.152,5.689,0.361,9.019c-13.575,15.167-9.586,17.83-36.723,23.416    c-27.459,5.659-11.328,15.734-0.796,18.367c12.768,3.193,42.307,7.716,62.266-20.224l-0.796,3.188c5.319,4.26,9.054,27.711,8.428,48.969c-0.626,21.259-1.044,35.854,3.147,47.254c4.191,11.4,8.368,37.05,44.042,29.406c29.809-6.388,45.256-22.942,47.405-50.555    c1.525-19.631,4.976-16.729,5.194-34.28l2.768-8.309c3.192-26.611,0.507-35.196,18.872-31.203l4.463,0.392c13.517,0.615,31.208-2.174,41.591-7c22.358-10.376,35.618-27.7,13.573-23.148z"/>
<path d="M215.866,286.484c-1.385,49.516,0.348,99.377,5.193,111.495c4.848,12.118,15.223,35.688,50.9,28.045c29.806-6.39,40.651-18.756,45.357-46.051c3.466-20.082,10.148-75.854,11.005-87.281"/>
<path d="M173.104,38.256c0,0-161.521-66.016-154.012,84.109c1.597,31.938,45.779,241.664,98.473,178.316c19.256-23.166,36.671-41.335,36.671-41.335"/>
<path d="M260.349,26.207c-5.591,1.753,89.848-34.889,144.087,34.417c19.159,24.484-3.043,124.519-56.153,203.329"/>
<path style="stroke-linejoin:bevel;" d="M348.282,263.953c0,0,3.461,17.036,53.764,6.653c22.04-4.552,8.776,12.774-13.577,23.155c-18.345,8.514-59.474,10.696-60.146-1.069c-1.729-30.355,21.647-21.133,19.96-28.739c-1.525-6.85-11.979-13.573-18.894-30.338    c-6.037-14.633-82.796-126.849,21.287-110.183c3.813-0.789-27.146-99.002-124.553-100.599c-97.385-1.597-94.19,119.762-94.19,119.762"/>
<path d="M188.604,274.334c-13.577,15.166-9.584,17.829-36.723,23.417c-27.459,5.66-11.326,15.733-0.797,18.365c12.768,3.195,42.307,7.718,62.266-20.229c6.078-8.509-0.036-22.086-8.385-25.547c-4.034-1.671-9.428-3.765-16.361,3.994z"/>
<path d="M187.715,274.069c-1.368-8.917,2.93-19.528,7.536-31.942c6.922-18.626,22.893-37.255,10.117-96.339c-9.523-44.029-73.396-9.163-73.436-3.193c-0.039,5.968,2.889,30.26-1.067,58.548c-5.162,36.913,23.488,68.132,56.479,64.938"/>
<path style="fill:#FFFFFF;stroke-width:4.155;stroke-linecap:butt;stroke-linejoin:miter;" d="M172.517,141.7c-0.288,2.039,3.733,7.48,8.976,8.207c5.234,0.73,9.714-3.522,9.998-5.559c0.284-2.039-3.732-4.285-8.977-5.015c-5.237-0.731-9.719,0.333-9.996,2.367z"/>
<path style="fill:#FFFFFF;stroke-width:2.0775;stroke-linecap:butt;stroke-linejoin:miter;" d="M331.941,137.543c0.284,2.039-3.732,7.48-8.976,8.207c-5.238,0.73-9.718-3.522-10.005-5.559c-0.277-2.039,3.74-4.285,8.979-5.015c5.239-0.73,9.718,0.333,10.002,2.368z"/>
<path d="M350.676,123.432c0.863,15.994-3.445,26.888-3.988,43.914c-0.804,24.748,11.799,53.074-7.191,81.435"/>
<path style="stroke-width:3;" d="M0,60.232"/>
</g>
</symbol>
<symbol id="redis-svgrepo-com" viewBox="0 -18 256 256">
    <g>
        <path d="M245.969687,168.943256 C232.308259,176.064479 161.536048,205.163388 146.468577,213.017633 C131.402107,220.873879 123.031844,220.797876 111.129473,215.107699 C99.2271007,209.417521 23.9127473,178.99557 10.3463234,172.511368 C3.56511141,169.270267 0,166.535181 0,163.9511 L0,138.075292 C0,138.075292 98.0490639,116.729625 113.878559,111.051447 C129.707053,105.372269 135.199225,105.167264 148.669646,110.101418 C162.141067,115.036572 242.686583,129.569026 256,134.445178 C256,134.445178 255.993999,157.5559 255.993999,159.954975 C255.996,162.513055 252.923904,165.319143 245.969687,168.943256" fill="#912626">
</path>
        <path d="M245.964922,143.220067 C232.303935,150.33806 161.534003,179.438032 146.467017,187.292024 C131.401031,195.149018 123.031039,195.072017 111.12905,189.382023 C99.2260618,183.696028 23.9151336,153.269057 10.3491466,146.788063 C-3.21684053,140.303069 -3.50184026,135.840074 9.82514705,130.622079 C23.1511343,125.402084 98.0490629,96.0171117 113.880047,90.3381172 C129.708033,84.6611226 135.199028,84.4541228 148.669014,89.3901181 C162.140002,94.3241134 232.487935,122.325087 245.799922,127.200082 C259.11491,132.081078 259.625908,136.099073 245.964922,143.220067" fill="#C6302B">
</path>
        <path d="M245.969687,127.074354 C232.308259,134.195577 161.536048,163.294486 146.468577,171.151732 C131.402107,179.004977 123.031844,178.928975 111.129473,173.238797 C99.2261007,167.551619 23.9127473,137.126668 10.3463234,130.642465 C3.56511141,127.401364 0,124.669279 0,122.085199 L0,96.2063895 C0,96.2063895 98.0490639,74.8617226 113.878559,69.182545 C129.707053,63.5043676 135.199225,63.2983612 148.669646,68.2325154 C162.141067,73.1676697 242.686583,87.6971237 256,92.5742761 C256,92.5742761 255.993999,115.684998 255.993999,118.087073 C255.996,120.644153 252.923904,123.450241 245.969687,127.074354" fill="#912626">
</path>
        <path d="M245.964922,101.351164 C232.303935,108.471157 161.534003,137.569129 146.467017,145.426122 C131.401031,153.280114 123.031039,153.203114 111.12905,147.51312 C99.2260618,141.827125 23.9151336,111.401154 10.3491466,104.91916 C-3.21684053,98.4361664 -3.50184026,93.9721706 9.82514705,88.7521756 C23.1511343,83.5351806 98.0490629,54.1482087 113.880047,48.4702141 C129.708033,42.7922195 135.199028,42.5862197 148.669014,47.521215 C162.140002,52.4552102 232.487935,80.4541835 245.799922,85.3311789 C259.11491,90.2101742 259.625908,94.2301704 245.964922,101.350163 L245.964922,101.351164" fill="#C6302B">
</path>
        <path d="M245.969687,83.6525661 C232.308259,90.7737887 161.536048,119.873698 146.468577,127.730944 C131.402107,135.585189 123.031844,135.508187 111.129473,129.818008 C99.2261007,124.130831 23.9127473,93.7048802 10.3463234,87.2226777 C3.56511141,83.9805764 0,81.2474909 0,78.6654102 L0,52.7856015 C0,52.7856015 98.0490639,31.4419345 113.878559,25.7637571 C129.707053,20.0845797 135.199225,19.8795733 148.669646,24.8137275 C162.141067,29.7488817 242.686583,44.2783357 256,49.1554881 C256,49.1554881 255.993999,72.2662103 255.993999,74.6672853 C255.996,77.2223652 252.923904,80.0284528 245.969687,83.6525661" fill="#912626">
</path>
        <path d="M245.964922,57.929387 C232.303935,65.0493802 161.534003,94.1493524 146.467017,102.004345 C131.401031,109.858338 123.031039,109.781338 111.12905,104.093343 C99.2270617,98.4053484 23.9151336,67.9813773 10.3491466,61.4983836 C-3.21684053,55.0153898 -3.50184026,50.550394 9.82514705,45.331399 C23.1511343,40.113404 98.0490629,10.729432 113.880047,5.04943744 C129.708033,-0.629557148 135.199028,-0.833556953 148.669014,4.10143834 C162.140002,9.03643363 232.487935,37.0354069 245.799922,41.9124022 C259.11491,46.7883976 259.625908,50.8093938 245.964922,57.929387" fill="#C6302B">
</path>
        <path d="M159.282977,32.7570853 L137.273922,35.0422326 L132.346419,46.8976124 L124.387597,33.667969 L98.973147,31.383814 L117.936992,24.5452403 L112.247442,14.0472558 L130.001736,20.9910078 L146.739969,15.5108217 L142.21631,26.3660155 L159.282977,32.7570853" fill="#FFFFFF">
</path>
        <path d="M131.03169,90.2747287 L89.9546047,73.2378295 L148.815752,64.2034109 L131.03169,90.2747287" fill="#FFFFFF">
</path>
        <path d="M74.0816124,39.3466047 C91.4568682,39.3466047 105.541829,44.8069457 105.541829,51.5413333 C105.541829,58.2767132 91.4568682,63.736062 74.0816124,63.736062 C56.7073488,63.736062 42.6213953,58.2767132 42.6213953,51.5413333 C42.6213953,44.8069457 56.7073488,39.3466047 74.0816124,39.3466047" fill="#FFFFFF">
</path>
        <path d="M185.29476,35.9977674 L220.130605,49.7642171 L185.324527,63.5167752 L185.29476,35.9977674" fill="#621B1C">
</path>
        <path d="M146.754853,51.2426667 L185.29476,35.9977674 L185.324527,63.5167752 L181.546047,64.9952248 L146.754853,51.2426667" fill="#9A2928">
</path>
    </g>
</symbol>
<symbol id="spring-svgrepo-com" viewBox="0 0 32 32">
<g fill="none" fill-rule="evenodd">
<path d="M0 0h32v32H0z"/>
<path fill="#70AD51" d="M5.466 27.993c.586.473 1.446.385 1.918-.202.475-.585.386-1.445-.2-1.92-.585-.474-1.444-.383-1.92.202-.45.555-.392 1.356.115 1.844l-.266-.234C1.972 24.762 0 20.597 0 15.978 0 7.168 7.168 0 15.98 0c4.48 0 8.53 1.857 11.435 4.836.66-.898 1.232-1.902 1.7-3.015 2.036 6.118 3.233 11.26 2.795 15.31-.592 8.274-7.508 14.83-15.93 14.83-3.912 0-7.496-1.416-10.276-3.757l-.238-.21zm23.58-4.982c4.01-5.336 1.775-13.965-.085-19.48-1.657 3.453-5.738 6.094-9.262 6.93-3.303.788-6.226.142-9.283 1.318-6.97 2.68-6.86 10.992-3.02 12.86.002 0 .23.124.227.12 0-.002 5.644-1.122 8.764-2.274 4.56-1.684 9.566-5.835 11.213-10.657-.877 5.015-5.182 9.84-9.507 12.056-2.302 1.182-4.092 1.445-7.88 2.756-.464.158-.828.314-.828.314.96-.16 1.917-.212 1.917-.212 5.393-.255 13.807 1.516 17.745-3.73z"/>
</g>
</symbol>
<symbol id="Tailwind_CSS_Logo" viewBox="0 0 54 33"><g clip-path="url(#Tailwind_CSS_Logo-prefix__clip0)"><path fill="#38bdf8" fill-rule="evenodd" d="M27 0c-7.2 0-11.7 3.6-13.5 10.8 2.7-3.6 5.85-4.95 9.45-4.05 2.054.513 3.522 2.004 5.147 3.653C30.744 13.09 33.808 16.2 40.5 16.2c7.2 0 11.7-3.6 13.5-10.8-2.7 3.6-5.85 4.95-9.45 4.05-2.054-.513-3.522-2.004-5.147-3.653C36.756 3.11 33.692 0 27 0zM13.5 16.2C6.3 16.2 1.8 19.8 0 27c2.7-3.6 5.85-4.95 9.45-4.05 2.054.514 3.522 2.004 5.147 3.653C17.244 29.29 20.308 32.4 27 32.4c7.2 0 11.7-3.6 13.5-10.8-2.7 3.6-5.85 4.95-9.45 4.05-2.054-.513-3.522-2.004-5.147-3.653C23.256 19.31 20.192 16.2 13.5 16.2z" clip-rule="evenodd"/></g><defs><clipPath id="Tailwind_CSS_Logo-prefix__clip0"><path fill="#fff" d="M0 0h54v32.4H0z"/></clipPath></defs></symbol>
<symbol id="Typescript_logo_2020" viewBox="0 0 512 512"><rect fill="#3178c6" height="512" rx="50" width="512"/><rect fill="#3178c6" height="512" rx="50" width="512"/><path clip-rule="evenodd" d="m316.939 407.424v50.061c8.138 4.172 17.763 7.3 28.875 9.386s22.823 3.129 35.135 3.129c11.999 0 23.397-1.147 34.196-3.442 10.799-2.294 20.268-6.075 28.406-11.342 8.138-5.266 14.581-12.15 19.328-20.65s7.121-19.007 7.121-31.522c0-9.074-1.356-17.026-4.069-23.857s-6.625-12.906-11.738-18.225c-5.112-5.319-11.242-10.091-18.389-14.315s-15.207-8.213-24.18-11.967c-6.573-2.712-12.468-5.345-17.685-7.9-5.217-2.556-9.651-5.163-13.303-7.822-3.652-2.66-6.469-5.476-8.451-8.448-1.982-2.973-2.974-6.336-2.974-10.091 0-3.441.887-6.544 2.661-9.308s4.278-5.136 7.512-7.118c3.235-1.981 7.199-3.52 11.894-4.615 4.696-1.095 9.912-1.642 15.651-1.642 4.173 0 8.581.313 13.224.938 4.643.626 9.312 1.591 14.008 2.894 4.695 1.304 9.259 2.947 13.694 4.928 4.434 1.982 8.529 4.276 12.285 6.884v-46.776c-7.616-2.92-15.937-5.084-24.962-6.492s-19.381-2.112-31.066-2.112c-11.895 0-23.163 1.278-33.805 3.833s-20.006 6.544-28.093 11.967c-8.086 5.424-14.476 12.333-19.171 20.729-4.695 8.395-7.043 18.433-7.043 30.114 0 14.914 4.304 27.638 12.912 38.172 8.607 10.533 21.675 19.45 39.204 26.751 6.886 2.816 13.303 5.579 19.25 8.291s11.086 5.528 15.415 8.448c4.33 2.92 7.747 6.101 10.252 9.543 2.504 3.441 3.756 7.352 3.756 11.733 0 3.233-.783 6.231-2.348 8.995s-3.939 5.162-7.121 7.196-7.147 3.624-11.894 4.771c-4.748 1.148-10.303 1.721-16.668 1.721-10.851 0-21.597-1.903-32.24-5.71-10.642-3.806-20.502-9.516-29.579-17.13zm-84.159-123.342h64.22v-41.082h-179v41.082h63.906v182.918h50.874z" fill="#fff" fill-rule="evenodd"/></symbol>
</svg>
